SplineFontDB: 3.0
FontName: Mutsuki
FullName: Mutsuki
FamilyName: Mutsuki
Weight: Medium
Copyright: Copyright (c) 2008-2011 Gutenberg Labo.\nCopyright (c) 2012 Ryusei Yamaguchi.
Version: alpha
ItalicAngle: 0
UnderlinePosition: -100
UnderlineWidth: 50
Ascent: 860
Descent: 140
LayerCount: 2
Layer: 0 0 "+gMyXYgAA"  1
Layer: 1 0 "+Uk2XYgAA"  0
NeedsXUIDChange: 1
XUID: -1
BaseHoriz: 2 'ideo' 'romn'
BaseScript: 'hani' 0  0 200
BaseScript: 'latn' 1  -200 0
FSType: 8
OS2Version: 2
OS2_WeightWidthSlopeOnly: 0
OS2_UseTypoMetrics: 1
CreationTime: 1190148620
ModificationTime: 1328442264
PfmFamily: 17
TTFWeight: 500
TTFWidth: 5
LineGap: 90
VLineGap: 90
OS2TypoAscent: 0
OS2TypoAOffset: 1
OS2TypoDescent: 0
OS2TypoDOffset: 1
OS2TypoLinegap: 90
OS2WinAscent: 0
OS2WinAOffset: 1
OS2WinDescent: 0
OS2WinDOffset: 1
HheadAscent: 0
HheadAOffset: 1
HheadDescent: 0
HheadDOffset: 1
OS2Vendor: 'PfEd'
Lookup: 4 0 1 "'liga' +ahluljBuVAhbVwAA in +XnNO7lQNMGhyR07uVA0A lookup 3"  {"'liga' +ahluljBuVAhbVwAA in +XnNO7lQNMGhyR07uVA0A lookup 3-1"  } ['ccmp' ('kana' <'JAN ' 'dflt' > ) 'liga' ('kana' <'JAN ' 'dflt' > ) ]
Lookup: 1 0 0 "'aalt' +MFkweTBmMG51cE9TW1cweDBuMKIwrzC7MLkA lookup 0"  {"'aalt' +MFkweTBmMG51cE9TW1cweDBuMKIwrzC7MLkA lookup 0-1"  } ['aalt' ('DFLT' <'dflt' > 'cyrl' <'dflt' > 'grek' <'dflt' > 'hani' <'dflt' > 'kana' <'dflt' > 'latn' <'dflt' > 'math' <'dflt' > 'thai' <'dflt' > ) ]
Lookup: 1 0 0 "'vert' +fiZm+DBNW1dfYjAQXsNrYjAR lookup 1"  {"'vert' +fiZm+DBNW1dfYjAQXsNrYjAR lookup 1-1"  } ['vert' ('DFLT' <'dflt' > 'cyrl' <'dflt' > 'grek' <'dflt' > 'hani' <'JAN ' 'dflt' > 'kana' <'JAN ' 'dflt' > 'latn' <'dflt' > ) ]
Lookup: 1 0 0 "'vrt2' +fiZm+DBNW1dfYjBoVt6O4m4IMH9lh1tX lookup 2"  {"'vrt2' +fiZm+DBNW1dfYjBoVt6O4m4IMH9lh1tX lookup 2-1" ("vert" ) } ['vrt2' ('DFLT' <'dflt' > 'cyrl' <'dflt' > 'grek' <'dflt' > 'hani' <'JAN ' 'dflt' > 'kana' <'JAN ' 'dflt' > 'latn' <'dflt' > ) ]
MarkAttachClasses: 1
DEI: 91125

StartChar: uni3005
Encoding: 12293 12293 2
Width: 1000
Flags: W
HStem: 441 26<454 613.345>
VStem: 412 132<568.667 622.104> 528 112<87.6545 147.125>
LayerCount: 2
Back
SplineSet
440 232 m 7
 447 232 482 219 523 204 c 4
 557 192 597 164 613 144 c 4
 633 118 640 83 640 67 c 7
 640 51 631 36 622 30 c 4
 613 24 598 15 583 15 c 7
 560 15 537 29 528 44 c 4
 518 61 497 112 481 134 c 4
 465 156 437 195 430 204 c 4
 425 211 422 215 422 220 c 7
 422 226 430 232 440 232 c 7
681 451 m 3
 689 451 701 449 712 442 c 0
 722 435 736 421 752 406 c 0
 768 390 794 382 794 350 c 3
 794 325 765 321 754 316 c 0
 742 311 727 304 689 274 c 0
 646 240 589 182 568 162 c 0
 556 151 550 144 544 148 c 0
 539 151 538 155 538 164 c 0
 538 173 599 280 610 322 c 0
 625 378 602 396 594 403 c 1
 606 409 629 419 643 428 c 0
 654 435 673 451 681 451 c 3
423 411 m 25
 465 409 475 407 531 407 c 3
 587 407 608 409 658 409 c 1
 664 376 l 25
 612 378 588 381 531 381 c 3
 468 381 463 380 420 380 c 25
 423 411 l 25
544 538 m 3
 544 525 537 519 526 510 c 0
 515 501 504 491 495 478 c 0
 479 456 440 383 423 357 c 0
 380 291 297 189 256 150 c 0
 246 140 225 115 212 132 c 0
 209 136 203 140 213 152 c 0
 253 199 301 274 353 379 c 0
 400 475 408 539 412 560 c 1
 417 583 418 588 435 588 c 1
 484 588 544 558 544 538 c 3
EndSplineSet
Fore
SplineSet
544 598 m 0xc0
 544 585 537 579 526 570 c 0
 515 561 504 551 495 538 c 0
 486 526 470 496 454 469 c 1
 475 468 492 467 531 467 c 0
 563 467 584 467 605 468 c 1
 617 474 633 481 643 488 c 0
 654 495 673 511 681 511 c 0
 689 511 701 509 712 502 c 0
 722 495 737 483 753 468 c 0
 769 452 794 442 794 410 c 0
 794 385 765 381 754 376 c 0
 742 371 727 364 689 334 c 0
 653 305 606 259 580 233 c 1
 594 223 606 213 613 204 c 0
 633 178 640 143 640 127 c 0
 640 111 631 96 622 90 c 0
 613 84 598 75 583 75 c 0
 560 75 537 89 528 104 c 0xa0
 518 121 497 172 481 194 c 0
 465 216 437 255 430 264 c 0
 425 271 422 275 422 280 c 0
 422 286 430 292 440 292 c 0
 447 292 482 279 523 264 c 0
 532 261 541 257 550 252 c 1
 568 289 602 352 610 382 c 0
 613 394 615 405 615 414 c 0
 615 424 613 433 611 439 c 1
 587 440 565 441 531 441 c 0
 477 441 466 440 437 440 c 1
 432 431 427 423 423 417 c 0
 380 351 297 249 256 210 c 0
 248 202 235 186 223 186 c 3
 219 186 215 188 212 192 c 0
 210 194 207 197 207 201 c 3
 207 204 209 207 213 212 c 0
 253 259 301 334 353 439 c 0
 400 535 408 599 412 620 c 0
 417 643 418 648 435 648 c 0
 484 648 544 618 544 598 c 0xc0
EndSplineSet
Validated: 1
EndChar

StartChar: uni303B
Encoding: 12347 12347 3
Width: 1000
Flags: W
HStem: 94 192<492.801 558.205> 450 170<430 542>
VStem: 405 35<328.352 420.474> 456 142<143.463 245.293> 474 99<464.377 549.566>
LayerCount: 2
Fore
SplineSet
422 423 m 0xf0
 430 439 443 451 452 464 c 0
 461 477 474 494 474 513 c 3
 474 525 474 528 464 538 c 0
 445 557 416 585 409 592 c 0
 404 597 402 603 402 607 c 3
 402 613 418 620 430 620 c 0
 446 620 482 606 502 595 c 0
 522 585 540 571 555 552 c 0
 568 536 573 511 573 495 c 3xe8
 573 484 564 450 542 450 c 3
 512 450 498 446 481 440 c 0
 475 438 458 431 451 418 c 24
 441 401 440 381 440 369 c 3
 440 345 451 335 460 325 c 0
 470 314 507 292 531 286 c 0
 551 281 574 263 586 246 c 0
 596 231 598 211 598 185 c 3
 598 156 548 94 525 94 c 3
 500 94 489 119 478 142 c 0
 465 170 464 184 456 216 c 0
 449 242 445 258 431 285 c 1
 419 311 405 338 405 368 c 3
 405 386 414 407 422 423 c 0xf0
EndSplineSet
Validated: 1
EndChar

StartChar: uni3041
Encoding: 12353 12353 4
Width: 1000
Flags: W
HStem: 13 51<285.272 343.742> 345.062 30.9375<504.243 611.615> 396 44<313.162 439.136> 453 51<499.771 565.664>
VStem: 246 39<64.36 167.3> 406 68<540.03 567.657> 436 51<48.0791 92.8391> 440 70<207.412 317.75> 440 34<179.625 214.709 364.281 405 477.374 538.892> 693 61<103.188 271.728>
LayerCount: 2
Back
SplineSet
730 257 m 4x01300040
 730 237 750 203 750 191 c 4x01300020
 750 183 749 153 747 153 c 5
 747 153 737 121 735 107 c 5
 735 107 736 103 736 100 c 4
 736 95 735 91 730 91 c 5x01300040
 726 84 l 6
 726 82 727 80 727 78 c 4x013002
 727 72 719 68 714 58 c 4
 711 51 714 52 708 50 c 4
 699 47 703 33 690 28 c 4
 688 27 688 26 687 26 c 6
 687 26 686 25 685 25 c 4
 682 25 685 20 672 14 c 4
 670 13 639 -9 620 -13 c 4
 595 -19 606 -27 584 -28 c 4x11300020
 574 -28 570 -29 570 -31 c 4
 570 -32 563 -43 546 -43 c 6
 542 -43 l 6x40300020
 516 -43 482 -57 455 -57 c 4
 444 -57 437 -55 437 -45 c 4x80301020
 437 -42 443 -36 446 -36 c 4x803004
 451 -36 446 -32 458 -30 c 4
 486 -27 482 -22 493 -22 c 4x203004
 501 -22 512 -17 518 -17 c 4
 524 -17 529 -8 546 -6 c 4x403004
 548 -6 550 -6 550 -5 c 4
 550 -3 558 -3 561 0 c 4
 562 2 563 3 564 3 c 4
 568 3 563 6 579 14 c 4
 596 22 587 23 593 25 c 4
 595 25 595 26 595 27 c 4
 595 28 596 27 598 27 c 4
 609 27 622 39 622 43 c 4
 622 46 632 46 638 60 c 4
 641 66 646 65 646 68 c 4x103006
 646 69 646 70 647 70 c 4
 648 70 649 70 649 72 c 4
 649 79 666 96 670 100 c 4
 671 100 671 102 671 103 c 6
 671 103 679 118 679 128 c 4x10300040
 679 130 681 134 682 134 c 5
 682 141 690 144 690 167 c 4x10300020
 690 178 687 193 687 217 c 4
 687 224 685 222 685 225 c 4
 685 227 679 241 679 243 c 4x10300040
 679 246 676 244 675 258 c 4x10300080
 675 259 665 273 663 273 c 4
 662 273 659 280 658 280 c 4
 657 280 656 282 656 284 c 4
 656 297 645 299 639 305 c 4
 634 309 636 310 632 310 c 6
 628 310 l 6x113001
 618 310 614 320 610 320 c 5
 610 320 602 326 594 326 c 4x00b001
 578 327 589 337 534 337 c 4x007001
 512 337 506 334 506 332 c 4
 506 331 506 330 505 330 c 6
 505 330 504 328 504 326 c 4x00b005
 504 320 506 307 506 307 c 5
 506 292 509 301 509 279 c 6
 509 276 l 6
 509 270 506 271 506 267 c 4x023005
 506 266 506 265 505 265 c 6
 505 265 504 262 504 259 c 4
 503 245 478 192 478 168 c 4x023008
 478 158 481 158 482 153 c 5
 482 130 l 5x023020
 484 128 485 118 485 106 c 6
 485 96 l 6
 485 64 487 64 487 61 c 4
 487 60 487 59 485 57 c 5x023010
 482 47 l 5x023020
 478 40 479 39 473 39 c 4
 445 39 438 67 438 67 c 5
 438 69 437 71 437 71 c 5
 437 76 435 79 431 79 c 4
 424 79 398 55 398 50 c 4
 397 39 366 25 366 25 c 6
 365 25 364 24 364 24 c 5
 364 22 356 14 354 14 c 4
 340 14 350 9 327 9 c 4x0a3010
 296 9 292 23 284 23 c 4
 280 23 271 40 270 40 c 4x043210
 268 40 265 47 265 50 c 4
 265 54 261 59 261 60 c 5
 259 60 258 67 258 70 c 6
 258 72 l 5x0434
 256 97 250 107 250 117 c 4x0438
 250 121 251 125 255 131 c 4
 259 138 258 155 260 156 c 5
 270 172 l 5x0432
 270 175 274 176 274 179 c 4
 274 195 292 211 292 215 c 4x0431
 292 217 293 217 294 217 c 5
 294 219 l 6
 294 221 295 222 295 222 c 5
 317 243 l 6x043080
 317 244 324 254 324 256 c 4
 324 258 365 298 371 298 c 4
 373 298 386 309 390 311 c 4
 421 327 414 335 427 335 c 4
 437 335 434 337 439 339 c 5
 441 341 444 339 444 344 c 4
 444 347 444 371 442 387 c 4
 442 388 438 387 438 387 c 5
 434 389 430 390 426 390 c 4
 415 390 405 385 395 385 c 6
 383 385 l 6
 369 385 345 386 345 392 c 5
 345 392 344 393 343 393 c 4
 341 393 343 394 338 396 c 4
 336 396 322 404 322 406 c 4
 322 407 314 414 314 415 c 4
 314 421 297 420 297 433 c 4
 297 444 308 451 310 451 c 4
 315 451 318 443 320 443 c 6
 337 436 l 5
 337 430 393 427 393 427 c 6
 398 427 398 431 409 433 c 4
 437 438 445 451 445 455 c 4
 445 462 439 473 439 490 c 4
 439 498 440 505 440 511 c 4
 440 519 439 524 430 524 c 4
 424 524 416 527 408 533 c 4
 406 535 408 539 408 539 c 6
 408 547 408 551 423 551 c 5
 427 552 430 552 430 553 c 4
 430 555 438 554 438 555 c 6
 438 555 469 550 470 545 c 6
 474 527 l 5
 474 527 475 526 475 524 c 4
 475 522 479 516 479 514 c 4
 479 513 479 512 480 512 c 4
 482 512 498 495 510 485 c 4
 512 483 514 485 514 485 c 6
 516 485 518 485 518 486 c 4
 518 487 523 491 526 491 c 6
 528 491 l 5
 545 485 565 490 565 468 c 5
 565 468 562 452 558 449 c 4
 551 443 512 427 512 427 c 5
 512 424 494 414 486 413 c 4
 474 411 472 408 472 401 c 4
 472 393 475 384 475 371 c 4
 475 368 472 364 477 364 c 6
 483 364 l 6
 491 364 490 359 494 359 c 4
 498 359 510 364 561 364 c 4x067048
 595 364 583 364 599 362 c 4x00b048
 603 362 605 363 607 363 c 4
 608 363 609 362 609 361 c 4
 609 360 609 359 611 359 c 4
 614 359 613 357 621 356 c 4
 639 353 641 345 647 345 c 4
 650 345 665 339 665 333 c 4
 665 328 677 326 684 320 c 4
 686 319 686 315 686 315 c 6
 688 311 704 296 706 296 c 4
 709 296 721 278 722 278 c 6
 722 278 723 278 723 276 c 4x01304880
 723 271 730 274 730 257 c 4x01300040
362 104 m 5
 362 111 392 127 392 135 c 4
 392 136 393 136 394 136 c 4
 395 136 401 143 402 143 c 4
 403 143 404 143 404 144 c 4x0a3420
 404 147 408 150 410 155 c 4
 428 189 428 186 428 187 c 4
 428 189 434 201 434 204 c 4
 434 207 436 212 438 212 c 4
 439 212 439 219 439 226 c 4x0a3008
 439 236 446 261 446 286 c 4
 446 303 444 307 440 307 c 4
 434 307 424 299 415 299 c 4
 411 299 410 295 406 295 c 4
 404 295 403 295 403 294 c 6
 403 294 386 284 386 279 c 4
 386 277 381 277 381 275 c 4
 381 274 380 273 380 273 c 6
 379 273 378 272 378 271 c 4
 378 268 373 263 373 261 c 4x0a3044
 373 252 361 256 356 250 c 4
 350 244 354 238 346 232 c 4
 344 230 342 228 342 227 c 4x0a3080
 342 225 339 224 339 221 c 4
 339 218 329 208 329 202 c 4
 329 200 330 200 330 199 c 4x0a31
 330 195 324 196 322 184 c 4
 321 177 308 154 308 151 c 4x0a32
 308 149 302 144 302 134 c 4x0a38
 302 91 289 92 289 91 c 6
 289 91 291 90 291 87 c 4
 291 84 289 81 289 72 c 4
 289 70 288 69 288 67 c 4
 288 64 295 59 300 59 c 4x0a34
 309 59 316 66 322 68 c 4
 332 72 327 73 331 75 c 5
 345 87 l 6
 350 92 354 91 358 99 c 4
 359 101 361 104 362 104 c 5
EndSplineSet
Fore
SplineSet
346 291 m 4xfa40
 386 329 434 347 440 353 c 5
 440 405 l 5
 426 402 408 396 382 396 c 4
 355 396 343 401 335 405 c 4
 320 412 312 418 306 424 c 4
 299 430 293 432 293 446 c 4
 293 456 303 464 308 464 c 4
 310 464 327 454 339 448 c 4
 350 443 367 440 382 440 c 4
 407 440 417 447 440 461 c 5
 440 471 440 483 440 494 c 4xf8c0
 440 516 439 537 433 539 c 4
 422 541 406 544 406 553 c 4xfc40
 406 567 428 569 438 569 c 4
 454 569 470 564 472 558 c 4
 474 554 474 549 474 540 c 4
 474 537 474.444 532.444 474.444 527.926 c 4
 474.444 525.667 474 523 474 521 c 4
 473 511 472 504 472 496 c 4
 472 491 472 485 473 477 c 5
 495 493 518 504 534 504 c 4
 547 504 566 499 566 481 c 4
 566 463 560 460 546 453 c 4
 522 441 492 428 474 420 c 5
 474 416 474 407 474 400 c 4xf8c0
 474 394 473.75 388.25 473.75 382 c 4
 473.75 375.75 474 370 475 364 c 5
 501 370 543 376 558 376 c 4
 633 376 680 345 706 315 c 4
 731 286 754 225 754 184 c 4
 754 149 745 79 691 32 c 4
 656 1 625 -13 586 -24 c 4
 544 -36 512 -53 454 -53 c 4
 442 -53 436 -48 436 -45 c 4xfa40
 436 -20 510 -21 554 1 c 4
 636 42 693 104 693 182 c 4
 693 224 686 257 659 294 c 4
 641 320 593 345 547 345 c 4
 541 345 536.688 345.062 532.391 345.062 c 4
 519.5 345.062 511 344 503 340 c 5
 507 326 510 308 510 294 c 4xf940
 510 272 492 214 478 179 c 5
 480 124 487 94 487 72 c 4
 487 59 480 46 470 46 c 4
 445 46 442 63 436 94 c 5
 407 64 403 55 378 37 c 4
 356 21 338 13 314 13 c 4
 286 13 278 29 268 41 c 4
 254 57 246 94 246 116 c 4
 246 145 255 172 269 200 c 4
 282 224 299 247 346 291 c 4xfa40
333 221 m 4
 300 176 285 110 285 83 c 4
 285 70 287 64 296 64 c 4
 315 64 341 82 352 93 c 4
 369 110 391 131 406 152 c 4xfc40
 416 165 430 187 440 229 c 5xf940
 440 318 l 5
 386 292 361 259 333 221 c 4
EndSplineSet
Substitution2: "'vrt2' +fiZm+DBNW1dfYjBoVt6O4m4IMH9lh1tX lookup 2-1" uni3041.vert
Substitution2: "'vert' +fiZm+DBNW1dfYjAQXsNrYjAR lookup 1-1" uni3041.vert
EndChar

StartChar: uni3042
Encoding: 12354 12354 5
Width: 1000
Flags: W
HStem: 62 64<231.02 297.416> 477 39<505.094 639.608> 541 55<275.742 418.264> 612 64<512.908 581.484> 719 38<383.081 423.5>
VStem: 182 49<126.152 248.152> 383 85<721.531 753.788> 420 64<107.917 161.644> 425 87<320.03 442.8> 425 42<501.658 552 642.467 721.521> 741 76<184.558 371.975>
LayerCount: 2
Back
SplineSet
481.6 169.686 m 4x111010
 481.6 128.886 484.66 128.886 484.66 124.806 c 4
 484.66 123.786 483.64 122.766 481.6 119.706 c 6
 477.52 107.466 l 5
 472.42 98.2861 474.46 97.2656 466.3 97.2656 c 4
 430.6 97.2656 422.44 131.946 422.44 131.946 c 5
 422.44 133.986 420.4 137.046 420.4 137.046 c 5
 420.4 141.126 419.38 143.166 417.34 147.246 c 4
 416.32 148.266 413.26 147.246 413.26 147.246 c 6
 404.08 147.246 370.42 116.646 370.42 110.526 c 4
 369.4 96.2461 329.62 78.9062 329.62 78.9062 c 6
 328.6 78.9062 327.58 77.8857 327.58 77.8857 c 5
 327.58 74.8262 316.36 64.626 314.32 64.626 c 4
 295.96 64.626 310.24 58.5059 280.66 58.5059 c 4
 240.88 58.5059 235.78 75.8457 225.58 75.8457 c 4
 220.48 75.8457 209.26 98.2861 208.24 98.2861 c 4
 206.2 98.2861 201.1 106.446 201.1 110.526 c 4
 201.1 115.626 196 122.766 196 123.786 c 5
 192.94 123.786 192.94 131.946 192.94 136.026 c 6
 192.94 139.086 l 5x111408
 190.9 170.706 182.74 182.946 182.74 196.206 c 4x1118
 182.74 201.306 183.76 207.426 188.86 214.566 c 4
 193.96 223.746 192.94 245.166 194.98 246.186 c 5
 207.22 266.586 l 5x1112
 207.22 270.666 212.32 270.666 212.32 274.746 c 4
 212.32 295.146 235.78 315.546 235.78 320.646 c 4x1111
 235.78 322.686 236.8 323.706 237.82 323.706 c 6
 237.82 323.706 238.84 325.746 238.84 326.766 c 4x111080
 238.84 328.806 239.86 329.826 239.86 329.826 c 5
 267.4 357.366 l 6x111040
 267.4 358.386 276.58 371.646 276.58 373.686 c 4
 276.58 376.746 329.62 426.726 336.76 426.726 c 4
 338.8 426.726 355.12 441.006 360.22 444.066 c 4
 400 464.466 391.84 473.646 408.16 473.646 c 4
 421.42 473.646 417.34 476.706 423.46 479.766 c 4
 425.5 481.806 429.58 479.766 429.58 485.886 c 4x181022
 429.58 489.966 428.56 519.546 426.52 539.946 c 4
 426.52 540.966 422.44 540.966 422.44 540.966 c 6
 417.34 543.006 411.22 544.026 406.12 544.026 c 4
 391.84 544.026 380.62 537.906 367.36 537.906 c 6
 352.06 537.906 l 6
 333.7 537.906 303.1 538.926 303.1 547.086 c 5
 303.1 547.086 302.08 548.106 301.06 548.106 c 4
 298 548.106 301.06 550.146 294.94 552.186 c 4
 291.88 552.186 273.52 562.386 273.52 564.426 c 4
 273.52 565.446 264.34 575.646 264.34 576.666 c 4
 264.34 583.806 241.9 582.786 241.9 599.106 c 4
 241.9 613.386 255.16 621.546 258.22 621.546 c 4
 264.34 621.546 269.44 612.366 271.48 612.366 c 6
 292.9 603.186 l 5
 292.9 594.006 343.9 596.046 358.18 592.986 c 4
 361.24 591.966 363.28 591.966 364.3 591.966 c 4
 370.42 591.966 370.42 597.066 384.7 599.106 c 4
 420.4 605.226 430.6 621.546 430.6 626.646 c 4
 430.6 635.826 423.46 650.106 423.46 671.526 c 4
 423.46 681.726 424.48 690.906 424.48 699.066 c 4
 424.48 709.266 422.44 715.386 411.22 715.386 c 4
 403.06 715.386 393.88 719.466 383.68 726.606 c 4
 381.64 728.646 383.68 734.766 383.68 734.766 c 6
 383.68 744.966 383.68 750.066 403.06 750.066 c 4
 408.16 750.066 412.24 751.086 412.24 752.106 c 4
 412.24 754.146 422.44 754.146 422.44 755.166 c 6x185008
 422.44 755.166 462.22 748.026 463.24 741.906 c 6
 468.34 718.446 l 5
 468.34 718.446 469.36 717.426 469.36 715.386 c 4
 469.36 712.326 474.46 705.186 474.46 702.126 c 4
 474.46 701.106 474.46 700.086 475.48 700.086 c 4
 477.52 700.086 497.92 677.646 513.22 665.406 c 4
 515.26 663.366 519.34 665.406 519.34 665.406 c 6
 522.4 665.406 523.42 665.406 523.42 666.426 c 4
 523.42 667.446 529.54 673.566 533.62 673.566 c 6
 535.66 673.566 l 5
 557.08 665.406 583.6 672.546 583.6 643.986 c 5
 583.6 643.986 580.54 623.586 575.439 619.506 c 4
 566.26 611.346 516.28 591.966 516.28 591.966 c 5
 516.28 587.886 493.84 574.626 483.64 573.606 c 4
 468.34 571.566 465.28 567.486 465.28 558.306 c 4
 465.28 548.106 469.36 536.886 469.36 520.566 c 4
 469.36 516.486 465.28 511.386 471.4 511.386 c 6
 479.56 511.386 l 6
 489.76 511.386 488.74 504.246 493.84 504.246 c 4
 498.94 504.246 513.22 511.386 578.5 511.386 c 4x10b002
 622.36 511.386 607.061 510.366 627.46 508.326 c 4
 632.561 508.326 635.62 509.346 637.66 509.346 c 4x111002
 638.68 509.346 639.7 508.326 639.7 507.306 c 4
 639.7 506.286 640.72 505.266 642.76 505.266 c 4x121002
 646.84 505.266 644.8 502.206 655 501.186 c 4
 678.46 498.126 681.52 486.906 688.66 486.906 c 4x141002
 692.74 486.906 711.1 478.746 711.1 471.606 c 4
 711.1 465.486 726.4 462.426 735.58 455.286 c 4
 737.62 454.266 738.64 449.166 738.64 449.166 c 6
 741.7 444.066 760.06 424.686 763.12 424.686 c 4
 767.2 424.686 783.52 401.226 784.54 401.226 c 6
 784.54 401.226 785.56 401.226 785.56 399.186 c 4x12100280
 785.56 393.066 793.72 396.126 793.72 374.706 c 4x12100040
 793.72 351.246 801.88 348.186 806.98 330.846 c 4
 808 327.786 806.98 322.686 810.04 322.686 c 5
 814.12 309.426 819.22 300.246 819.22 290.046 c 4x12100020
 819.22 279.846 818.2 242.106 816.16 242.106 c 5
 816.16 242.106 803.92 200.286 800.86 182.946 c 5
 800.86 182.946 801.88 178.866 801.88 174.786 c 4
 801.88 168.666 800.86 162.546 794.74 162.546 c 5
 789.64 154.386 l 5
 789.64 151.326 790.66 148.266 790.66 146.226 c 4
 790.66 138.066 780.46 133.986 774.34 120.726 c 4
 770.26 111.546 774.34 113.586 766.18 110.526 c 4
 754.96 106.446 760.06 89.1064 743.74 82.9863 c 4
 741.7 81.9658 739.66 80.9463 739.66 79.9258 c 6
 739.66 79.9258 738.64 78.9062 737.62 78.9062 c 4
 733.54 78.9062 736.6 72.7861 720.28 64.626 c 4
 718.24 63.6064 678.46 35.0459 653.98 29.9463 c 4
 622.36 22.8057 636.64 12.6064 608.08 11.5859 c 4x321001
 594.82 11.5859 590.74 10.5664 590.74 7.50586 c 4
 590.74 6.48633 580.54 -7.79395 559.12 -7.79395 c 6
 555.04 -7.79395 l 6x501001
 521.38 -7.79395 478.54 -25.1338 443.86 -25.1338 c 4
 429.58 -25.1338 420.4 -23.0938 420.4 -10.8535 c 4
 420.4 -6.77441 427.54 1.38574 431.62 1.38574 c 4x901001
 437.74 1.38574 431.62 6.48633 446.92 8.52637 c 4
 482.62 12.6064 477.52 18.7256 491.8 18.7256 c 4
 502 18.7256 517.3 25.8662 524.439 25.8662 c 4x501001
 531.58 25.8662 538.72 36.0664 560.14 39.126 c 4
 563.2 39.126 564.22 40.1465 564.22 41.166 c 4
 564.22 44.2256 574.42 43.2061 578.5 47.2861 c 4
 579.52 49.3262 581.561 50.3457 582.58 50.3457 c 4
 587.68 50.3457 581.561 54.4258 601.96 64.626 c 4
 623.38 74.8262 612.16 76.8662 619.3 78.9062 c 4
 621.34 78.9062 622.36 79.9258 622.36 80.9463 c 4
 622.36 81.9658 623.38 81.9658 625.42 81.9658 c 4
 639.7 81.9658 657.04 97.2656 657.04 102.366 c 4
 657.04 106.446 669.28 106.446 677.439 123.786 c 4
 681.52 130.926 687.64 129.906 687.64 133.986 c 4x301001
 687.64 135.006 687.64 136.026 688.66 136.026 c 4
 689.68 136.026 690.7 137.046 690.7 139.086 c 4
 690.7 150.306 707.02 158.466 713.14 169.686 c 4
 715.18 172.746 717.22 174.786 717.22 174.786 c 6
 718.24 174.786 719.26 176.826 719.26 177.846 c 6
 719.26 177.846 729.46 198.246 729.46 210.486 c 4x30100040
 729.46 213.546 731.5 217.626 732.52 217.626 c 5
 732.52 226.806 742.72 230.886 742.72 260.466 c 4x30100020
 742.72 274.746 739.66 293.106 739.66 323.706 c 4
 739.66 332.886 736.6 329.826 736.6 333.906 c 4
 736.6 336.966 729.46 353.286 729.46 356.346 c 4x30100040
 729.46 360.426 725.38 357.366 724.36 375.726 c 4
 724.36 376.746 712.12 395.106 709.06 395.106 c 4
 708.04 395.106 702.939 404.286 701.92 404.286 c 4
 700.9 404.286 699.88 406.326 699.88 409.386 c 4
 699.88 425.706 686.62 427.746 678.46 435.906 c 4
 672.34 441.006 674.38 442.026 669.28 442.026 c 6
 664.18 442.026 l 6x34100080
 650.92 442.026 645.82 455.286 640.72 455.286 c 5x12100080
 640.72 455.286 631.54 462.426 621.34 462.426 c 4x11100080
 600.939 463.446 614.2 476.706 543.82 476.706 c 4x10900080
 515.26 476.706 509.14 471.606 509.14 469.566 c 4
 509.14 468.546 508.12 467.526 507.1 467.526 c 6
 507.1 467.526 506.08 465.486 506.08 462.426 c 4
 506.08 454.266 509.14 438.966 509.14 438.966 c 5
 509.14 419.586 512.2 430.806 512.2 403.266 c 6
 512.2 399.186 l 6
 512.2 391.026 509.14 393.066 509.14 387.966 c 4x11100480
 509.14 386.946 508.12 384.906 507.1 384.906 c 6
 507.1 384.906 506.08 381.846 506.08 377.766 c 4
 505.06 357.366 500.98 362.466 497.92 352.266 c 4
 487.72 319.626 472.42 282.906 472.42 261.486 c 4
 472.42 249.246 476.5 248.226 477.52 242.106 c 6
 478.54 212.526 l 5
 480.58 209.466 481.6 197.226 481.6 181.926 c 4
 481.6 177.846 481.6 173.766 481.6 169.686 c 4x111010
324.52 179.886 m 5
 324.52 189.066 363.28 208.446 363.28 218.646 c 4
 363.28 219.666 364.3 220.686 365.32 220.686 c 4
 366.34 220.686 375.52 228.846 376.54 228.846 c 4
 377.56 228.846 377.56 229.866 377.56 230.886 c 4x181410
 377.56 234.966 382.66 238.026 385.72 244.146 c 4
 408.16 286.986 409.18 284.946 409.18 285.966 c 4
 409.18 288.006 417.34 303.306 417.34 307.386 c 4
 417.34 311.466 420.4 317.586 422.44 317.586 c 4x181008
 423.46 317.586 423.46 325.746 423.46 334.926 c 4
 423.46 348.186 431.62 379.806 431.62 411.426 c 4
 431.62 432.846 429.58 437.946 424.48 437.946 c 4
 416.32 437.946 404.08 427.746 392.86 427.746 c 4
 387.76 427.746 386.74 423.666 381.64 423.666 c 4
 379.6 423.666 377.56 422.646 377.56 421.626 c 6
 377.56 421.626 356.14 409.386 356.14 403.266 c 4
 356.14 401.226 349 400.206 349 397.146 c 4
 349 396.126 347.98 395.106 347.98 395.106 c 6
 346.96 395.106 345.94 393.066 345.94 392.046 c 4
 345.94 387.966 338.8 382.866 338.8 379.806 c 4x181030
 338.8 368.586 323.5 372.666 317.38 365.526 c 4
 310.24 357.366 315.34 351.246 305.14 343.086 c 5
 303.1 340.026 300.04 337.986 300.04 336.966 c 4x181040
 300.04 333.906 295.96 332.886 295.96 328.806 c 4x181080
 295.96 324.726 282.7 311.466 282.7 304.326 c 4
 282.7 302.286 283.72 301.266 283.72 300.246 c 4x1811
 283.72 295.146 275.56 297.186 273.52 281.886 c 4
 272.5 272.706 256.18 243.126 256.18 239.046 c 4x1812
 256.18 237.006 248.02 230.886 248.02 217.626 c 4x1818
 248.02 162.546 231.7 164.586 231.7 163.566 c 6
 231.7 163.566 234.76 161.526 234.76 157.446 c 4
 234.76 153.366 231.7 150.306 231.7 139.086 c 4
 231.7 136.026 230.68 133.986 230.68 131.946 c 4
 230.68 127.866 239.86 121.746 245.98 121.746 c 4
 257.2 121.746 267.4 130.926 274.54 133.986 c 4
 286.78 139.086 280.66 140.106 285.76 143.166 c 6
 303.1 157.446 l 6
 309.22 163.566 314.32 162.546 319.42 172.746 c 4
 320.44 175.806 323.5 179.886 324.52 179.886 c 5
EndSplineSet
Fore
SplineSet
308 409 m 4xfd20
 358 456 417 479 425 487 c 5
 425 552 l 5
 407 548 385 541 352 541 c 4
 318 541 304 547 294 552 c 4
 275 561 266 569 258 576 c 4
 249 584 241 586 241 603 c 4
 241 616 254 626 260 626 c 4
 263 626 284 612 299 605 c 4
 313 599 333 596 352 596 c 4
 383 596 396 604 425 622 c 5
 425 634 425 649 425 663 c 4xfc60
 425 691 424 717 416 719 c 4
 402 722 383 726 383 737 c 4
 383 754 411 757 423 757 c 4
 443 757 462 750 465 743 c 4
 467 738 468 731 468 720 c 4xfe20
 468 714 468 706 467 697 c 4
 466 685 465 676 465 666 c 4
 465 660 465 652 466 642 c 5
 493 662 522 676 542 676 c 4
 558 676 583 669 583 647 c 4
 583 625 575 621 558 612 c 4
 528 597 490 580 467 570 c 5
 467 565 467 555 467 546 c 4xfc60
 467 532 467 515 469 501 c 5
 502 509 553 516 572 516 c 4
 666 516 726 477 758 439 c 4
 789 403 817 326 817 275 c 4
 817 231 806 144 739 85 c 4
 695 46 657 29 608 15 c 4
 556 0 515 -21 442 -21 c 4
 427 -21 420 -15 420 -11 c 4xfd20
 420 20 513 19 568 47 c 4
 670 98 741 175 741 273 c 4
 741 326 733 367 699 413 c 4
 676 445 616 477 559 477 c 4
 531 477 518 477 504 470 c 5
 509 453 512 431 512 413 c 4xfca0
 512 386 490 313 472 269 c 5
 475 200 484 163 484 136 c 4
 484 120 475 103 462 103 c 4
 431 103 427 124 420 163 c 5
 384 126 379 115 348 92 c 4
 321 72 297 62 267 62 c 4
 232 62 223 82 210 97 c 4
 193 117 182 162 182 190 c 4
 182 226 193 260 211 295 c 4
 227 325 249 354 308 409 c 4xfd20
291 322 m 4
 250 266 231 183 231 149 c 4
 231 133 234 126 245 126 c 4
 269 126 301 148 315 162 c 4
 336 183 364 209 383 235 c 4xfe20
 395 251 412 279 425 332 c 5xfca0
 425 443 l 5
 358 411 326 370 291 322 c 4
EndSplineSet
EndChar

StartChar: uni3043
Encoding: 12355 12355 6
Width: 1000
Flags: W
HStem: 18 113<354.084 425> 359 35<593.548 664.246>
VStem: 244 60<173.371 420.06> 255 68<275.478 467.077> 690 82<217.318 335.786>
LayerCount: 2
Back
SplineSet
605 385 m 22xe1
 606 385 609 388 614 388 c 4
 627 388 633 385 645 385 c 4
 659 385 661 388 673 388 c 4
 695 388 695 371 710 371 c 4
 717 371 740 337 746 334 c 4
 752 330 754 323 754 323 c 5
 756 323 756 323 756 320 c 4
 756 318 760 315 762 308 c 6
 766 290 l 5
 766 290 770 281 770 278 c 4
 770 272 773 275 773 269 c 4
 773 261 761 235 759 235 c 5
 759 235 758 233 758 231 c 6
 758 227 l 5
 752 227 760 207 730 207 c 4
 709 207 702 219 702 221 c 6
 702 224 l 6
 702 226 701 228 698 234 c 4
 684 255 693 264 686 308 c 4
 684 321 682 309 675 326 c 4
 666 350 650 342 650 347 c 4
 650 351 630 346 620 356 c 4
 616 360 605 363 605 363 c 5
 601 363 592 365 592 374 c 4
 592 377 593 379 595 379 c 4
 597 379 598 380 598 380 c 5
 598 382 605 385 605 385 c 22xe1
402 140 m 13
 402 141 403 141 403 142 c 4
 403 143 403 144 404 144 c 4
 405 144 410 165 418 175 c 4
 420 177 422 178 422 180 c 4
 422 185 431 198 440 198 c 4
 447 198 450 187 450 181 c 4xe3
 450 174 447 171 447 171 c 6
 447 169 446 169 446 169 c 6
 445 169 445 169 445 167 c 4
 445 166 434 156 434 142 c 4
 434 129 431 134 431 129 c 4
 431 125 432 121 432 119 c 4
 432 116 430 117 430 111 c 4
 430 104 432 95 433 93 c 5
 433 82 436 87 436 82 c 4
 436 79 439 79 439 68 c 4
 439 55 446 48 446 40 c 4
 446 30 434 16 417 16 c 4
 405 16 393 23 380 25 c 4
 362 28 355 40 353 40 c 4
 351 40 343 45 339 45 c 4
 335 45 330 50 330 52 c 4
 330 58 313 71 313 74 c 4
 313 79 311 75 311 79 c 4
 311 81 311 81 310 81 c 4
 308 81 302 85 302 87 c 4
 302 89 303 90 302 90 c 4
 301 90 297 97 287 107 c 4
 257 137 261 174 251 183 c 4
 249 185 250 192 250 199 c 6
 250 213 l 6
 250 224 248 234 242 239 c 5
 242 263 l 6xf5
 242 293 246 286 246 303 c 4
 246 307 255 373 255 381 c 4
 256 399 258 410 259 410 c 4
 260 410 261 410 261 411 c 4
 261 412 264 423 264 431 c 4
 264 436 263 440 258 441 c 4
 251 442 240 455 238 455 c 4
 236 455 227 459 227 465 c 4
 227 467 232 469 232 471 c 4
 232 479 241 481 278 481 c 4
 283 481 280 478 289 475 c 4
 302 472 304 457 306 457 c 4
 308 457 308 451 310 451 c 4
 311 451 322 423 322 391 c 4xe9
 322 374 319 376 319 371 c 5
 319 371 311 344 311 336 c 4
 311 334 313 335 313 330 c 4
 313 321 308 310 306 310 c 4
 302 310 300 284 300 261 c 4xf1
 300 241 302 222 304 222 c 4
 309 222 306 194 314 188 c 4
 317 186 322 181 322 178 c 4
 322 177 321 176 322 176 c 4
 323 176 324 175 324 173 c 4
 324 170 327 159 329 159 c 4
 330 159 330 157 330 155 c 4
 330 149 331 153 334 147 c 4
 340 135 350 137 350 135 c 5
 350 135 355 132 361 132 c 4
 366 132 366 134 373 134 c 4
 376 134 378 133 378 132 c 6
 378 132 380 131 383 131 c 4
 386 131 388 132 388 133 c 4xed
 388 134 394 134 394 136 c 4
 394 138 400 140 402 140 c 13
EndSplineSet
Fore
SplineSet
747 341 m 0xc8
 757 327 772 295 772 265 c 0
 772 229 748 210 731 210 c 0
 709 210 698 226 692 249 c 0
 690 255 690 260 690 266 c 0
 690 272 690 278 690 284 c 0
 690 297 689 312 676 330 c 0
 663 350 640 353 617 359 c 0
 602 363 593 365 593 374 c 0
 593 387 624 394 644 394 c 0
 682 394 695 387 705 381 c 0
 727 367 721 376 747 341 c 0xc8
389 131 m 0
 408 131 416 200 441 200 c 0
 445 200 452 193 452 183 c 0
 452 177 445 171 439 158 c 0
 435 149 432 138 432 122 c 0
 432 112 436 92 438 83 c 0
 442 68 447 53 447 43 c 0
 447 32 432 18 418 18 c 0
 344 18 244 115 244 265 c 0xe8
 244 318 255 372 255 436 c 0
 255 448 239 455 239 466 c 1
 239 477 246 485 265 485 c 0
 275 485 290 480 300 470 c 0
 314 456 323 435 323 409 c 0xd8
 323 369 304 313 304 282 c 0xe8
 304 233 311 198 331 162 c 0
 342 142 353 131 389 131 c 0
EndSplineSet
Validated: 1
Substitution2: "'vrt2' +fiZm+DBNW1dfYjBoVt6O4m4IMH9lh1tX lookup 2-1" uni3043.vert
Substitution2: "'vert' +fiZm+DBNW1dfYjAQXsNrYjAR lookup 1-1" uni3043.vert
EndChar

StartChar: uni3044
Encoding: 12356 12356 7
Width: 1000
Flags: W
HStem: 70 141<323.013 405> 496 44<615.96 703.532>
VStem: 178 75<277.277 527.66> 192 85<424.822 627.118> 736 103<323.504 456.328>
LayerCount: 2
Back
SplineSet
631 531 m 22xe0
 632 531 636 535 642 535 c 4
 658 535 666 531 681 531 c 4
 699 531 701 535 716 535 c 4
 743 535 743 514 762 514 c 4
 771 514 800 471 808 467 c 4
 816 462 818 454 818 454 c 5
 821 454 820 454 820 450 c 4
 820 447 826 444 828 435 c 6
 832 412 l 5
 832 412 838 401 838 397 c 4
 838 389 841 393 841 386 c 4
 841 376 827 343 824 343 c 5
 824 343 823 341 823 338 c 4
 823 335 822 333 822 333 c 5
 815 333 825 309 787 309 c 4
 761 309 752 323 752 326 c 4
 752 328 753 328 753 330 c 4
 753 332 752 335 748 342 c 4
 731 368 741 380 732 435 c 4
 730 451 727 436 719 457 c 4
 708 487 688 478 688 484 c 4
 688 489 662 483 650 495 c 4
 645 500 631 504 631 504 c 5
 626 504 615 506 615 517 c 4
 615 521 616 524 619 524 c 4
 621 524 622 525 622 525 c 5
 622 528 631 531 631 531 c 22xe0
378 225 m 13
 378 226 379 226 379 227 c 4
 379 228 379 230 380 230 c 4
 381 230 388 257 398 269 c 4
 400 271 402 273 402 275 c 4
 402 281 414 297 425 297 c 4
 434 297 438 283 438 276 c 4
 438 267 434 264 434 264 c 6
 434 262 433 261 433 261 c 6
 432 261 431 260 431 258 c 4xe040
 431 257 417 244 417 227 c 4
 417 211 414 217 414 211 c 4
 414 206 415 201 415 198 c 4
 415 194 413 197 413 189 c 4
 413 180 415 168 416 166 c 5
 416 152 420 158 420 152 c 4
 420 148 424 149 424 135 c 4
 424 119 432 110 432 100 c 4
 432 88 417 70 396 70 c 4
 381 70 366 79 350 81 c 4
 328 85 318 100 316 100 c 4
 313 100 304 106 299 106 c 4
 294 106 287 112 287 115 c 4
 287 123 266 138 266 142 c 4xe880
 266 148 264 143 264 148 c 4
 264 150 263 150 262 150 c 4
 260 150 253 157 253 159 c 4
 253 161 253 162 252 162 c 4
 251 162 246 171 234 183 c 4
 196 221 202 267 189 278 c 4
 186 281 187 289 187 298 c 6
 187 316 l 6
 187 330 186 343 178 349 c 5
 178 378 l 6xf0
 178 416 183 408 183 429 c 4xe8
 183 434 194 516 194 526 c 4xe4
 195 548 198 562 199 562 c 4
 200 562 201 563 201 564 c 4
 201 565 205 578 205 588 c 4xe2
 205 594 204 600 198 601 c 4
 189 602 174 618 172 618 c 4
 169 618 159 625 159 632 c 4
 159 635 165 636 165 638 c 4
 165 648 176 651 222 651 c 4
 228 651 225 647 236 644 c 4
 252 639 256 621 258 621 c 4
 260 621 260 614 262 614 c 4
 263 614 277 579 277 539 c 4xe4
 277 518 274 519 274 513 c 5
 274 513 264 480 264 470 c 4
 264 467 266 468 266 462 c 4xe8
 266 451 259 437 257 437 c 4
 252 437 250 405 250 376 c 4xf0
 250 351 252 327 255 327 c 4
 261 327 258 292 268 285 c 4
 272 283 277 276 277 272 c 4
 277 271 277 270 278 270 c 4
 279 270 280 268 280 266 c 4
 280 262 284 248 286 248 c 4
 287 248 287 246 287 243 c 4
 287 235 289 241 293 233 c 4
 301 218 312 222 312 219 c 5
 312 219 319 215 326 215 c 4
 332 215 332 217 341 217 c 4
 345 217 347 216 347 215 c 6
 347 215 350 214 354 214 c 4
 358 214 360 215 360 216 c 4xe3
 360 217 368 218 368 220 c 4xe080
 368 222 375 225 378 225 c 13
EndSplineSet
Fore
SplineSet
807 473 m 4xc8
 820 456 839 416 839 378 c 4
 839 333 808 309 787 309 c 4
 759 309 745 329 738 358 c 4
 736 366 736 373 736 380 c 4
 736 388 736 394 736 402 c 4
 736 418 734 436 718 459 c 4
 702 484 674 488 645 496 c 4
 626 501 615 503 615 514 c 4
 615 530 653 540 678 540 c 4
 726 540 742 531 755 523 c 4
 782 506 774 517 807 473 c 4xc8
360 211 m 4
 384 211 394 297 425 297 c 4
 430 297 438 289 438 276 c 4
 438 268 429 260 422 244 c 4
 417 233 414 220 414 200 c 4
 414 188 418 162 421 151 c 4
 426 132 432 113 432 101 c 4
 432 87 414 70 396 70 c 4
 303 70 178 191 178 378 c 4xe8
 178 444 192 512 192 592 c 4
 192 607 172 615 172 629 c 5
 172 643 181 653 205 653 c 4
 218 653 236 647 249 634 c 4
 266 617 277 590 277 558 c 4xd8
 277 508 253 439 253 400 c 4xe8
 253 339 262 294 287 249 c 4
 301 224 315 211 360 211 c 4
EndSplineSet
Validated: 1
EndChar

StartChar: uni3045
Encoding: 12357 12357 8
Width: 1000
Flags: W
HStem: 301 58<371.727 466.859> 307 57<467 482.767 566 579.766> 330 44<523.066 565.998> 338 46<479.817 565.425> 338 37<488.008 521.396> 482 64<522 559.944> 513 42<419.102 451>
VStem: 500 62<29.0051 60.8818> 526 59<46.4907 82.9928> 539 52<83.0007 97.9906> 550 68<98.0923 166.998> 566 52<307.002 324.993> 582 53<180.034 306.991>
LayerCount: 2
Fore
SplineSet
522 384 m 0x1110
 545 384 552 374 560 374 c 0x2110
 573 374 575 364 578 364 c 0
 579 364 596 350 596 350 c 1
 596 345 618 335 618 322 c 0x4110
 618 311 635 311 635 275 c 2
 635 271 l 2x4008
 635 265 638 241 638 208 c 0
 638 189 637 192 637 188 c 0
 637 179 630 178 630 167 c 1
 630 167 627 164 627 161 c 0
 627 159 627 155 626 155 c 0
 624 155 625 149 625 148 c 0
 625 142 618 128 618 126 c 2x4020
 617 121 l 1
 617 115 613 114 613 112 c 0
 613 107 609 110 608 98 c 0
 606 81 591 75 591 71 c 0x4040
 591 69 585 65 585 63 c 0x4080
 585 62 585 61 584 61 c 0
 582 61 584 57 575 48 c 0
 567 40 562 31 562 31 c 1
 562 29 557 25 554 25 c 0
 552 25 551 25 551 24 c 0
 551 23 543 20 534 11 c 0
 515 -7 526 13 496 -15 c 0
 486 -25 488 -16 474 -26 c 0
 461 -34 449 -35 442 -42 c 0
 434 -50 399 -57 383 -57 c 0
 381 -57 380 -55 380 -50 c 0
 380 -25 412 -32 438 -9 c 0
 459 9 474 13 474 15 c 0
 474 16 476 14 478 17 c 0
 480 21 486 29 488 29 c 0
 492 29 500 36 500 39 c 0x41
 500 45 508 48 508 52 c 0
 508 61 526 68 526 72 c 0x4080
 526 73 536 83 538 83 c 0
 539 83 539 84 539 85 c 2x4040
 539 85 548 98 549 98 c 0
 551 100 550 100 550 101 c 0x4020
 550 113 558 120 560 134 c 1
 560 134 571 180 574 180 c 0
 577 180 582 227 582 227 c 1
 582 235 580 247 580 252 c 0
 580 262 582 263 582 265 c 2
 582 267 l 1
 579 273 583 284 577 291 c 0
 574 294 569 307 567 307 c 0x4008
 566 307 566 310 566 313 c 0
 566 316 563 325 562 325 c 0
 560 325 556 330 554 330 c 0x2110
 550 330 556 338 512 338 c 0x1110
 499 338 488 337 488 333 c 0
 488 331 483 330 483 328 c 0
 483 326 468 313 467 313 c 2
 458 308 l 1
 458 308 448 303 441 303 c 0
 437 303 436 304 432 304 c 0
 427 304 427 301 421 301 c 0
 417 301 405 305 401 305 c 0
 388 305 368 321 368 333 c 0
 368 335 366 335 366 339 c 1
 366 339 362 344 362 350 c 0
 362 356 366 359 368 359 c 0
 371 359 382 361 391 361 c 0
 403 361 397 359 414 359 c 0x8110
 419 359 423 360 431 360 c 0
 449 360 445 364 448 364 c 0x4110
 450 364 456 368 460 368 c 0
 461 368 479 374 493 375 c 0x0910
 504 375 509 384 522 384 c 0x1110
512 555 m 2x02
 522 555 l 2x02
 544 555 543 546 553 546 c 0
 556 546 569 538 569 538 c 1
 569 535 574 530 574 524 c 0
 574 521 573 520 572 518 c 0
 566 492 567 507 560 493 c 0
 559 491 545 482 535 482 c 2
 522 482 l 2x04
 505 482 512 477 502 477 c 0
 493 477 483 468 481 468 c 0
 479 468 476 460 469 460 c 1
 469 460 453 462 453 472 c 0
 453 483 470 496 470 502 c 0
 470 505 460 507 460 509 c 0
 460 511 451 511 451 513 c 1
 449 513 l 2
 446 513 441 514 435 520 c 0
 425 530 418 530 418 539 c 0
 418 549 426 555 512 555 c 2x02
EndSplineSet
Validated: 1
Substitution2: "'vrt2' +fiZm+DBNW1dfYjBoVt6O4m4IMH9lh1tX lookup 2-1" uni3045.vert
Substitution2: "'vert' +fiZm+DBNW1dfYjAQXsNrYjAR lookup 1-1" uni3045.vert
EndChar

StartChar: uni3046
Encoding: 12358 12358 9
Width: 1000
Flags: W
HStem: 434 71<338.233 400.758 401.369 425.769 583 596.713> 462 55<554.641 582.721> 472 58<477.696 566.894> 472 46<485.01 526.257> 652 80<528.245 580.345> 691 52<403.339 438>
VStem: 500 78<86.0058 116.533> 533 73<119.516 153.991> 562 79<172.093 200.676> 583 65<434.002 455.992> 603 66<275.043 308.895 311.914 433.988>
LayerCount: 2
Fore
SplineSet
620 487 m 1x8040
 620 481 648 468 648 452 c 0x8040
 648 440 665 436 666 413 c 0
 667 398 669 412 669 393 c 2
 669 389 l 2x8020
 669 381 673 351 673 310 c 0
 673 286 671 290 671 285 c 0
 671 274 662 273 662 259 c 1
 662 259 659 255 659 251 c 0
 659 248 658 244 657 244 c 0
 655 244 656 236 656 235 c 0
 656 227 648 210 648 207 c 2x8040
 646 201 l 1
 646 194 641 192 641 190 c 0x8080
 641 184 636 187 635 172 c 0
 633 151 614 144 614 139 c 0
 614 136 606 130 606 128 c 0x81
 606 127 606 126 605 126 c 0
 603 126 605 121 594 110 c 0
 584 100 578 89 578 89 c 1
 578 86 572 81 568 81 c 0
 566 81 564 81 564 80 c 0
 564 79 553 74 542 63 c 0
 518 41 533 66 495 31 c 0
 482 18 485 29 468 17 c 0
 452 7 436 6 427 -3 c 0
 417 -13 374 -22 354 -22 c 0
 351 -22 350 -19 350 -13 c 0
 350 18 391 9 423 38 c 0
 449 61 468 65 468 68 c 0
 468 69 470 67 472 71 c 0
 475 76 482 86 485 86 c 0
 490 86 500 94 500 98 c 0x82
 500 106 510 110 510 115 c 0
 510 126 533 135 533 140 c 0x81
 533 141 544 154 547 154 c 0
 548 154 549 155 549 156 c 2
 549 156 560 172 561 172 c 0
 563 174 562 175 562 176 c 0x8080
 562 191 572 199 575 217 c 1
 575 217 588 275 592 275 c 0
 596 275 602 334 602 334 c 1
 602 344 600 359 600 365 c 0
 600 377 603 379 603 381 c 2
 603 383 l 1
 599 391 604 404 596 413 c 0
 592 417 586 434 584 434 c 0x8020
 583 434 583 437 583 441 c 0
 583 445 578 456 577 456 c 0
 575 456 570 462 567 462 c 0x4040
 561 462 568 467 554 470 c 1
 554 470 534 472 515 472 c 0x2040
 499 472 485 471 485 466 c 0
 485 464 479 462 479 460 c 0
 479 458 460 441 459 441 c 2
 447 435 l 1
 447 435 435 428 426 428 c 0
 421 428 420 430 415 430 c 0
 409 430 409 426 401 426 c 0
 396 426 381 431 376 431 c 0
 360 431 335 451 335 466 c 0
 335 469 332 468 332 473 c 1
 332 473 327 479 327 487 c 0
 327 494 332 499 335 499 c 0
 339 499 353 501 364 501 c 0
 379 501 371 499 392 499 c 0
 398 499 404 500 414 500 c 0
 436 500 431 505 435 505 c 0x8040
 437 505 445 510 450 510 c 0
 451 510 473 517 491 518 c 0x1040
 505 518 511 530 527 530 c 0x2040
 537 530 534 528 550 526 c 0
 570 524 560 517 575 517 c 0x4040
 591 517 594 505 598 505 c 0
 599 505 620 487 620 487 c 1x8040
438 691 m 1x04
 436 691 l 2
 432 691 427 692 419 700 c 0
 406 713 397 713 397 724 c 0
 397 736 407 743 515 743 c 2
 517 743 l 1x04
 517 743 521 744 527 744 c 0
 554 744 553 732 566 732 c 0
 570 732 586 722 586 722 c 1
 586 718 593 712 593 705 c 0
 593 701 591 699 590 697 c 0
 582 665 584 683 575 666 c 0
 574 663 557 652 544 652 c 2
 528 652 l 2x08
 507 652 515 646 502 646 c 0
 491 646 478 635 476 635 c 0
 473 635 470 625 461 625 c 1
 461 625 441 627 441 640 c 0
 441 654 463 669 463 677 c 0
 463 681 450 684 450 686 c 0
 450 688 438 689 438 691 c 1x04
EndSplineSet
Validated: 1
EndChar

StartChar: uni3047
Encoding: 12359 12359 10
Width: 1000
Flags: W
HStem: 2 63<567.472 625.349> 9 56<563.043 597.712 598.328 662.815> 107 43<594.279 644.995> 221 79<390.891 422.291> 248 68<427.001 453.756> 321 41<616.103 643 643.003 686> 333 26<542.242 592.953> 347 30<247 263> 417 113<333 378.721>
VStem: 250 42<106.002 129> 253 103<11.5469 102.866> 260 49<219.001 251.854> 270 55<263.642 334.619> 270 48<225.002 254.999 255.007 295.215> 323 29<113.469 178.768> 336 68<467.001 505.549> 532 31<65.1981 87.7766> 545 22<79 93> 577 68<105.578 129.941> 690 63<201.017 306.373>
LayerCount: 2
Fore
SplineSet
427 247 m 0x2a8070
 427 243 383 220 383 220 c 1
 381 220 382 221 381 221 c 0
 379 221 378 219 374 215 c 0
 365 206 364 213 363 206 c 0
 363 204 363 202 362 202 c 0
 360 202 363 195 355 171 c 0
 352 161 352 171 352 144 c 0x308270
 352 53 357 30 357 28 c 0
 357 26 356 25 356 23 c 0
 356 18 361 14 361 8 c 0
 361 5 364 -3 364 -10 c 0
 364 -29 344 -34 333 -34 c 0
 320 -34 313 -30 307 -30 c 2
 305 -30 l 2
 303 -30 291 -19 291 -16 c 1
 267 25 l 2
 262 34 253 35 253 46 c 2
 253 48 l 2x30a030
 253 55 250 88 250 105 c 0x30c030
 250 129 248 129 248 129 c 1
 250 138 251 219 259 219 c 1
 259 219 260 221 260 225 c 0x309030
 260 239 266 249 266 252 c 0
 266 253 267 255 267 255 c 2
 268 255 270 265 270 278 c 0
 270 290 263 323 255 331 c 0
 244 340 249 347 247 347 c 1
 247 352 l 2
 247 362 259 377 263 377 c 0
 267 377 271 380 275 380 c 0
 283 380 284 349 294 346 c 0
 298 344 296 341 298 341 c 0
 299 341 300 340 300 339 c 0
 300 337 314 324 314 322 c 0
 314 312 325 319 325 296 c 0x318830
 325 279 322 278 322 272 c 0
 322 263 318 268 318 262 c 0x318430
 318 253 316 260 314 243 c 0
 313 232 310 235 310 230 c 0
 310 228 309 225 309 225 c 2x319030
 309 220 305 212 303 212 c 0
 302 212 302 212 302 210 c 0
 302 208 298 208 298 204 c 0
 298 200 295 190 295 184 c 0
 295 182 296 182 296 178 c 0
 296 176 294 179 294 165 c 0
 294 148 289 153 289 139 c 0
 289 129 292 127 292 117 c 1
 294 109 297 106 301 106 c 0
 303 106 306 108 306 108 c 1
 306 108 323 142 323 152 c 2
 323 156 l 2x31c230
 323 173 330 174 330 179 c 0
 330 181 334 181 334 189 c 0
 334 192 333 195 334 195 c 0
 335 195 336 198 336 202 c 1
 339 212 l 2
 342 222 341 231 347 239 c 0
 352 244 362 241 364 251 c 0
 365 254 372 262 378 267 c 2
 393 280 l 1
 393 280 414 300 416 300 c 0x318130
 417 300 418 302 418 303 c 0
 418 304 419 307 420 307 c 0
 421 307 431 316 434 316 c 0
 439 316 448 326 449 326 c 0
 450 326 455 334 458 334 c 0
 464 334 501 359 518 359 c 0x2a8130
 525 359 537 368 566 370 c 2
 635 375 l 1
 635 375 681 370 683 364 c 0
 684 363 685 362 686 362 c 2
 720 337 l 1
 720 333 734 321 741 307 c 0
 747 294 752 257 752 257 c 2
 753 257 753 257 753 255 c 0
 753 245 737 188 737 188 c 2
 737 186 732 174 730 174 c 0
 729 174 728 173 728 172 c 0
 728 166 703 154 703 151 c 0
 703 147 678 135 678 135 c 1
 678 133 672 136 655 123 c 0
 651 120 645 114 645 113 c 0
 645 110 638 107 632 107 c 0
 620 107 603 96 585 89 c 0
 580 87 578 90 573 84 c 0
 569 80 567 80 567 79 c 0x248170
 567 76 563 78 563 75 c 0
 563 71 570 65 577 65 c 0
 610 65 588 67 615 67 c 2
 621 67 l 2
 658 67 659 72 663 72 c 0
 666 72 673 69 673 68 c 0
 673 66 703 66 709 52 c 0
 710 50 710 47 711 47 c 0
 712 47 712 47 712 45 c 0
 712 42 710 35 710 35 c 2
 710 33 708 28 706 25 c 0
 706 24 703 25 703 25 c 2
 697 25 700 21 689 19 c 0
 663 15 636 5 626 5 c 0
 612 5 605 2 598 2 c 0xa480b0
 592 2 577 9 567 9 c 0x608070
 565 9 551 12 551 13 c 0
 551 14 551 14 549 14 c 0
 543 14 517 34 517 51 c 2
 517 63 l 2
 517 71 532 77 532 82 c 0x6080b0
 532 83 534 83 534 83 c 1
 534 89 545 92 545 93 c 0
 545 94 545 95 546 95 c 0
 548 95 555 100 557 100 c 0
 558 100 577 114 577 115 c 0
 591 136 609 126 628 144 c 0
 630 146 635 150 636 150 c 0
 644 150 653 171 653 171 c 2
 655 175 678 197 678 201 c 1
 678 201 687 225 687 226 c 0
 687 229 690 234 690 244 c 0
 690 249 689 255 687 263 c 2
 678 302 l 2
 678 303 677 305 677 307 c 0
 677 309 657 321 650 321 c 0x648070
 647 321 643 324 643 323 c 1
 633 323 639 333 615 333 c 0
 591 333 553 325 553 325 c 1
 553 325 519 310 519 309 c 0
 519 307 462 282 462 282 c 1
 462 282 454 273 454 271 c 0
 454 265 446 265 436 255 c 0
 433 252 430 248 429 248 c 0
 428 248 427 248 427 247 c 0x2a8070
293 427 m 1
 293 431 311 443 313 443 c 1
 325 459 l 1
 325 461 331 467 333 467 c 1
 333 467 334 468 334 470 c 0
 334 474 336 473 336 479 c 0
 336 505 317 506 317 518 c 0
 317 528 326 530 334 530 c 0
 370 530 373 508 379 508 c 0
 384 508 404 471 404 465 c 1x208930
 403 465 402 462 402 460 c 0
 402 450 394 440 394 435 c 2
 394 433 l 2
 394 430 385 424 383 424 c 0
 382 424 381 424 381 423 c 2
 381 423 373 417 359 417 c 2
 353 417 l 2
 347 417 340 417 334 415 c 0
 333 415 308 402 294 402 c 0
 288 402 284 404 284 408 c 0
 284 414 291 419 291 424 c 0
 291 426 292 427 293 427 c 1
EndSplineSet
Validated: 1
Substitution2: "'vrt2' +fiZm+DBNW1dfYjBoVt6O4m4IMH9lh1tX lookup 2-1" uni3047.vert
Substitution2: "'vert' +fiZm+DBNW1dfYjAQXsNrYjAR lookup 1-1" uni3047.vert
EndChar

StartChar: uni3048
Encoding: 12360 12360 11
Width: 1000
Flags: W
HStem: 52 82<579.053 656.21> 61 70<579.053 622.663 623.421 703.768> 183 54<634.289 680.993> 360 85<409.001 438.561> 451 51<687 732> 456 56<566 642.581 645.379 679 679.003 720.375> 466 32<566.035 610.547>
VStem: 188 52<182.003 211> 200 61<324.001 367.999> 212 69<379.19 462.764> 212 61<331.002 367.999 368.009 419.03> 292 88<634 674.992> 295 34<302.001 315> 540 39<131.29 159.63> 556 28<149 166> 738 78<301.022 370.999 371 437.425>
LayerCount: 2
Fore
SplineSet
732 502 m 6x3809
 775 471 l 5
 775 466 792 450 801 433 c 4
 809 417 815 371 815 371 c 6
 816 371 816 370 816 368 c 4
 816 355 796 285 796 285 c 6
 796 282 789 267 787 267 c 4
 786 267 785 266 785 265 c 4
 785 258 754 242 754 238 c 4
 754 233 723 219 723 219 c 5
 723 216 715 220 694 204 c 4
 689 200 681 192 681 191 c 4
 681 187 672 183 665 183 c 4
 650 183 628 170 606 161 c 4
 600 159 597 162 591 155 c 4
 586 150 584 150 584 149 c 4x380b
 584 145 579 147 579 143 c 4
 579 138 587 131 596 131 c 4x7805
 637 131 610 134 644 134 c 4
 648 134 648 133 651 133 c 4
 697 133 699 140 704 140 c 4
 708 140 716 136 716 135 c 4
 716 133 754 133 761 115 c 4
 762 112 763 109 764 109 c 4
 765 109 765 108 765 106 c 4
 765 102 762 93 762 93 c 6
 762 91 760 85 757 81 c 4
 757 80 754 81 754 81 c 6
 747 81 750 75 736 73 c 4
 703 68 669 56 657 56 c 4
 640 56 632 52 623 52 c 4xb005
 616 52 597 61 584 61 c 4x7003
 581 61 563 65 563 66 c 4
 563 67 563 67 561 67 c 4
 553 67 521 92 521 113 c 6
 521 129 l 6
 521 139 540 146 540 152 c 4x7005
 540 153 542 154 542 154 c 5
 542 162 556 165 556 166 c 4
 556 167 557 168 558 168 c 4
 561 168 568 175 571 175 c 4
 572 175 596 192 596 193 c 4
 614 219 636 207 660 230 c 4
 662 233 669 237 670 237 c 4
 671 237 680 243 684 248 c 4
 688 254 684 252 691 264 c 4
 694 269 723 296 723 301 c 5
 723 301 734 331 734 332 c 4
 734 336 738 342 738 355 c 4
 738 361 737 368 734 378 c 6
 723 427 l 6
 723 428 721 430 721 433 c 4
 721 436 696 451 687 451 c 4x7803
 683 451 679 454 679 453 c 5
 666 453 674 466 644 466 c 4x3203
 614 466 566 456 566 456 c 6
 566 455 529 441 528 437 c 4
 527 435 524 437 524 436 c 4
 524 434 453 402 453 402 c 5
 453 402 443 391 443 389 c 4
 443 381 432 380 420 368 c 4
 416 364 412 360 411 360 c 4
 410 360 409 359 409 358 c 4
 409 350 388 346 368 332 c 4
 360 326 356 325 354 325 c 4
 352 325 353 326 352 326 c 4
 350 326 348 324 343 319 c 4
 332 308 330 316 329 307 c 4
 329 304 328 302 327 302 c 4
 324 302 329 294 319 264 c 4
 315 251 315 264 315 230 c 4
 315 116 321 88 321 85 c 4
 321 82 320 81 320 79 c 4
 320 73 326 68 326 60 c 4
 326 56 330 46 330 37 c 4
 330 13 305 7 291 7 c 4
 275 7 266 12 259 12 c 4
 258 12 257 12 256 12 c 4
 253 12 239 26 239 30 c 5
 209 81 l 6
 203 92 191 93 191 107 c 6
 191 109 l 6
 191 118 188 160 188 181 c 4x350b
 188 211 185 211 185 211 c 5
 188 222 189 324 199 324 c 5
 199 324 200 326 200 331 c 4x3481
 200 348 208 361 208 365 c 4
 208 366 209 368 209 368 c 6
 210 368 212 381 212 397 c 4
 212 409 211 421 208 431 c 4
 197 460 204 454 194 463 c 4
 182 475 186 484 184 484 c 5
 184 490 l 6
 184 502 199 521 204 521 c 4
 209 521 214 525 219 525 c 4
 229 525 230 486 242 482 c 4
 247 480 246 476 248 476 c 4
 249 476 250 475 250 474 c 4
 250 472 268 454 268 452 c 4
 268 439 281 449 281 420 c 4x3441
 281 399 278 398 278 390 c 4
 278 379 273 384 273 377 c 4x3421
 273 366 269 375 267 354 c 4
 266 340 263 343 263 337 c 4
 263 334 261 331 261 331 c 5x3481
 261 325 256 314 254 314 c 4
 253 314 253 314 253 312 c 4
 253 309 248 310 248 305 c 4
 248 300 244 288 244 280 c 4
 244 278 245 277 245 272 c 4
 245 270 242 273 242 256 c 4
 242 235 236 240 236 223 c 4
 236 210 240 208 240 196 c 4
 240 186 246 182 251 182 c 4
 254 182 257 185 257 185 c 5
 257 185 270 209 271 216 c 4
 272 225 279 223 279 240 c 6
 279 245 l 6
 279 266 288 268 288 274 c 4
 288 276 292 276 292 286 c 4x3511
 292 290 292 293 293 293 c 4
 294 293 295 297 295 302 c 5
 299 315 l 6
 303 328 301 339 309 349 c 4
 315 355 328 352 330 364 c 4
 331 368 341 378 348 384 c 6
 366 400 l 6
 368 401 378 414 382 415 c 4
 388 417 393 425 395 425 c 4
 396 425 397 428 397 429 c 4
 397 430 399 434 400 434 c 4
 401 434 413 445 417 445 c 4
 423 445 435 457 436 457 c 4
 437 457 444 467 448 467 c 4
 455 467 501 498 522 498 c 4x3209
 531 498 546 510 582 512 c 6x3409
 669 518 l 6
 681 518 684 515 697 513 c 4
 710 511 726 513 729 505 c 4
 730 504 731 502 732 502 c 6x3809
241 583 m 5
 241 584 242 588 250 593 c 6
 259 600 l 6
 262 602 265 604 266 604 c 6
 281 624 l 5
 281 626 289 634 291 634 c 5
 291 634 292 634 292 637 c 4x3051
 292 642 295 641 295 649 c 4x3009
 295 681 271 682 271 697 c 4
 271 710 282 712 292 712 c 4
 337 712 341 685 349 685 c 4
 355 685 380 639 380 631 c 5x3011
 379 631 378 628 378 625 c 4
 378 612 367 599 367 593 c 6
 367 591 l 6
 367 587 356 580 353 580 c 4
 352 580 352 579 352 578 c 6
 352 578 341 571 324 571 c 6
 316 571 l 6
 308 571 300 571 293 569 c 4
 292 569 261 552 243 552 c 4
 235 552 230 555 230 560 c 4
 230 567 239 574 239 580 c 4
 239 582 240 583 241 583 c 5
EndSplineSet
Validated: 1
EndChar

StartChar: uni3049
Encoding: 12361 12361 12
Width: 1000
Flags: W
HStem: 6 69<614.56 653 653 695.215> 9 74<670.521 756.99> 13 60<565.6 652.203> 342 50<273.999 349.861> 343 64<273.999 293.574 294.1 357.78> 375 56<586.28 664.391 668.217 724.989> 388 43<725.001 739.869> 428 42<453.626 465.793>
VStem: 230 69<26.6019 83> 342 52<28.6021 106.339> 345 61<241.002 262 262.001 282.898> 352 44<28.6021 140.991> 358 45<460.009 474> 359 63<290.01 315.906> 522 32<103 137.453>
LayerCount: 2
Fore
SplineSet
554 103 m 1x2082
 565 103 551 73 614 73 c 0x2082
 626 73 634 75 634 75 c 2x8082
 644 75 641 77 657 77 c 0
 678 77 679 84 696 84 c 0
 704 84 710 83 713 83 c 2
 732 83 l 2
 749 83 770 80 770 54 c 1
 768 43 l 1
 768 41 l 2
 768 39 769 38 769 36 c 0
 769 30 757 22 757 19 c 0
 757 13 743 9 738 9 c 0x4082
 736 9 733 10 730 10 c 0
 700 4 681 2 670 2 c 0
 653 2 653 6 653 6 c 1x8082
 636 6 619 13 610 13 c 0
 568 13 537 72 537 74 c 2
 537 74 529 92 529 93 c 0
 529 97 522 112 522 125 c 0
 522 131 524 139 534 139 c 0
 546 139 554 103 554 103 c 1x2082
666 440 m 0
 714 440 717 431 719 431 c 0x0482
 727 431 738 417 738 415 c 0
 738 412 740 414 740 407 c 0x0882
 740 394 729 388 727 388 c 0x0282
 726 388 725 387 725 386 c 0
 725 384 710 375 687 375 c 0x0482
 681 375 665 366 655 366 c 1
 655 366 620 370 602 379 c 0
 596 382 592 380 586 383 c 0
 582 385 550 413 550 428 c 0x0182
 550 434 552 443 562 443 c 0
 570 443 576 437 578 437 c 0
 596 436 590 431 612 431 c 0x0482
 640 431 631 440 666 440 c 0
418 351 m 0
 446 351 486 409 498 411 c 1
 502 408 504 404 504 399 c 0
 504 389 494 377 494 376 c 0
 494 372 478 365 468 347 c 0
 461 334 437 313 428 291 c 0
 426 287 422 289 422 287 c 0x0186
 422 286 419 284 417 283 c 0
 415 281 406 267 406 265 c 0x01a2
 406 263 406 262 405 262 c 2
 400 241 l 1
 400 233 394 237 393 162 c 0
 393 152 396 148 396 129 c 0x0192
 396 111 394 91 394 78 c 0x01c2
 394 63 398 66 398 54 c 0
 398 44 403 41 403 28 c 0x018a
 403 24 402 21 402 15 c 0
 402 -8 406 -16 406 -17 c 0x01a2
 406 -30 396 -49 382 -49 c 2
 378 -49 l 2
 361 -49 364 -39 346 -29 c 0
 339 -26 338 -16 338 -4 c 2
 338 34 l 2
 338 58 342 57 342 64 c 0x01c2
 342 73 352 93 352 107 c 0x0192
 352 114 349 124 349 128 c 1
 349 128 346 141 339 141 c 0
 337 141 333 140 330 137 c 2
 322 128 l 2
 320 126 309 91 308 91 c 0
 306 91 302 71 299 63 c 0
 296 53 304 53 282 31 c 0
 268 17 267 16 261 16 c 2
 254 16 l 2
 231 16 230 33 230 55 c 0
 230 73 234 78 234 78 c 1
 234 83 l 1
 236 83 245 116 250 116 c 0
 251 116 253 118 253 119 c 0
 253 120 268 144 268 144 c 1
 276 156 l 2
 276 157 276 158 277 158 c 0
 279 158 275 162 289 176 c 0
 293 180 296 183 297 183 c 0
 299 183 301 191 302 191 c 2
 302 191 315 211 315 213 c 0
 315 216 319 218 319 220 c 0
 319 222 323 225 323 227 c 0
 323 231 332 241 332 241 c 1
 334 241 335 243 345 264 c 1x41a2
 345 270 357 290 358 290 c 0x418a
 359 290 359 304 359 318 c 2
 359 331 l 1x4186
 358 335 352 343 342 343 c 0x49c2
 334 343 330 338 322 338 c 0
 314 338 306 342 292 342 c 2
 286 342 l 2x10c2
 273 342 274 347 274 347 c 1
 274 349 248 357 234 381 c 0
 234 382 233 385 233 388 c 0x02c2
 233 406 236 411 242 411 c 0
 250 411 256 404 262 404 c 0
 270 404 285 392 294 392 c 0x10c2
 296 392 306 398 315 398 c 0
 325 398 337 407 338 407 c 0x08c2
 346 407 347 413 350 413 c 1
 350 413 358 421 358 431 c 0x028a
 358 442 356 465 353 475 c 0
 338 517 319 507 319 516 c 0
 319 517 312 530 312 535 c 0
 312 544 316 547 323 547 c 0
 341 547 374 528 376 526 c 2
 403 474 l 2
 403 473 411 460 416 460 c 0
 423 460 438 470 440 470 c 0
 448 470 468 450 468 444 c 0
 468 428 467 428 467 428 c 1x018a
 457 395 415 398 414 353 c 1
 415 352 416 351 418 351 c 0
EndSplineSet
Validated: 1
Substitution2: "'vrt2' +fiZm+DBNW1dfYjBoVt6O4m4IMH9lh1tX lookup 2-1" uni3049.vert
Substitution2: "'vert' +fiZm+DBNW1dfYjAQXsNrYjAR lookup 1-1" uni3049.vert
EndChar

StartChar: uni304A
Encoding: 12362 12362 13
Width: 1000
Flags: W
HStem: 52 94<642.7 744.029> 62 91<642.7 712.03 713.663 820.988> 66 75<587.271 690.015> 70 83<167.001 177.239 642.7 690.015> 472 75<243.102 311.815> 477 63<216.999 268.483> 478 80<243.102 311.815> 519 69<607.327 704.978 709.772 781.986> 535 54<782.001 797.427>
VStem: 163 86<88.7742 153> 297 76<85.7413 182.197> 306 76<377.001 402.895> 315 55<93.3837 146.126 147.757 225.703> 323 56<625.012 642> 324 79<412.012 439.188> 527 41<179 221.536>
LayerCount: 2
Fore
SplineSet
821 73 m 0x4041
 821 66 804 61 798 61 c 0
 795 61 792 62 788 62 c 0x4041
 750 54 727 52 713 52 c 0x8041
 692 52 691 57 691 57 c 1
 670 57 648 66 637 66 c 0
 585 66 546 139 546 142 c 1
 546 142 536 165 536 166 c 0
 536 171 527 190 527 206 c 0
 527 214 530 223 543 223 c 0
 558 223 568 179 568 179 c 2
 569 179 572 174 582 158 c 0
 592 143 621 141 642 141 c 0x2041
 657 141 668 143 668 143 c 2
 681 143 676 146 696 146 c 0x8041
 722 146 724 155 745 155 c 0
 755 155 762 153 766 153 c 0
 771 153 780 154 790 154 c 0
 811 154 837 149 837 117 c 1
 835 104 l 1
 835 102 l 2
 835 99 836 97 836 95 c 0
 836 88 821 77 821 73 c 0x4041
707 600 m 0
 767 600 772 589 774 589 c 0
 784 589 797 571 797 569 c 0
 797 565 800 568 800 559 c 0
 800 543 787 535 784 535 c 0x00c1
 783 535 782 534 782 533 c 0
 782 530 763 519 734 519 c 0
 726 519 706 507 694 507 c 1
 694 507 650 510 627 523 c 0
 620 526 614 525 607 529 c 0
 602 532 562 566 562 585 c 0
 562 593 565 604 577 604 c 0
 587 604 595 596 598 596 c 0
 621 595 613 588 640 588 c 0x0141
 675 588 663 600 707 600 c 0
201 70 m 2x10c9
 193 70 l 2
 164 70 163 92 163 119 c 0
 163 141 167 147 167 147 c 2
 167 150 168 153 168 153 c 1
 171 153 182 195 188 195 c 0
 189 195 191 198 191 199 c 0
 191 200 210 230 210 230 c 1
 220 245 l 2
 220 246 220 247 221 247 c 0
 224 247 218 252 236 270 c 0
 241 275 245 278 246 278 c 0
 249 278 251 289 252 289 c 2
 252 289 269 313 269 316 c 0
 269 320 274 323 274 325 c 0
 274 327 279 330 279 333 c 0
 279 338 290 351 290 351 c 1
 293 351 293 354 306 380 c 1x10d1
 306 387 321 412 322 412 c 0
 323 412 324 429 324 447 c 2
 324 463 l 1
 323 468 315 478 302 478 c 0x1243
 292 478 287 472 277 472 c 0x0843
 267 472 258 477 240 477 c 2
 232 477 l 2x0443
 216 477 217 483 217 483 c 1
 217 486 185 496 167 526 c 0
 167 527 166 531 166 535 c 0x00c3
 166 558 171 563 178 563 c 0
 188 563 194 555 202 555 c 0
 212 555 232 540 243 540 c 0x0443
 245 540 258 547 269 547 c 0x0843
 281 547 296 558 297 558 c 0x0261
 307 558 308 566 312 566 c 1
 312 566 323 577 323 589 c 0
 323 603 320 631 316 644 c 0
 297 696 274 684 274 695 c 0
 274 696 265 713 265 719 c 0
 265 730 270 733 279 733 c 0
 302 733 343 710 345 707 c 2
 379 642 l 2x00c5
 379 641 389 625 395 625 c 0
 404 625 423 637 425 637 c 0
 435 637 460 613 460 605 c 0
 460 585 459 585 459 585 c 1
 446 544 394 547 393 491 c 1
 394 490 395 489 398 489 c 0
 412 489 438 509 438 509 c 1
 486 551 484 561 497 563 c 1
 502 559 505 554 505 548 c 0
 505 535 492 521 492 520 c 0
 492 515 472 505 460 483 c 0
 451 467 421 442 410 414 c 0
 408 409 403 410 403 408 c 0x00c3
 403 407 398 404 396 403 c 0
 393 401 382 383 382 381 c 0x00d1
 382 379 382 377 381 377 c 2
 375 351 l 1
 375 341 367 346 366 252 c 0
 366 239 370 235 370 211 c 0x00c9
 370 189 368 163 368 147 c 0
 368 128 373 132 373 117 c 0x00e1
 373 105 379 101 379 85 c 0x00c5
 379 80 378 75 378 68 c 0
 378 39 382 29 382 28 c 0x00d1
 382 12 370 -11 353 -11 c 0
 351 -11 349 -11 347 -11 c 0
 326 -11 330 1 308 13 c 0
 299 18 298 30 298 45 c 2
 298 56 l 2
 298 71 297 73 297 92 c 0x00e1
 297 122 303 121 303 130 c 0
 303 141 315 166 315 183 c 0
 315 192 311 205 311 210 c 1
 311 210 308 226 299 226 c 0
 296 226 292 225 288 221 c 2
 277 210 l 2
 275 208 261 164 260 164 c 0
 258 164 252 139 249 129 c 0
 244 116 255 115 227 88 c 0
 209 71 208 70 201 70 c 2x10c9
EndSplineSet
Validated: 1
EndChar

StartChar: uni304B
Encoding: 12363 12363 14
Width: 1000
Flags: W
HStem: 66 98<344.785 414.65> 408 76<165.557 276.193> 513 51<367.84 452.916>
VStem: 316 66<571.75 686.443> 467 79<263.882 500.312> 771 110<338.945 427.735>
LayerCount: 2
Back
SplineSet
822 287 m 4xe014
 807 287 774 310 739 310 c 6
 729 310 l 6
 700 310 676 324 676 324 c 5
 676 326 662 329 662 331 c 5
 662 331 661 332 660 332 c 4
 656 332 650 337 650 340 c 4
 650 359 741 354 766 369 c 4
 791 383 804 384 804 403 c 4xe014
 804 411 801 422 800 422 c 4
 799 422 798 426 798 430 c 4
 798 432 795 436 795 436 c 5
 795 449 789 470 787 470 c 5
 787 470 771 491 769 491 c 5xe018
 769 491 762 497 760 501 c 4
 759 502 713 534 713 534 c 6
 712 534 687 551 687 561 c 4
 687 568 694 572 705 572 c 4xc818
 720 572 732 560 768 552 c 4
 779 549 783 541 795 541 c 4
 797 541 798 540 798 540 c 5
 798 538 806 539 819 522 c 4
 824 515 823 521 827 515 c 4
 839 497 846 505 865 483 c 4
 869 478 874 468 874 464 c 4xe018
 874 460 890 433 892 412 c 4
 893 399 896 401 896 386 c 4
 896 378 885 351 885 347 c 4
 885 346 884 344 884 344 c 5
 882 344 877 311 865 311 c 6
 858 311 l 6
 847 311 840 295 835 295 c 4
 834 295 833 294 833 293 c 4
 833 291 825 290 825 288 c 5
 825 288 824 287 822 287 c 4xe014
335 82 m 4
 335 83 324 110 321 116 c 4
 319 121 314 123 314 125 c 4
 314 127 300 144 300 147 c 4
 300 154 289 159 287 159 c 4
 285 159 279 166 279 169 c 4
 279 170 278 171 277 171 c 4
 276 171 276 173 276 175 c 4
 276 179 279 195 290 195 c 4
 307 195 303 185 333 171 c 4
 353 162 359 158 364 158 c 4
 371 158 375 164 398 172 c 4
 405 174 436 230 436 230 c 5
 436 232 443 238 443 244 c 4
 443 258 482 334 482 462 c 4
 482 498 476 493 471 518 c 4
 468 533 453 533 453 533 c 5
 440 537 442 537 439 537 c 4xc4b0
 433 537 412 532 412 529 c 4
 412 528 411 527 410 527 c 4
 409 527 400 522 398 520 c 6
 391 512 l 5
 362 495 l 5
 358 495 345 481 339 476 c 4
 337 475 339 470 339 470 c 6
 339 457 331 452 331 445 c 4
 331 436 314 414 314 407 c 4
 314 398 310 404 302 362 c 4
 293 310 279 321 278 287 c 5
 268 248 l 6
 267 246 268 239 263 227 c 4
 261 223 260 219 260 218 c 4
 260 217 247 197 247 195 c 4xd1b0
 247 187 224 142 224 136 c 4
 224 127 212 114 212 107 c 4
 212 94 185 56 185 56 c 5
 185 53 178 43 160 43 c 4
 122 43 117 70 117 77 c 4xd210
 117 81 118 84 119 88 c 4
 134 137 119 100 150 150 c 6
 168 178 l 5
 168 180 195 227 195 227 c 5
 195 233 207 246 207 257 c 4
 207 273 238 311 243 321 c 4
 263 365 266 418 266 418 c 6
 266 421 262 423 257 423 c 4
 245 423 226 417 209 417 c 4
 205 417 200 418 197 418 c 4
 127 434 118 456 118 456 c 6
 117 456 114 461 114 463 c 5
 113 463 107 473 107 474 c 4
 107 477 104 474 104 485 c 4
 104 492 104 503 109 503 c 4
 116 503 130 495 138 495 c 4
 145 495 152 480 184 480 c 4
 199 480 193 482 200 482 c 4
 204 482 269 496 269 496 c 5
 291 514 l 5
 303 514 311 563 311 563 c 5
 311 580 317 593 317 607 c 4xd1b0
 317 627 306 627 301 641 c 4
 301 643 279 655 279 671 c 4
 279 678 301 679 316 679 c 4
 328 679 340 677 341 672 c 4
 342 668 356 654 356 646 c 4xd050
 356 641 363 642 363 629 c 4
 363 624 362 619 362 619 c 5
 362 586 365 599 365 583 c 4
 365 572 374 568 385 568 c 4xd030
 409 568 415 579 433 579 c 4xc430
 446 579 458 575 472 571 c 4
 482 569 482 564 492 555 c 4
 517 534 520 514 520 514 c 5
 522 509 528 506 533 493 c 4
 540 473 540 406 543 400 c 4
 544 398 545 396 545 393 c 4
 545 384 542 374 542 365 c 4
 542 356 544 361 544 325 c 6
 544 323 l 6
 544 293 539 292 535 273 c 4
 529 250 537 253 518 214 c 4
 513 204 506 184 496 165 c 4
 488 150 488 155 488 146 c 6
 488 144 l 6
 488 141 487 138 486 138 c 4
 485 138 484 137 484 136 c 4
 484 127 453 110 453 104 c 4
 453 101 437 85 425 75 c 4
 423 74 420 75 420 75 c 5
 399 74 398 57 383 57 c 4
 364 57 335 72 335 82 c 4
EndSplineSet
Fore
SplineSet
861 330 m 4
 839 318 826 321 777 300 c 4
 754 290 701 252 691 252 c 7
 686 252 680 259 680 267 c 4
 680 274 684 283 693 291 c 4
 701 299 715 310 726 317 c 4
 755 337 771 371 771 394 c 4
 771 438 737 459 702 488 c 4
 684 502 657 514 657 531 c 4
 657 536 660 544 678 544 c 4
 767 544 881 438 881 365 c 4
 881 350 871 335 861 330 c 4
481 131 m 4
 467 101 414 66 376 66 c 4
 366 66 349 77 340 92 c 4
 314 136 296 177 266 226 c 5
 253 187 231 139 226 118 c 4
 222 101 172 28 146 28 c 4
 133 28 122 40 122 62 c 4
 122 105 163 157 184 189 c 4
 212 232 222 255 240 303 c 4
 255 342 272 392 277 424 c 5
 263 413 242 408 230 408 c 4
 219 408 181 420 149 438 c 4
 136 445 130 462 130 476 c 7
 130 488 134 496 141 496 c 4
 153 496 174 484 200 484 c 4
 226 484 282 499 301 523 c 5
 312 555 316 615 316 642 c 4
 316 648 315 661 310 668 c 4
 296 688 284 690 284 714 c 4
 284 724 309 730 318 730 c 4
 348 730 354 716 359 711 c 4
 372 699 382 686 382 670 c 4
 382 631 378 630 372 614 c 4
 366 598 359 569 356 552 c 5
 375 558 403 564 422 564 c 4
 447 564 476 540 500 528 c 4
 544 506 546 475 546 454 c 4
 546 344 525 221 481 131 c 4
278 270 m 5
 304 216 362 164 382 164 c 4
 416 164 427 209 444 260 c 4
 456 296 467 390 467 440 c 7
 467 486 443 513 415 513 c 4
 383 513 346 474 332 452 c 5
 318 391 300 316 278 270 c 5
EndSplineSet
Validated: 1
EndChar

StartChar: uni304C
Encoding: 12364 12364 15
Width: 1000
Flags: W
HStem: 66 98<344.785 414.65> 408 76<165.557 276.193> 513 51<367.84 452.916> 570 130<690 784>
VStem: 316 66<571.75 686.443> 467 79<263.882 500.312> 666 154<611 687> 748 72<572.56 629.81> 760 154<673 748> 771 110<338.945 427.735> 842 72<632.805 689.689>
LayerCount: 2
Back
SplineSet
692 252 m 4xdbc3
 688 252 680 258 680 267 c 4
 680 276 688 286 688 286 c 5
 721 313 l 5
 723 313 732 321 739 326 c 4
 748 332 771 376 771 394 c 4
 771 405 758 417 758 424 c 4
 758 425 754 435 754 435 c 5
 754 438 746 450 743 454 c 4
 734 467 702 487 702 488 c 6
 685 501 l 5
 681 501 658 518 658 532 c 4
 658 540 667 544 678 544 c 4
 725 544 829 486 837 455 c 4
 838 450 848 439 850 439 c 4
 851 439 854 433 854 432 c 4
 854 429 876 410 876 405 c 4
 878 390 880 378 880 367 c 4
 880 347 873 333 848 325 c 4
 821 316 813 311 792 306 c 4
 777 302 764 289 755 286 c 4
 734 279 729 268 721 268 c 4
 720 268 719 268 719 267 c 4
 719 265 696 252 692 252 c 4xdbc3
807 673 m 5
 841 662 844 641 846 641 c 4
 847 641 848 640 848 639 c 6
 848 639 851 627 851 616 c 4
 851 595 836 595 836 595 c 6
 835 595 834 595 834 594 c 4
 834 592 823 583 813 583 c 4
 797 583 763 615 763 615 c 5
 759 615 753 630 742 632 c 4
 739 632 719 646 719 646 c 6
 719 647 718 647 717 647 c 4
 712 649 698 663 698 666 c 4
 698 667 697 668 696 668 c 4
 694 668 692 673 695 675 c 4
 706 684 704 690 729 690 c 4
 761 690 795 678 795 678 c 5
 795 676 807 675 807 673 c 5
918 690 m 4
 926 681 932 659 932 652 c 4
 932 639 924 615 902 615 c 4
 887 615 884 617 872 631 c 5
 863 654 l 5
 863 654 849 673 830 679 c 4
 828 679 806 694 802 694 c 4
 798 694 793 701 793 707 c 4
 793 712 795 716 801 719 c 6
 814 724 l 5
 824 726 819 727 838 727 c 4
 889 727 894 713 918 690 c 4
180 484 m 4
 203 485 212 494 235 494 c 4
 245 494 251 492 255 492 c 4
 280 492 298 522 298 524 c 4
 298 527 306 539 306 547 c 4
 306 548 314 564 314 598 c 4
 314 609 315 628 315 642 c 4
 315 653 314 660 314 660 c 6
 313 660 316 668 295 688 c 4
 285 697 284 714 284 714 c 5
 284 726 315 730 325 730 c 4
 332 730 331 727 340 727 c 4
 347 727 355 711 359 711 c 4
 362 711 366 704 367 702 c 5
 379 693 382 682 382 670 c 4xe3eb
 382 658 379 646 379 638 c 4
 379 617 371 621 369 603 c 4
 367 591 366 586 365 586 c 4
 364 586 364 582 364 578 c 4xe3d3
 364 561 369 566 382 562 c 4
 385 562 381 561 389 561 c 4
 401 561 414 563 416 563 c 4
 430 563 461 550 461 550 c 6
 475 546 500 522 507 522 c 4
 508 522 520 514 520 513 c 4
 520 511 527 507 527 506 c 4
 535 495 537 480 540 480 c 5
 540 480 543 467 543 452 c 4xe7e7
 543 429 535 423 535 394 c 4
 535 387 536 380 536 372 c 4
 536 331 525 336 524 280 c 4
 523 234 496 164 496 164 c 6
 496 162 491 150 490 150 c 4
 489 150 489 145 488 142 c 4
 485 137 481 134 481 131 c 4
 481 122 452 101 452 101 c 5
 448 101 440 86 430 81 c 4
 419 75 403 74 400 73 c 4
 398 73 392 69 390 69 c 4
 384 69 379 65 372 65 c 4
 349 65 332 110 309 138 c 4
 297 152 289 157 282 174 c 4
 278 185 272 191 270 195 c 4
 269 198 270 198 267 198 c 4
 261 198 254 180 250 180 c 4
 249 180 238 162 229 120 c 4
 227 106 200 67 193 61 c 4
 191 60 177 49 177 49 c 5
 177 49 160 28 146 28 c 4
 139 28 121 39 121 59 c 4
 121 75 133 90 133 98 c 4
 133 103 155 149 160 155 c 5
 160 155 164 159 164 162 c 5
 164 162 167 170 177 183 c 6
 201 212 l 5
 201 220 207 214 216 239 c 6
 228 271 l 5
 228 277 242 314 252 328 c 5
 259 357 l 6
 263 373 271 372 271 394 c 4
 271 404 270 405 269 405 c 4
 268 405 267 406 267 407 c 6
 267 407 262 414 255 414 c 4xe7cb
 247 414 245 408 230 408 c 4
 219 408 212 413 211 413 c 4
 210 413 170 423 157 434 c 5
 153 436 150 439 148 439 c 4
 143 439 130 450 130 474 c 4
 130 493 134 496 140 496 c 4
 149 496 166 484 180 484 c 4
286 292 m 5
 283 288 282 283 282 277 c 4
 282 258 294 235 294 235 c 5
 294 231 301 226 301 224 c 4
 301 214 349 178 354 177 c 4
 360 176 361 166 381 166 c 4
 399 166 384 167 409 186 c 4
 411 187 413 189 413 190 c 4
 413 193 429 215 431 234 c 4
 433 251 456 298 456 311 c 4xc7cb
 456 325 466 386 466 443 c 4
 466 492 463 478 442 504 c 4
 438 509 430 513 417 513 c 4xc7c7
 398 513 373 503 352 474 c 4
 311 419 317 369 310 348 c 4
 301 321 286 292 286 292 c 5
EndSplineSet
Fore
Refer: 90 12441 S 1 0 0 1 974 -7 2
Refer: 14 12363 N 1 0 0 1 0 0 2
EndChar

StartChar: uni304D
Encoding: 12365 12365 16
Width: 1000
Flags: W
HStem: -6 94<363.352 567.77> 155 95<574 659.5> 225 35<381.299 551.483> 365 59<334.449 501.161> 692 60<296.178 384.977>
VStem: 286 42<108.816 188.332>
LayerCount: 2
Back
SplineSet
591 175 m 4xc40780
 620 175 637 190 637 193 c 4
 637 195 636 197 636 200 c 4
 636 206 633 214 633 215 c 6
 633 215 630 217 629 224 c 4
 629 228 627 233 626 236 c 6
 622 246 l 6
 618 254 613 255 607 267 c 4
 596 289 578 297 578 297 c 5
 572 297 576 306 542 306 c 4xcc0780
 509 306 502 297 476 296 c 4xd00780
 437 295 432 292 421 292 c 4
 380 292 322 314 322 320 c 4
 322 322 291 338 291 343 c 4xe01380
 291 346 271 363 271 367 c 4xe00b80
 271 371 262 374 262 386 c 4
 262 389 266 397 272 402 c 4
 273 404 278 402 278 402 c 6
 285 402 291 399 291 396 c 4xe01380
 291 393 303 384 303 382 c 4
 303 381 303 381 305 381 c 4
 308 381 319 369 327 367 c 4
 339 364 344 362 344 361 c 4
 344 359 369 352 386 352 c 6
 412 352 l 6xe00b80
 413 352 482 361 495 371 c 5
 498 372 501 374 502 374 c 4xd00b80
 505 374 519 380 519 382 c 4
 519 383 519 384 520 384 c 4
 521 384 521 385 521 386 c 6
 521 386 526 394 526 404 c 4
 526 416 521 415 521 422 c 4
 521 425 511 444 511 447 c 4
 511 449 510 450 509 450 c 4
 504 450 511 471 456 475 c 6
 433 477 l 6
 423 478 375 483 375 487 c 4
 375 488 374 489 372 489 c 6xcd0b80
 372 489 347 497 347 498 c 4
 347 499 339 501 336 504 c 4
 329 511 322 520 321 520 c 4
 320 520 319 521 319 522 c 6
 319 522 299 543 299 546 c 6
 299 546 295 553 295 560 c 4
 295 570 302 576 306 576 c 4xc08b80
 309 576 312 573 318 568 c 6
 327 560 l 6
 336 552 363 541 380 541 c 4
 391 541 387 545 398 545 c 6
 406 545 l 6
 416 545 427 545 427 557 c 4
 427 559 427 561 426 561 c 4
 425 561 424 563 424 564 c 4
 424 566 413 586 409 590 c 4
 404 595 387 608 379 617 c 4
 379 618 374 622 372 622 c 4xc14b80
 371 622 363 629 354 631 c 4xc02b80
 350 632 290 633 290 655 c 4
 290 665 302 672 302 673 c 6xc04b80
 302 673 308 687 328 687 c 4xc02b80
 351 687 383 673 383 673 c 6
 387 672 441 623 448 604 c 4
 450 599 466 578 466 576 c 4
 466 573 479 563 494 563 c 4
 500 563 511 564 524 564 c 4
 565 564 575 547 575 535 c 4
 575 511 555 508 555 493 c 4
 555 478 563 477 563 477 c 5
 573 473 583 470 593 470 c 4xc2cb80
 623 467 619 461 641 461 c 4
 665 461 699 454 705 454 c 4
 708 454 724 447 727 447 c 4
 731 447 738 440 738 431 c 6
 738 426 l 6
 738 402 733 406 733 402 c 4
 733 401 732 400 732 400 c 5
 730 400 722 388 708 381 c 5
 706 378 701 369 688 364 c 4
 683 363 657 346 643 343 c 4
 632 341 623 331 623 328 c 4
 623 323 630 319 630 314 c 4
 630 309 644 292 644 289 c 4
 644 286 654 281 654 272 c 4
 654 267 669 241 669 236 c 5
 669 236 691 208 691 205 c 4
 691 204 696 196 697 196 c 6
 697 196 706 187 706 180 c 4
 705 155 697 118 694 118 c 4
 691 118 676 78 650 78 c 4
 649 78 616 85 608 92 c 4
 587 110 569 137 507 143 c 5
 507 143 479 150 455 150 c 4
 434 150 425 144 405 143 c 4
 368 142 370 127 353 118 c 4
 340 111 326 82 326 61 c 4
 326 49 330 47 330 46 c 4
 330 44 344 32 345 32 c 4
 349 32 364 9 426 9 c 4
 449 9 467 14 491 14 c 4
 502 14 512 13 526 11 c 4
 538 9 576 -14 576 -18 c 4
 576 -20 579 -25 579 -25 c 6
 580 -25 584 -34 584 -45 c 4
 584 -80 529 -81 519 -83 c 5
 512 -86 502 -87 490 -87 c 4
 436 -87 351 -67 351 -56 c 4
 351 -55 350 -55 349 -55 c 4
 342 -55 317 -36 312 -30 c 6
 312 -30 288 2 288 5 c 4
 288 8 282 25 282 47 c 4
 282 92 310 122 310 123 c 5
 312 123 332 140 335 146 c 4
 352 172 470 185 498 185 c 4
 510 185 503 182 521 182 c 4
 530 182 539 183 548 183 c 4
 566 183 566 175 591 175 c 4xc40780
565 437 m 4xc20380
 559 437 556 437 556 423 c 4
 556 414 558 403 567 398 c 5
 585 400 l 6xc40380
 590 400 593 402 597 402 c 5
 597 402 606 406 606 410 c 4
 606 415 591 433 585 433 c 5
 585 433 575 437 565 437 c 4xc20380
EndSplineSet
Fore
SplineSet
615 328 m 4xdc
 610 337 600 348 592 360 c 4
 587 367 583 370 572 388 c 5
 556 383 550 381 539 379 c 4
 508 373 447 365 423 365 c 7
 362 365 321 390 295 415 c 4
 282 427 267 444 267 457 c 7
 267 459 271 474 281 474 c 7
 296 474 297 459 309 452 c 28
 323 443 331 439 347 433 c 28
 363 427 371 424 388 424 c 6
 414 424 l 6
 418 424 468 437 502 446 c 28
 516 450 521 452 537 457 c 5
 531 467 528 479 521 493 c 28
 513 509 508 523 502 533 c 5
 492 537 478 542 457 544 c 6
 434 546 l 6
 421 548 396 550 373 557 c 4
 349 564 334 576 322 590 c 4
 305 610 299 619 299 628 c 7
 299 635 304 643 310 643 c 7
 313 643 316 641 322 636 c 6
 330 628 l 6
 343 617 369 610 395 610 c 4
 396 610 398 610 400 610 c 4
 409 610 429 611 440 613 c 5
 431 627 420 646 416 651 c 4
 403 668 392 674 371 692 c 4
 359 703 294 695 294 721 c 7
 294 731 297 735 302 740 c 4
 306 744 315 752 331 752 c 7
 354 752 385 739 385 739 c 5
 402 729 456 670 467 643 c 4
 469 637 475 631 481 623 c 5
 495 625 511 632 524 632 c 4
 564 632 574 615 574 603 c 4
 574 579 554 577 554 562 c 4
 554 536 574 546 591 540 c 4
 631 527 672 532 722 517 c 28
 731 514 733 507 733 496 c 7
 733 470 728 475 723 467 c 12
 716 460 715 457 706 450 c 4
 688 436 677 431 653 420 c 4
 642 415 628 409 618 404 c 5
 622 397 622 393 627 387 c 5
 634 369 644 364 651 346 c 5
 651 341 666 315 666 310 c 5
 678 294 694 274 702 255 c 5
 701 231 693 195 690 195 c 4
 687 195 672 155 647 155 c 4xdc
 585 155 591 212 507 219 c 5
 500 223 479 225 456 225 c 4
 437 225 417 223 407 219 c 4
 376 208 371 205 356 195 c 4
 343 186 328 160 328 138 c 7
 328 124 354 88 426 88 c 7
 449 88 476 93 500 93 c 7
 530 93 553 79 568 66 c 4
 574 61 582 55 582 35 c 7
 582 1 517 -6 500 -6 c 7
 437 -6 390 2 352 21 c 4
 326 34 296 73 292 84 c 4
 289 92 286 103 286 125 c 7
 286 169 314 199 314 200 c 4
 315 200 324 210 338 222 c 4
 366 250 471 260 501 260 c 7xbc
 532 260 559 250 589 250 c 7
 621 250 634 265 634 270 c 7
 634 286 623 314 615 328 c 4xdc
583 503 m 4
 569 508 567 512 547 519 c 5
 547 510 561 476 567 467 c 5
 583 471 l 6
 588 472 591 473 595 473 c 4
 601 474 603 477 603 481 c 4
 603 489 590 501 583 503 c 4
EndSplineSet
Validated: 1
EndChar

StartChar: uni304E
Encoding: 12366 12366 17
Width: 1000
Flags: W
HStem: -6 94<363.352 567.77> 155 95<574 659.5> 225 35<381.299 551.483> 365 59<334.449 501.161> 570 130<636 730> 692 60<296.178 384.977>
VStem: 286 42<108.816 188.332> 612 154<611 687> 694 72<572.56 629.81> 706 154<673 748> 788 72<632.805 689.689>
LayerCount: 2
Back
SplineSet
566 475 m 1x83f0
 565 468 567 470 569 466 c 2
 578 448 l 1
 583 444 591 442 597 442 c 0
 607 442 614 447 614 459 c 2
 614 461 l 2
 614 465 614 467 602 470 c 2
 583 476 l 1
 581 479 578 480 573 480 c 0
 567 480 568 480 566 477 c 1
 566 475 l 1x83f0
807 577 m 0
 808 577 813 565 813 558 c 1
 813 558 814 536 807 529 c 1
 807 527 782 509 782 509 c 1
 773 509 744 519 744 530 c 0x85f0
 744 531 723 551 723 553 c 0
 723 570 670 592 670 619 c 0
 670 626 674 631 683 631 c 0
 689 631 683 630 712 628 c 1
 724 628 l 2
 735 628 742 626 767 607 c 0
 778 599 791 594 807 577 c 0
756 671 m 0
 756 680 760 682 777 682 c 0
 801 682 830 671 850 671 c 0
 859 671 905 653 908 622 c 0
 909 617 909 612 909 607 c 0
 909 586 901 567 871 567 c 0
 850 567 840 579 840 581 c 0
 840 582 839 583 839 583 c 1
 834 583 819 604 805 616 c 1
 805 616 756 641 756 671 c 0
655 220 m 0
 655 255 631 265 631 280 c 1
 631 280 612 331 572 331 c 0
 538 331 515 296 500 296 c 0
 498 296 443 280 414 280 c 0xd1f0
 379 280 330 287 326 287 c 1x89f0
 326 287 272 304 272 345 c 2
 272 359 l 2
 272 372 287 382 293 383 c 0
 296 383 304 372 322 351 c 0
 325 348 342 344 362 344 c 0
 378 344 439 358 439 362 c 0
 439 363 441 363 442 363 c 0
 447 363 453 369 464 370 c 0
 485 372 498 382 516 387 c 0
 524 389 522 396 524 396 c 1
 524 396 533 411 533 414 c 0
 533 427 513 440 513 441 c 2
 513 441 499 464 498 464 c 0
 494 469 488 469 485 473 c 0
 476 481 468 484 456 484 c 0
 439 484 418 478 393 478 c 0
 290 478 313 492 282 513 c 0
 279 514 278 518 278 521 c 0
 278 529 284 538 294 538 c 0
 306 538 303 530 322 530 c 0x95f0
 341 530 424 537 424 566 c 0
 424 574 417 584 400 601 c 0
 398 604 377 615 338 620 c 0
 326 622 323 618 314 635 c 0
 312 638 312 642 312 645 c 0
 312 665 340 684 360 684 c 0
 368 684 409 670 409 670 c 1
 418 664 420 655 421 655 c 0
 422 653 432 643 433 639 c 0
 436 633 435 625 445 613 c 0
 449 607 454 603 455 603 c 0
 457 603 457 603 457 602 c 2
 483 596 l 1
 490 596 503 603 509 604 c 2
 520 606 l 1
 522 606 l 2
 531 606 547 595 547 594 c 0
 547 593 548 593 549 593 c 0
 556 593 560 578 560 567 c 0
 560 561 559 557 556 557 c 1
 556 557 551 539 551 532 c 0
 551 520 561 526 571 517 c 0
 574 515 577 514 578 514 c 0x83f0
 671 478 672 478 687 478 c 0
 725 478 716 466 725 449 c 0
 726 447 726 446 726 444 c 0
 726 426 683 397 683 396 c 0
 683 395 669 385 667 385 c 0
 665 385 651 383 651 362 c 1
 651 362 655 338 669 324 c 0
 678 314 669 307 695 285 c 0
 703 277 714 254 714 248 c 2
 714 248 728 190 728 146 c 0
 728 108 704 101 704 87 c 0
 704 86 700 81 698 81 c 0
 694 81 691 68 675 68 c 0
 633 68 636 86 621 91 c 0
 610 95 606 102 604 102 c 0
 602 102 591 112 589 112 c 0xc5f0
 586 112 578 122 575 123 c 0
 566 125 531 122 517 129 c 0
 514 131 506 131 496 131 c 0
 402 131 382 97 381 97 c 2
 381 97 347 74 347 58 c 0
 347 31 379 18 379 18 c 2
 380 18 379 13 403 13 c 0
 416 13 423 8 424 8 c 0
 428 8 437 3 457 3 c 0
 468 3 493 12 519 12 c 0
 549 12 578 -3 578 -24 c 0
 578 -32 575 -38 575 -43 c 0
 575 -58 536 -82 474 -82 c 0
 397 -82 372 -64 334 -39 c 0
 325 -33 325 -24 321 -14 c 1
 305 10 l 2
 304 10 295 30 295 39 c 0
 295 69 301 62 301 68 c 0
 301 74 324 103 326 103 c 0
 334 103 352 128 368 133 c 0
 374 134 421 158 441 164 c 1
 441 164 478 167 503 173 c 0
 512 175 550 173 550 176 c 0
 550 177 555 178 561 178 c 0xa1f0
 571 178 583 177 593 177 c 0xc1f0
 603 177 639 184 639 185 c 1
 648 185 655 202 655 220 c 0
EndSplineSet
Fore
Refer: 90 12441 S 1 0 0 1 920 -7 2
Refer: 16 12365 N 1 0 0 1 0 0 2
EndChar

StartChar: uni304F
Encoding: 12367 12367 18
Width: 1000
Flags: W
HStem: -26 97<558 602>
VStem: 374 41<327.092 365.994 366.001 426.975> 390 48<308.143 349.113> 444 45<500.955 531.724> 448 64<200.233 252.756> 458 69<199.001 219.945> 479 74<156.011 198.965> 501 95<34.0722 95.9993> 531 95<621.502 654.996 655 669> 553 75<655 695.998>
LayerCount: 2
Fore
SplineSet
559 580 m 1x81
 559 576 526 546 525 546 c 0
 524 546 496 517 494 517 c 0
 493 517 489 512 489 511 c 0
 489 508 482 502 477 495 c 0
 474 491 472 482 470 482 c 0
 467 482 465 470 456 461 c 0
 450 456 451 451 446 444 c 2
 434 427 l 1
 432 427 420 393 420 393 c 1
 420 386 415 377 415 366 c 0xd1
 415 346 438 328 438 321 c 0
 438 317 451 311 451 308 c 1
 457 295 l 1
 457 295 510 231 512 220 c 0xa8
 512 219 527 207 527 205 c 0x84
 527 203 553 180 553 173 c 0x82
 553 171 562 156 564 156 c 1
 564 156 595 115 596 96 c 0
 596 94 601 71 602 71 c 0
 603 71 610 35 610 34 c 0
 610 21 607 22 607 18 c 0
 607 -9 578 -26 558 -26 c 0
 540 -26 532 -11 516 1 c 0
 513 3 516 11 516 11 c 1
 510 66 502 59 502 72 c 9
 501 77 l 1
 501 81 l 18x81
 501 91 500 90 500 93 c 0
 500 95 500 96 499 96 c 2
 482 134 l 2
 480 139 481 143 480 143 c 0
 479 143 479 144 479 147 c 0x82
 479 151 467 199 460 199 c 0
 459 199 458 200 458 200 c 1x84
 458 205 448 208 448 216 c 0
 448 220 423 264 422 264 c 0
 421 264 413 271 413 273 c 0
 413 278 406 278 406 283 c 1
 406 283 405 284 404 284 c 0
 402 284 396 305 395 305 c 0
 394 305 390 311 390 313 c 0xa8
 390 317 372 331 372 350 c 0
 372 358 372 366 373 366 c 0
 374 366 374 368 374 372 c 2
 374 376 l 2
 374 461 442 521 444 527 c 1
 444 527 493 599 496 599 c 0
 497 599 508 606 508 611 c 0
 508 618 531 648 531 650 c 0xd080
 531 654 542 664 542 671 c 0
 542 673 553 681 553 690 c 0
 553 693 552 696 551 696 c 0
 550 696 543 720 541 720 c 0
 539 720 537 727 537 734 c 0
 537 745 545 747 553 747 c 0
 565 747 573 736 575 736 c 0
 600 722 628 710 628 669 c 2
 628 655 l 1x8040
 627 655 626 649 626 648 c 0x8080
 620 636 596 613 596 613 c 2
 595 613 573 595 573 595 c 1
 573 593 561 580 559 580 c 1x81
EndSplineSet
Validated: 1
EndChar

StartChar: uni3050
Encoding: 12368 12368 19
Width: 1000
Flags: W
HStem: 489 95<727.771 778.603> 603 58<766.004 768.711 769.65 795.726> 738 26<493.054 507.996>
VStem: 354 42<372.009 416.764> 362 45<327.059 357> 368 58<313.007 346.941> 394 79<482.818 517.994> 425 48<235.375 261.997> 446 89<139.712 209.198> 508 92<-30.5938 83.9899 671.07 725.835> 706 78<511.001 525.999>
LayerCount: 2
Fore
SplineSet
683 616 m 0xe020
 734 616 753 584 757 584 c 0
 759 584 764 577 769 572 c 0
 773 568 784 568 784 527 c 0
 784 522 784 516 783 509 c 0
 783 507 773 489 758 489 c 0
 748 489 724 504 717 504 c 0
 715 504 710 511 707 511 c 0
 706 511 706 512 706 513 c 0
 706 514 696 522 696 524 c 0
 696 525 696 526 695 526 c 0
 694 526 682 548 682 548 c 1
 682 553 652 586 652 604 c 0
 652 612 660 616 683 616 c 0xe020
742 661 m 1
 747 669 763 670 769 670 c 0
 783 670 789 665 789 665 c 1
 817 665 855 646 862 644 c 0
 866 643 872 641 882 608 c 2
 886 595 l 2
 887 593 887 590 887 587 c 0
 887 580 886 572 885 563 c 0
 885 559 864 545 864 545 c 2
 864 544 858 542 857 542 c 0
 853 542 851 539 845 539 c 0
 830 539 818 563 812 563 c 0
 808 563 800 580 798 580 c 0
 797 580 797 581 797 582 c 0
 797 584 785 600 778 600 c 1
 776 601 774 603 773 603 c 0
 771 603 766 608 766 610 c 0
 766 615 751 622 746 634 c 0
 743 641 738 644 738 649 c 0
 738 653 740 661 742 661 c 1
589 -20 m 0
 588 -20 581 -43 556 -43 c 0
 535 -43 541 -43 535 -38 c 0
 534 -37 504 6 504 13 c 1
 504 13 489 90 486 90 c 0
 484 90 486 99 480 105 c 0
 476 109 461 164 458 171 c 1
 457 176 446 185 446 189 c 0xe0a0
 446 192 425 221 425 232 c 0xe120
 425 234 411 251 403 262 c 0
 401 265 378 313 375 313 c 0
 373 313 368 322 368 327 c 0xe420
 368 328 362 346 362 347 c 0xe820
 362 355 354 374 354 398 c 0xf020
 354 435 377 460 379 472 c 0
 381 490 394 508 394 508 c 2
 394 510 397 518 398 518 c 2
 398 518 399 523 399 524 c 0
 406 537 421 553 422 553 c 0
 427 553 460 615 461 615 c 0
 462 615 462 616 462 618 c 0
 462 625 475 633 478 654 c 0
 479 662 508 703 508 725 c 0
 508 733 502 738 500 738 c 0
 496 738 493 744 493 750 c 0
 493 761 509 764 526 764 c 0
 553 764 566 749 568 742 c 0
 572 729 600 707 600 680 c 0
 600 653 585 634 585 634 c 2
 584 632 546 600 546 592 c 0
 546 591 530 572 529 572 c 0
 528 572 504 554 504 548 c 0
 504 546 495 536 494 536 c 1
 494 532 473 511 473 509 c 0xe260
 473 505 450 483 449 479 c 0
 446 472 437 465 434 462 c 1
 434 460 434 459 433 459 c 0
 431 459 433 454 428 446 c 2
 410 417 l 1
 410 412 401 405 401 402 c 0
 401 398 396 398 396 394 c 0xf020
 396 385 400 372 401 372 c 2
 407 357 l 1xe820
 407 352 424 336 424 332 c 0
 424 330 426 326 426 326 c 1xe420
 426 326 433 321 437 309 c 0
 440 298 459 284 466 272 c 0
 469 267 473 263 473 263 c 2xe120
 473 262 474 261 475 261 c 0
 478 261 481 242 490 239 c 0
 497 237 508 214 526 193 c 0
 528 191 535 186 535 180 c 0xe0a0
 535 174 554 148 554 142 c 0
 554 140 556 134 557 134 c 0
 558 134 560 127 560 125 c 0
 560 123 563 115 563 112 c 0
 563 107 581 94 584 89 c 0
 585 86 586 84 587 84 c 2
 587 84 592 70 592 69 c 0
 592 68 598 34 598 20 c 0
 598 11 595 4 595 -2 c 0
 595 -7 591 -20 589 -20 c 0
EndSplineSet
Validated: 1
EndChar

StartChar: uni3051
Encoding: 12369 12369 20
Width: 1000
Flags: W
HStem: 7 35<504.174 521.063> 493 51<475.018 571.962> 543 72<739.711 804.875>
VStem: 192 54<266.234 379.914> 199 49<380.002 454.754> 202 99<87.0218 264.244> 210 100<87.0218 264.39> 213 64<648.008 682.096> 228 97<39.0203 86.9993> 230 70<58.2322 86.9993 488.574 646.892> 286 48<267.891 304.999> 370 31<413.996 441.999> 589 79<135.047 221.483> 613 76<170.086 287.853 461.001 477.605 634.242 708.474> 626 67<318 320.62 323.271 453.713>
LayerCount: 2
Fore
SplineSet
287 305 m 1x9030
 317 352 l 1
 317 352 320 353 320 356 c 0
 320 361 328 366 328 369 c 1
 336 384 l 1
 346 412 359 414 359 420 c 0
 359 421 370 434 370 439 c 0
 370 441 370 442 371 442 c 0
 373 442 380 466 388 466 c 0
 389 466 390 466 391 466 c 0
 401 466 402 461 402 456 c 2
 402 448 l 2
 402 447 401 442 401 440 c 0
 401 436 394 415 387 399 c 0
 383 388 374 374 374 373 c 0
 374 358 337 298 337 287 c 0
 337 283 334 282 334 281 c 0x9030
 334 272 311 271 303 187 c 0
 302 172 301 170 301 167 c 2x8410
 301 167 308 113 309 113 c 0
 310 113 310 113 310 111 c 2x8210
 310 111 325 48 325 39 c 0
 325 34 324 29 320 22 c 0
 319 19 322 16 303 16 c 0
 261 16 265 39 249 39 c 0
 245 39 228 67 228 71 c 0x8090
 228 80 224 79 224 85 c 0
 224 86 223 87 222 87 c 0
 216 87 219 117 211 131 c 0
 211 132 210 136 210 138 c 0x8210
 210 152 203 147 202 181 c 0x8410
 201 203 192 270 192 291 c 0x9010
 192 324 195 379 198 380 c 0
 199 380 199 383 199 386 c 0x8810
 199 394 223 494 225 540 c 0
 226 564 230 591 230 610 c 0x8050
 230 618 230 624 228 628 c 2x8090
 220 648 l 1
 218 648 213 659 213 661 c 0
 213 669 189 696 188 716 c 0
 188 718 189 719 189 721 c 0
 189 726 195 730 204 730 c 0
 228 730 277 651 277 650 c 0x8110
 280 641 287 627 289 627 c 0
 290 627 301 612 301 601 c 0x8410
 301 599 301 597 300 596 c 1
 300 593 300 590 300 587 c 0x8050
 300 554 297 561 297 553 c 0
 297 536 282 512 277 482 c 0x8110
 270 447 258 439 258 420 c 0
 258 412 248 402 248 355 c 2
 248 327 l 2x8810
 248 308 246 316 246 305 c 0
 246 270 261 268 261 266 c 1
 267 266 286 298 286 303 c 0
 286 304 287 305 287 305 c 1x9030
617 288 m 1
 616 288 617 291 617 294 c 0
 617 295 620 303 620 310 c 0
 620 315 621 318 622 318 c 2
 622 318 626 368 626 409 c 0
 626 433 625 455 619 461 c 0
 618 461 617 462 617 464 c 0
 612 485 549 476 528 487 c 0
 517 492 512 493 509 493 c 0
 500 493 475 511 475 511 c 1
 464 525 460 533 460 538 c 0
 460 547 467 549 471 549 c 0
 477 549 479 544 486 544 c 0xc012
 520 544 551 533 573 533 c 0
 591 533 593 538 603 545 c 0
 616 553 618 564 618 577 c 0
 618 593 613 610 613 626 c 0
 613 637 615 640 615 643 c 0
 615 646 613 643 613 660 c 0
 613 692 581 715 581 726 c 1
 581 726 585 748 608 748 c 0
 615 748 623 746 628 745 c 1
 631 745 l 2
 645 745 662 726 665 722 c 0
 670 716 690 704 690 675 c 0
 690 638 701 646 721 625 c 0
 729 616 741 615 753 615 c 2
 773 615 l 2
 806 615 812 598 812 585 c 0
 812 568 798 555 783 543 c 0
 754 520 697 511 695 503 c 0
 686 475 686 475 686 455 c 0
 686 427 689 434 689 420 c 0xa014
 689 406 693 420 693 391 c 2
 693 386 l 2xa012
 693 384 698 349 698 322 c 0
 698 293 689 236 689 226 c 0xa014
 689 218 684 222 683 208 c 0
 682 203 681 199 680 199 c 0
 679 199 682 196 678 192 c 0
 677 191 676 190 676 189 c 0
 676 186 668 170 668 166 c 0xa018
 668 165 651 137 648 137 c 0
 647 137 647 136 647 135 c 2
 640 122 l 1
 638 122 637 120 637 119 c 0
 637 113 621 107 613 91 c 0xa014
 611 87 609 84 608 84 c 0
 606 84 607 75 604 75 c 1
 604 75 603 74 603 72 c 0
 603 71 541 7 528 7 c 0
 520 7 505 -14 491 -18 c 0
 482 -20 473 -26 464 -26 c 0
 454 -26 453 -21 453 -12 c 2
 453 -5 l 2
 453 2 484 25 492 30 c 1
 502 42 l 1
 504 42 518 54 518 56 c 0
 518 57 530 68 531 68 c 0
 536 68 547 88 554 94 c 0
 564 102 566 117 566 117 c 2
 567 117 568 118 568 120 c 0
 568 130 589 154 589 166 c 0xa018
 589 170 592 169 592 172 c 0
 592 187 614 196 614 256 c 1
 614 256 613 263 613 268 c 0xa014
 613 273 617 285 617 288 c 1
EndSplineSet
Validated: 1
EndChar

StartChar: uni3052
Encoding: 12370 12370 21
Width: 1000
Flags: W
HStem: 465 77<528.804 613.729> 465 69<499.665 595.551> 474 60<496.784 564.06> 505 31<437.799 494.819> 626 90<782.015 820.92> 672 58<714.379 769.246> 702 36<545.003 585.16> 745 31<777.519 821.248>
VStem: 165 61<326 434.959> 189 50<435.012 521.936> 219 82<563.445 668.606> 219 69<535.961 636.101 637.323 689.665> 312 4<153.512 198.611> 341 48<356.098 419.517> 594 73<645.678 697.573> 606 83<270.004 410.531> 618 67<270.004 460.256> 782 56<631.005 649.632> 838 77<686.292 733.694>
LayerCount: 2
Fore
SplineSet
829 631 m 0x090c40
 826 631 828 626 816 626 c 0x090c40
 803 626 782 632 782 640 c 1
 782 640 743 672 737 672 c 0
 729 672 727 684 718 691 c 0
 715 693 712 696 712 697 c 2
 712 697 708 706 708 713 c 0
 708 722 719 730 729 730 c 0x050c40
 770 730 795 716 796 716 c 2
 796 716 835 689 835 670 c 0
 835 667 838 668 838 662 c 0x090c20
 838 656 841 660 841 650 c 0
 841 642 838 644 838 641 c 0
 838 638 832 631 829 631 c 0x090c40
810 533 m 1
 774 517 l 1
 774 517 773 516 771 516 c 0
 764 516 759 503 736 501 c 0
 723 500 698 493 698 493 c 1
 691 490 687 488 687 476 c 0
 687 458 685 453 685 440 c 0x850c80
 685 392 689 356 689 320 c 0
 689 255 653 150 653 150 c 2
 652 146 641 128 632 113 c 2
 627 104 l 1
 626 93 611 78 603 63 c 0
 590 40 554 17 550 17 c 0
 549 17 527 -7 521 -7 c 0
 514 -7 444 -56 420 -56 c 0
 402 -56 397 -46 397 -43 c 0
 397 -38 403 -32 403 -30 c 0
 403 -26 439 0 448 1 c 0
 449 1 461 6 468 12 c 0
 473 15 476 22 478 22 c 1
 535 74 524 74 529 79 c 0
 563 118 558 132 562 132 c 0
 563 132 562 134 562 136 c 0
 562 142 579 175 579 180 c 0
 579 188 587 192 587 195 c 0
 587 199 592 204 592 208 c 0
 592 209 595 214 596 217 c 0
 597 222 601 269 604 270 c 0
 605 270 606 276 606 278 c 0x850d
 606 317 618 345 618 377 c 0
 618 391 620 401 620 411 c 0
 620 420 616 429 616 433 c 0
 616 440 615 452 603 456 c 0
 596 458 594 466 580 466 c 0
 574 466 573 465 565 465 c 0x850c80
 545 465 521 474 521 474 c 1x210c80
 514 474 480 505 459 505 c 0
 439 505 416 452 402 429 c 1
 402 429 389 408 389 401 c 0
 389 390 366 356 364 350 c 0
 363 346 356 327 355 327 c 0
 354 327 336 277 336 273 c 0
 336 269 333 274 327 244 c 0
 327 243 324 240 324 238 c 2
 324 238 312 205 312 200 c 0
 312 170 316 164 316 153 c 0
 316 150 318 146 318 146 c 1
 313 61 312 61 312 61 c 2
 312 59 307 49 293 49 c 2
 289 49 l 1
 240 55 249 52 235 66 c 0
 220 82 220 80 208 100 c 0
 181 146 196 123 175 187 c 1
 173 199 l 2
 165 247 170 326 165 326 c 1x118c80
 165 329 166 338 166 342 c 0
 166 379 185 435 185 435 c 1
 188 435 189 451 189 465 c 0x414c
 189 492 194 478 194 493 c 0
 194 511 209 556 209 562 c 0
 209 571 219 596 219 624 c 0x412c
 219 667 197 662 197 691 c 0
 197 698 197 704 198 704 c 0
 201 704 198 709 202 711 c 0
 211 716 216 718 220 718 c 1
 252 708 l 1
 252 706 265 702 271 695 c 0
 280 684 288 669 288 664 c 0x411c
 288 662 294 657 294 654 c 1
 300 644 301 644 301 637 c 0x412c
 301 618 288 588 288 584 c 0x411c
 288 579 284 567 282 567 c 0
 280 567 276 556 274 556 c 0
 273 556 271 549 271 547 c 0
 271 543 263 530 263 528 c 2
 263 528 245 480 244 463 c 0
 241 434 239 439 239 434 c 0x414c
 239 423 229 431 229 384 c 0
 229 360 226 362 226 306 c 0
 226 287 229 291 229 283 c 0
 229 278 234 278 234 270 c 0
 234 263 240 234 257 234 c 0
 272 234 278 265 281 265 c 0
 285 265 288 275 290 275 c 0
 291 275 291 276 291 278 c 0
 291 282 305 301 305 307 c 1
 325 345 320 355 323 355 c 0
 325 355 341 388 341 388 c 1
 341 392 362 417 374 437 c 0
 387 458 382 469 401 490 c 0
 402 491 406 496 406 497 c 0
 406 512 419 511 427 528 c 0
 428 530 431 536 433 536 c 2x118c
 433 536 471 546 496 546 c 0
 513 546 512 534 528 534 c 0x418c
 545 534 572 542 583 542 c 0
 616 542 608 558 614 558 c 1
 614 558 615 563 615 571 c 2
 615 571 612 624 610 624 c 0
 604 624 610 656 599 677 c 0
 596 681 594 686 594 687 c 0
 594 693 557 702 553 702 c 0
 548 702 545 709 545 711 c 0
 545 716 542 718 542 723 c 0
 542 727 545 729 545 732 c 0
 545 734 549 738 552 738 c 0x838e
 555 738 568 749 586 749 c 0
 605 749 609 739 613 739 c 0
 616 739 628 730 631 730 c 0
 634 730 636 722 638 722 c 0
 640 722 646 714 646 712 c 0
 646 711 648 709 650 708 c 0
 654 704 667 687 667 685 c 0
 667 684 671 679 672 679 c 0
 673 679 681 663 683 663 c 0
 684 663 688 644 690 644 c 1
 690 644 695 639 695 637 c 0
 696 634 700 631 700 631 c 2
 701 631 712 621 713 621 c 0
 718 621 716 614 734 611 c 0
 750 608 772 600 773 600 c 0
 790 600 818 560 818 542 c 0x858e
 818 537 816 533 810 533 c 1
915 700 m 0x030c20
 915 685 910 676 887 676 c 0
 855 676 859 696 847 702 c 0
 842 705 838 710 838 714 c 0
 838 720 802 745 795 745 c 0
 794 745 777 754 777 763 c 0
 777 774 792 776 807 776 c 0
 828 776 854 773 861 771 c 0
 878 767 889 770 902 755 c 0
 907 749 908 742 909 742 c 0
 910 742 911 741 911 740 c 0
 911 728 915 713 915 700 c 0x030c20
EndSplineSet
Validated: 1
EndChar

StartChar: uni3053
Encoding: 12371 12371 22
Width: 1000
Flags: W
HStem: 69 70<355.005 452.122> 584 63<407.389 486.899>
VStem: 270 26<198.94 232.028>
LayerCount: 2
Fore
SplineSet
299 116 m 0
 299 127 270 140 270 195 c 0
 270 216 274 233 288 233 c 0
 294 233 296 232 296 225 c 0
 296 203 332 179 332 179 c 1
 336 179 331 173 355 161 c 0
 372 153 394 138 415 138 c 0
 423 138 430 139 430 139 c 2
 432 139 434 139 436 139 c 0
 588 139 637 178 671 178 c 0
 676 178 681 177 698 175 c 0
 730 172 730 137 730 123 c 0
 730 109 729 94 697 76 c 1
 682 71 l 2
 669 66 553 44 511 44 c 0
 475 44 435 49 391 53 c 0
 376 55 360 69 354 69 c 0
 352 69 344 74 344 75 c 0
 344 84 299 100 299 116 c 0
590 680 m 0
 621 680 639 653 639 652 c 0
 639 650 646 643 646 641 c 2
 646 631 l 2
 646 626 645 619 642 616 c 0
 565 551 496 542 479 542 c 0
 470 542 463 545 463 552 c 0
 463 561 487 564 487 574 c 0
 487 576 483 584 473 584 c 0
 467 584 459 581 446 581 c 0
 442 581 415 583 407 585 c 1
 382 604 l 1
 369 608 364 621 350 628 c 0
 344 630 331 638 331 649 c 0
 331 650 330 650 330 651 c 0
 330 656 331 663 343 664 c 2
 356 665 l 1
 376 662 412 647 449 647 c 2
 454 647 l 1
 460 646 466 647 471 647 c 0
 497 647 513 655 545 672 c 1
 557 673 572 680 590 680 c 0
EndSplineSet
Validated: 1
EndChar

StartChar: uni3054
Encoding: 12372 12372 23
Width: 1000
Flags: W
HStem: 29 96<354.99 627.025> 42 84<340.032 408> 438 106<730.245 773.601> 444 38<368 388.781> 555 55<743.581 801.182> 590 64<364.395 449.244> 617 48<342.642 413.878>
VStem: 241 49<185.01 294.998> 242 61<155.909 173.999 295.017 342.749> 368 30<463.481 482> 705 97<450.17 505.201> 830 53<488.207 502>
LayerCount: 2
Fore
SplineSet
672 42 m 0x4170
 623 29 584 25 551 25 c 0
 518 25 475 30 464 30 c 0
 455 30 450 29 443 29 c 0x8170
 436 29 427 31 408 38 c 1
 395 42 l 1
 389 42 396 44 375 46 c 0
 346 48 342 64 327 67 c 0
 320 68 317 75 309 79 c 0
 294 86 265 120 262 126 c 0
 253 142 245 170 245 170 c 2
 245 172 244 174 243 174 c 0
 242 174 241 181 241 205 c 1x4170
 242 219 l 1
 242 219 244 331 275 359 c 0
 281 364 278 365 283 365 c 2
 287 365 l 2
 297 365 303 364 303 331 c 0x40f0
 303 318 301 295 295 295 c 1
 295 295 294 292 294 289 c 2
 291 218 l 2
 291 216 290 215 290 213 c 0
 290 199 299 185 299 185 c 2
 300 185 305 176 305 173 c 0
 305 163 345 144 366 138 c 2
 398 129 l 2
 400 128 413 126 417 126 c 0x4170
 422 126 417 125 460 125 c 2
 499 125 l 2x8170
 600 125 565 141 630 141 c 0
 674 141 714 127 724 118 c 0
 727 116 729 114 730 114 c 0
 735 114 740 102 740 91 c 0
 740 67 713 60 712 58 c 1
 712 54 694 53 694 51 c 1
 694 51 693 50 692 50 c 0
 691 50 675 42 672 42 c 0x4170
663 538 m 0
 663 551 674 555 684 555 c 0
 702 555 725 544 725 544 c 1
 766 535 767 532 782 511 c 0
 797 490 802 473 802 462 c 0
 802 452 799 446 799 445 c 0
 799 440 786 438 771 438 c 0x2870
 754 438 735 441 730 447 c 2
 730 447 705 472 705 482 c 0x1070
 705 489 663 516 663 538 c 0
866 485 m 0
 849 485 834 500 830 501 c 0
 830 502 829 502 828 502 c 2
 828 502 816 520 809 526 c 0
 795 536 792 555 780 555 c 1
 780 555 741 566 741 581 c 0
 741 590 760 610 784 610 c 0x0870
 797 610 807 606 814 606 c 0
 822 606 845 599 864 590 c 0x0470
 866 589 900 564 900 533 c 0
 900 509 883 491 883 488 c 0
 883 487 874 485 866 485 c 0
359 444 m 0x1470
 353 444 351 455 351 457 c 0
 351 461 354 464 354 466 c 0
 354 467 368 480 368 482 c 1
 370 482 374 491 378 492 c 0
 388 495 420 540 420 540 c 1
 436 552 437 554 440 567 c 0
 441 572 450 580 450 585 c 0
 450 588 447 590 434 590 c 0x1470
 409 590 430 595 396 598 c 0
 366 601 364 617 356 617 c 1
 356 617 319 643 319 665 c 0
 319 672 318 675 318 683 c 0
 318 697 332 697 333 697 c 0
 335 697 346 679 360 674 c 0
 369 671 375 665 382 665 c 0x0270
 403 665 418 654 439 654 c 0
 466 654 497 670 497 670 c 2
 512 675 504 670 524 677 c 2
 538 682 l 1
 546 687 554 688 563 688 c 0
 588 688 614 675 614 675 c 2
 618 675 636 660 649 647 c 0
 652 644 652 639 652 634 c 2
 652 629 l 2
 652 625 652 621 651 621 c 0
 649 621 645 606 644 606 c 0
 643 606 642 606 642 605 c 0
 642 602 626 588 601 586 c 0
 551 581 589 580 539 575 c 0
 510 572 513 573 503 563 c 0
 503 562 475 545 475 539 c 0
 475 531 444 519 441 516 c 0
 420 495 398 479 398 476 c 0
 398 466 371 444 359 444 c 0x1470
EndSplineSet
Validated: 1
EndChar

StartChar: uni3055
Encoding: 12373 12373 24
Width: 1000
Flags: W
HStem: 28 71<496.137 581.88> 285 29<411.096 531.715> 480 61<308.856 498.102> 624.472 36.5283<483.932 603.368>
VStem: 298 60<144.632 240.893> 682 69<291.732 347.741>
LayerCount: 2
Back
SplineSet
712 386 m 0x0130
 712 383 733 351 733 341 c 1
 737 333 751 315 751 286 c 0
 751 284 754 283 754 265 c 0
 754 248 751 250 751 247 c 0
 751 244 743 234 743 231 c 0
 743 228 739 217 729 212 c 0
 718 207 708 185 688 185 c 0
 662 185 632 207 627 215 c 0
 624 219 606 231 592 238 c 0
 590 240 549 272 528 272 c 0x1128
 516 272 519 285 466 285 c 0
 427 285 400 275 363 223 c 0
 359 217 358 208 358 201 c 0
 358 195 359 191 359 191 c 1
 361 173 l 1
 368 149 379 150 397 134 c 0
 399 132 406 127 407 127 c 0
 410 127 412 120 425 120 c 0x28a8
 437 120 443 114 457 114 c 0x80a8
 475 114 477 111 495 109 c 2
 527 105 l 2
 532 105 538 104 540 104 c 2
 550 99 l 1
 591 83 592 56 592 54 c 0
 592 38 567 28 560 28 c 2
 545 28 l 2x40a8
 524 28 519 25 495 25 c 0x80a8
 450 25 432 39 432 39 c 2
 430 39 417 47 414 47 c 2
 385 54 l 1
 381 56 372 64 372 65 c 0
 331 87 298 148 298 173 c 0x20a8
 298 194 312 211 312 225 c 0
 312 235 323 242 327 252 c 0
 341 283 416 312 434 312 c 0
 445 312 439 314 482 314 c 0x2860
 519 314 516 310 519 310 c 2
 519 310 600 291 646 291 c 0
 671 291 682 295 682 318 c 0x1068
 682 338 672 357 672 365 c 1
 650 408 l 1
 633 438 584 473 584 473 c 2
 584 474 581 476 578 476 c 0
 575 476 555 492 527 492 c 0x1230
 525 492 523 492 520 491 c 2
 491 488 l 1
 456 483 432 480 404 480 c 0
 308 480 246 538 246 573 c 0
 246 580 248 587 255 587 c 0
 282 586 291 562 317 555 c 0
 356 544 409 541 420 541 c 0x0430
 443 541 444 542 445 543 c 0
 447 545 478 556 478 572 c 0
 478 598 411 639 408 643 c 0
 402 653 401 658 401 662 c 2
 401 664 l 2
 401 689 413 689 413 690 c 0
 413 691 439 695 439 695 c 1
 483 695 476 665 546 660 c 0
 558 659 581 652 602 652 c 0
 625 652 629 661 641 661 c 0
 656 661 668 647 671 641 c 1
 693 615 694 616 694 607 c 0
 694 603 693 600 692 593 c 0
 688 578 640 541 629 541 c 0
 613 541 610 526 610 526 c 2
 610 525 609 524 609 521 c 0
 609 510 616 504 616 502 c 0
 616 490 667 455 667 445 c 0
 667 444 692 415 692 413 c 0
 692 407 712 389 712 386 c 0x0130
504 603 m 0
 507 596 521 579 530 579 c 0x0220
 533 579 538 580 543 584 c 0
 549 588 565 589 565 602 c 0
 565 609 555 625 539 627 c 0
 521 630 505 635 495 635 c 0
 490 635 486 633 486 627 c 0
 486 618 500 612 500 608 c 0
 500 607 503 603 504 603 c 0
EndSplineSet
Fore
SplineSet
407 127 m 16
 471.5 104.5 497.06 119.66 550 99 c 0
 591 83 592 56 592 54 c 0
 592 38 567 28 560 28 c 2
 560 28 519 25 495 25 c 0
 450 25 372 64 372 65 c 0
 331 87 298 148 298 173 c 8
 298 263.407 391.593 314 482 314 c 16
 519 314 516 310 519 310 c 2
 519 310 600 291 646 291 c 0
 671 291 682.39 295.003 682 318 c 0
 681 377 640.185 410.91 602 463 c 0
 587.548 482.715 574.072 496.543 559.826 509.439 c 1
 539.257 501.73 518 495.32 491 488 c 0
 458.114 479.084 432 480 404 480 c 0
 308 480 246 538 246 573 c 0
 246 580 248 587 255 587 c 0
 282 586 290.789 562.308 317 555 c 0
 356.05 544.113 409 541 420 541 c 0
 430.605 541 461.511 547.218 499.536 562.815 c 1
 465.559 594.566 438.243 621.005 408 643 c 0
 393.092 653.842 400 677 413 690 c 0
 420.301 697.301 439 695 439 695 c 1
 483 695 476 665 546 660 c 0
 582.958 657.36 603.95 660.61 641 661 c 0
 656 661 661.917 651.734 671 641 c 0
 693 615 698 610.25 692 593 c 0
 686.9 578.338 657.237 555.751 629 541 c 0
 616.42 534.428 605.043 528.794 594.208 523.81 c 1
 617.809 501.442 641.401 476.797 667 445 c 0
 710.98 390.372 751 315 751 286 c 0
 751 239.575 734.425 185 688 185 c 0
 662 185 647.347 198.004 627 215 c 0
 584.5 250.5 519 285 466 285 c 8
 412.64 285 358 246 358 201 c 0
 358 166.386 374.318 138.4 407 127 c 16
603.368 624.472 m 1
 583.465 624.544 564.253 624.874 539 627 c 0
 510.184 629.427 494.47 634.93 466 640 c 1
 490.401 616.327 512.45 596.741 533.313 578.425 c 1
 556.378 590.335 580.512 605.496 603.368 624.472 c 1
EndSplineSet
EndChar

StartChar: uni3056
Encoding: 12374 12374 25
Width: 1000
Flags: W
HStem: 28 71<496.137 581.88> 285 29<411.096 531.715> 480 61<308.856 498.102> 608 130<707 801> 624.472 36.5283<483.932 603.368>
VStem: 298 60<144.632 240.893> 682 69<291.732 347.741> 683 154<649 725> 765 72<610.56 667.81> 777 154<711 786> 859 72<670.805 727.689>
LayerCount: 2
Back
SplineSet
603 523 m 0x954a
 603 515 646 453 646 447 c 0
 646 445 647 444 648 444 c 0
 649 444 653 433 657 426 c 0
 660 421 665 417 665 415 c 0
 665 413 676 403 676 396 c 0
 676 395 677 396 690 358 c 1
 690 350 699 347 699 343 c 1
 707 320 l 2
 707 318 710 313 711 313 c 2
 711 313 717 307 717 297 c 0
 717 290 715 282 708 272 c 0
 707 272 703 258 699 247 c 0
 699 246 694 237 694 235 c 0
 694 232 689 216 678 209 c 0
 665 200 640 198 640 198 c 1
 634 198 633 195 631 195 c 2
 631 195 624 191 617 191 c 0
 603 191 592 216 592 218 c 0
 592 227 543 252 540 252 c 0xd54a
 538 252 525 262 521 262 c 0
 518 262 510 272 508 272 c 0
 504 272 507 277 438 277 c 0
 395 277 384 273 376 269 c 2
 363 263 l 2
 358 261 348 245 348 245 c 1
 348 243 341 236 341 234 c 0
 341 232 325 221 325 205 c 0
 325 164 341 149 341 145 c 0
 341 144 365 116 370 115 c 2
 370 115 416 94 477 94 c 0
 493 94 497 96 527 96 c 0
 562 96 582 79 582 79 c 1
 590 72 l 2
 597 66 599 62 599 59 c 0
 599 54 595 51 595 48 c 0
 595 33 544 8 502 8 c 0
 405 8 425 17 405 17 c 0
 391 17 319 40 298 64 c 0
 278 87 277 92 277 98 c 0
 277 118 263 123 263 162 c 0
 263 241 316 272 323 279 c 2
 335 291 l 1
 356 306 425 317 471 317 c 0xa056
 519 317 574 303 590 303 c 0
 602 303 606 300 609 300 c 1
 609 300 637 315 637 336 c 0
 637 350 626 364 626 369 c 1
 626 369 612 383 612 397 c 0
 612 401 612 402 611 402 c 0
 609 402 602 428 592 444 c 0
 585 455 571 467 571 470 c 0
 571 472 565 475 566 477 c 1
 565 477 562 480 558 484 c 2
 543 500 l 1
 541 504 535 506 528 506 c 0
 512 506 441 487 427 487 c 0
 421 487 427 484 411 484 c 0
 405 484 400 485 400 485 c 1
 400 488 400 488 396 488 c 2
 388 488 l 2xd056
 363 488 351 499 345 499 c 0
 343 499 338 506 336 506 c 0
 333 506 309 515 301 523 c 0
 295 528 295 529 294 529 c 2
 290 529 l 2
 285 529 278 533 278 536 c 0
 278 537 268 543 268 548 c 0
 268 549 268 550 267 550 c 0
 266 550 262 564 262 576 c 0
 262 585 265 591 274 591 c 0x8862
 279 591 285 590 291 589 c 0
 293 589 309 574 309 572 c 0
 309 567 340 561 341 560 c 0
 346 552 366 549 385 549 c 0
 413 549 417 555 420 555 c 0
 422 555 423 554 427 554 c 0
 433 554 451 558 457 558 c 0
 470 558 481 564 481 574 c 0
 481 579 479 586 478 586 c 2
 478 586 477 587 477 589 c 0x9066
 477 597 456 612 456 615 c 0
 456 616 452 620 450 620 c 0
 446 620 447 630 431 641 c 0
 426 645 417 653 417 655 c 0
 417 661 403 666 403 679 c 0
 403 681 405 686 406 691 c 17
 414 691 399 723 455 723 c 0
 503 723 496 697 526 683 c 0
 533 680 530 685 545 677 c 2
 563 667 l 2
 572 663 573 659 580 658 c 0
 582 657 584 657 584 656 c 0
 584 647 662 645 668 640 c 0
 670 638 672 637 673 637 c 0
 675 637 676 629 684 625 c 0
 695 619 697 611 697 603 c 0
 697 580 678 571 678 571 c 1
 676 571 676 570 676 570 c 2
 676 569 644 555 644 552 c 0
 644 551 624 543 624 543 c 1
 620 543 605 533 605 531 c 0
 605 530 603 526 603 523 c 0x954a
550 595 m 0
 559 595 561 600 564 600 c 0
 566 600 566 601 566 602 c 0
 566 608 547 628 538 628 c 0
 536 628 537 633 529 636 c 0
 519 641 518 645 513 645 c 0
 511 645 509 643 509 640 c 0x814a
 509 636 511 631 517 622 c 0
 519 619 518 610 527 605 c 0
 537 599 539 597 539 596 c 2x8146
 539 596 545 595 550 595 c 0
843 656 m 0
 843 619 836 620 836 617 c 0
 836 612 820 607 804 607 c 0x8242
 757 607 756 651 738 665 c 0
 737 666 710 680 710 692 c 1
 710 692 709 693 708 693 c 2
 708 693 704 701 704 708 c 0
 704 709 704 710 704 711 c 0
 704 712 705 716 705 716 c 1x80c2
 707 716 707 725 728 725 c 0
 741 725 755 721 767 720 c 0x8242
 793 718 840 671 842 664 c 0
 843 662 843 659 843 656 c 0
808 781 m 0
 808 792 828 793 833 793 c 0
 848 793 860 788 878 780 c 0
 918 764 929 749 929 726 c 0
 929 721 928 716 926 712 c 0
 921 700 927 689 907 685 c 0
 895 683 895 682 894 682 c 2
 894 682 893 683 889 683 c 1
 889 683 869 697 863 711 c 0
 861 715 851 722 849 725 c 0
 846 730 834 743 832 743 c 0
 831 743 808 767 808 781 c 0
EndSplineSet
Fore
Refer: 90 12441 S 1 0 0 1 991 31 2
Refer: 24 12373 N 1 0 0 1 0 0 2
EndChar

StartChar: uni3057
Encoding: 12375 12375 26
Width: 1000
Flags: W
HStem: -8 75<369.905 555.74>
VStem: 243 73<124.143 432.299>
LayerCount: 2
Back
SplineSet
230.23 281.362 m 4xc2
 230.23 322.282 232.09 281.362 239.53 386.452 c 4
 240.46 396.682 242.32 391.102 244.18 402.262 c 6
 251.62 451.552 l 5
 255.34 463.642 256.27 479.452 256.27 498.052 c 4x92
 256.27 510.142 263.71 544.552 266.5 574.312 c 4
 269.29 596.632 267.43 622.672 269.29 634.762 c 4
 270.22 637.552 271.15 644.992 271.15 646.852 c 6x86
 271.15 646.852 273.01 653.362 273.01 661.732 c 4
 273.01 682.192 263.71 682.192 263.71 686.842 c 4
 263.71 691.492 244.18 706.372 244.18 711.021 c 4
 244.18 713.812 238.6 715.672 238.6 719.392 c 4
 238.6 721.252 241.39 741.712 255.34 741.712 c 4
 259.06 741.712 263.71 740.782 263.71 740.782 c 6
 271.15 740.782 275.8 741.712 280.45 741.712 c 4
 305.56 741.712 350.2 698.002 350.2 683.122 c 4x8a
 350.2 676.612 345.55 671.032 345.55 662.662 c 4x86
 345.55 644.062 338.11 635.692 334.39 618.021 c 4
 328.81 589.192 326.02 543.622 324.16 543.622 c 4
 323.23 543.622 318.58 518.512 318.58 517.582 c 4x92
 318.58 508.282 305.56 455.272 305.56 428.302 c 5
 304.63 428.302 301.84 415.282 301.84 413.422 c 4
 301.84 398.542 297.19 415.282 297.19 363.202 c 4
 297.19 319.492 290.68 280.432 290.68 246.952 c 4xc2
 290.68 226.492 293.47 211.612 293.47 193.942 c 4
 293.47 192.082 299.98 153.022 304.63 133.492 c 4
 306.49 127.912 322.3 104.662 322.3 100.012 c 4
 322.3 98.1523 330.67 89.7822 333.46 89.7822 c 4
 340.9 89.7822 362.29 62.8115 440.41 62.8115 c 4
 483.19 62.8115 518.53 79.5518 539.92 81.4121 c 4
 548.29 82.3418 601.3 119.542 624.55 128.842 c 4
 629.2 130.702 648.73 149.302 653.38 149.302 c 5
 653.38 149.302 677.56 166.042 677.56 166.972 c 4
 677.56 167.902 691.51 177.202 692.44 177.202 c 4
 693.37 177.202 698.95 185.572 711.04 195.802 c 4
 717.55 201.382 725.92 206.962 727.78 209.752 c 4
 730.57 215.332 741.73 236.722 760.33 236.722 c 4
 767.77 236.722 769.63 230.212 769.63 222.772 c 4
 769.63 184.642 729.64 158.602 718.48 149.302 c 4
 706.39 139.072 681.28 88.8516 610.6 49.792 c 4
 605.02 47.002 602.23 42.3516 591.07 39.5615 c 4
 590.14 39.5615 569.68 32.1221 569.68 31.1924 c 4
 569.68 26.542 485.05 5.15234 471.1 0.501953 c 4
 459.01 -3.21777 441.34 -6.00781 421.81 -6.00781 c 4
 379.96 -6.00781 329.74 4.22168 298.12 26.542 c 4
 279.52 40.4922 243.25 125.122 243.25 126.982 c 4xa2
 243.25 128.842 241.39 139.072 240.46 139.072 c 4
 233.95 139.072 230.23 225.562 230.23 281.362 c 4xc2
EndSplineSet
Fore
SplineSet
329 419 m 0
 319 344 316 287 316 229 c 0
 316 192 325 140 347 108 c 0
 355 97 388 67 460 67 c 0
 577 67 705 165 747 213 c 0
 762 231 772 237 780 237 c 0
 787 237 790 230 790 223 c 0
 790 197 714 99 590 28 c 0
 553 7 490 -8 424 -8 c 0
 297 -8 243 103 243 231 c 0
 243 277 246 342 267 445 c 0
 277 491 285 624 289 662 c 0
 285 695 253 709 253 725 c 0
 253 733 264 743 285 743 c 0
 322 743 375 698 375 683 c 0
 375 661 343 523 329 419 c 0
EndSplineSet
EndChar

StartChar: uni3058
Encoding: 12376 12376 27
Width: 1000
Flags: W
HStem: -8 75<369.905 555.74> 466 130<489 583>
VStem: 243 73<124.143 432.299> 465 154<507 583> 547 72<468.56 525.81> 559 154<569 644> 641 72<528.805 585.689>
LayerCount: 2
Back
SplineSet
600 496 m 4x10
 600 465 574 459 557 459 c 4
 531 459 527 477 524 484 c 4
 521 489 487 535 487 535 c 6
 487 536 486 537 486 537 c 6
 485 537 478 562 478 563 c 6
 478 568 l 6
 478 577 479 586 498 586 c 4
 515 586 530 572 537 572 c 4
 548 572 552 563 557 563 c 4
 561 563 572 555 572 552 c 4
 572 551 578 543 579 543 c 4
 580 543 582 538 582 537 c 4
 582 535 600 523 600 496 c 4x10
551 623 m 4
 551 636 565 646 570 646 c 4
 603 646 645 628 649 626 c 6
 661 621 l 5
 676 616 672 613 678 605 c 4
 680 603 683 594 683 591 c 6
 683 552 l 6
 683 549 676 534 676 534 c 5
 676 534 659 524 647 524 c 4
 632 524 551 606 551 623 c 4
679 105 m 5
 657 81 619 49 618 49 c 4x38
 616 49 587 23 585 23 c 4x58
 526 -8 496 -11 430 -11 c 4
 381 -11 324 -4 280 41 c 4
 272 49 269 62 252 93 c 4
 237 121 233 161 233 193 c 4x98
 233 221 236 243 236 243 c 5
 236 299 248 331 248 353 c 4x94
 248 367 259 394 259 440 c 4x92
 259 444 264 459 264 472 c 5
 264 472 273 528 274 529 c 5
 278 529 282 586 285 589 c 4
 288 592 288 616 288 633 c 4
 288 690 266 678 266 698 c 5
 257 716 l 6
 256 716 256 718 256 721 c 4
 256 731 260 733 266 733 c 4
 275 733 288 725 294 723 c 4
 310 719 312 705 322 705 c 4
 332 705 344 682 349 682 c 5
 353 681 369 658 369 623 c 4x91
 369 590 362 546 362 544 c 6
 347 507 l 5
 347 507 339 481 339 480 c 4x92
 339 471 322 434 321 372 c 4x94
 321 362 297 209 297 191 c 4
 297 184 298 180 298 171 c 4
 298 109 303 120 307 108 c 5
 314 97 l 5
 317 97 341 60 431 60 c 4x98
 474 60 508 67 508 67 c 5x58
 520 71 599 103 599 105 c 5
 615 116 l 5x38
 615 116 641 138 644 138 c 4
 645 138 646 139 646 140 c 4
 646 143 690 176 696 187 c 4
 700 194 711 202 720 213 c 6
 730 224 l 6
 735 230 749 249 761 249 c 4
 765 249 767 245 767 240 c 4
 767 230 761 216 759 210 c 4
 759 209 754 202 754 200 c 5
 754 200 732 157 716 143 c 4
 707 134 693 115 691 115 c 4
 689 115 681 105 679 105 c 5
EndSplineSet
Fore
Refer: 90 12441 S 1 0 0 1 773 -111 2
Refer: 26 12375 N 1 0 0 1 0 0 2
EndChar

StartChar: uni3059
Encoding: 12377 12377 28
Width: 1000
Flags: W
HStem: -76 43<369.375 441.581> 138 114<449.727 508.97> 417 63<436.672 502.97> 484 85<164.417 315.599> 527 71<347.001 423.869> 563 87<796.003 835.86> 563 52<454.648 513.662> 578 87<649.653 795.951>
VStem: 383 38<286.64 409.979> 513 120<252.117 348.756> 518 46<480.422 558.954> 526 60<647.445 668> 550 57<113 142.719> 551 72<128.143 157.905>
LayerCount: 2
Fore
SplineSet
564 494 m 0xe2a0
 564 392 583 409 602 368 c 1
 608 368 633 278 633 272 c 0
 633 267 639 232 639 221 c 2
 639 208 l 2
 639 203 633 197 633 197 c 1xe2c0
 630 197 628 162 626 162 c 0
 625 162 623 158 623 156 c 0xe284
 623 137 607 119 607 113 c 1xe288
 605 113 594 70 577 47 c 0
 557 19 517 -17 517 -17 c 1
 515 -17 499 -27 499 -29 c 0
 499 -31 469 -58 446 -66 c 0
 426 -72 399 -76 381 -76 c 0
 371 -76 364 -75 364 -72 c 0
 366 -39 391 -48 411 -33 c 0
 418 -28 435 -21 439 -15 c 0
 450 -1 507 26 526 65 c 0xe290
 527 67 550 102 550 128 c 0xe288
 550 131 551 137 551 143 c 0xe284
 551 150 549 158 540 158 c 0
 528 158 511 138 493 138 c 0
 490 138 487 139 484 140 c 0
 446 158 435 142 412 220 c 0
 409 229 403 226 401 251 c 0
 398 286 388 286 388 309 c 1
 388 309 383 334 383 354 c 0
 383 373 389 370 389 377 c 0
 389 381 398 410 398 410 c 1
 398 414 409 427 409 429 c 0
 409 431 417 442 418 444 c 0
 430 464 504 480 515 480 c 0
 517 480 518 484 518 490 c 0
 518 495 517 502 517 506 c 0
 517 516 519 509 519 524 c 0
 519 558 518 558 516 559 c 0
 502 563 493 563 486 563 c 0xe2a0
 470 563 468 556 454 556 c 0
 439 556 428 549 425 549 c 0
 424 549 423 548 423 547 c 0
 423 543 393 527 384 527 c 0xe8a0
 383 527 349 517 349 517 c 2
 348 517 347 517 347 516 c 0
 347 514 333 511 324 509 c 0
 312 507 307 496 287 495 c 0
 247 492 229 484 213 484 c 0
 187 484 132 526 132 543 c 0
 132 550 136 557 136 562 c 0
 136 565 142 577 162 577 c 0
 180 577 190 569 209 569 c 0xf0a0
 221 569 298 577 319 586 c 0
 324 588 350 598 353 598 c 0xe8a0
 355 598 362 601 363 601 c 2
 363 601 462 611 474 615 c 1xe2a0
 486 615 507 625 514 627 c 1
 518 627 526 627 526 663 c 0
 526 717 507 728 486 752 c 2
 474 766 l 2
 473 767 471 769 471 775 c 0
 471 792 479 802 504 802 c 0
 513 802 523 801 537 798 c 0
 542 796 568 777 575 762 c 1
 581 751 l 2
 582 750 582 748 582 747 c 0
 582 741 593 730 593 727 c 0
 593 725 612 701 628 697 c 0
 649 691 674 665 729 665 c 0xe190
 741 665 739 661 766 659 c 0
 803 657 776 652 822 650 c 0xe490
 831 649 833 643 836 643 c 0
 837 643 838 642 838 642 c 2
 838 641 854 635 854 629 c 0
 854 626 861 616 861 615 c 0xe290
 861 613 868 611 868 602 c 0
 868 597 865 590 856 580 c 0
 842 565 805 563 805 563 c 1xe490
 800 563 796 563 796 564 c 0
 796 566 729 573 729 573 c 1
 705 573 727 576 698 576 c 0
 656 576 653 574 645 574 c 0
 636 574 626 578 613 578 c 0xe190
 594 578 583 571 578 571 c 0
 577 571 570 564 570 563 c 0
 570 559 565 556 565 551 c 0
 564 529 564 510 564 494 c 0xe2a0
586 668 m 1xe090
 586 649 l 2
 586 647 587 647 589 647 c 0
 593 647 600 651 601 653 c 0
 601 655 587 668 586 668 c 1xe090
514 371 m 0
 514 391 503 392 503 396 c 0
 503 399 462 417 446 417 c 0
 438 417 423 391 423 378 c 0
 423 372 421 366 421 357 c 0
 421 302 451 271 451 269 c 1
 451 269 468 252 490 252 c 0
 498 252 513 270 513 294 c 1
 511 307 l 2
 510 310 510 311 510 313 c 0
 510 322 515 321 515 338 c 0
 515 351 513 352 513 362 c 0xe0c0
 513 365 514 368 514 371 c 0
EndSplineSet
Validated: 1
EndChar

StartChar: uni305A
Encoding: 12378 12378 29
Width: 1000
Flags: W
HStem: -53 25<371.278 421.154> 324 82<787.108 818.988> 344 44<811.599 823> 381 64<418.105 489.598> 397 48<421.175 478.983> 438 37<830.003 845.372> 467 58<135.87 190.266> 526 48<403.089 490.958> 540 74<666.857 763.986> 543 48<561 604.971> 720 64<447.379 497.107>
VStem: 378 35<299.762 394.833> 382 52<265.014 295.999> 491 55<-0.438477 47.7144 444.523 525.723> 501 75<665.824 714.738> 505 122<216.797 336.67> 505 114<246.473 348.11> 507 55<16.9835 74.7662> 720 80<397.422 425.032> 747 76<344 386.99> 857 53<352.79 369.718>
LayerCount: 2
Fore
SplineSet
720 428 m 0xa82028
 720 434 722 441 731 441 c 0
 754 441 800 415 800 408 c 0
 800 407 800 406 801 406 c 0xc02028
 802 406 819 388 819 388 c 1
 823 388 823 379 823 371 c 2
 823 362 l 2
 823 352 822 344 822 344 c 2xa02018
 821 344 818 324 814 324 c 0xc02018
 811 324 810 314 786 314 c 0
 758 314 747 339 747 344 c 0xa02018
 747 373 736 387 736 387 c 2
 736 389 733 394 733 397 c 1
 733 397 720 413 720 428 c 0xa82028
923 370 m 1
 923 364 910 357 910 355 c 0
 910 354 899 351 888 351 c 0
 867 351 857 377 857 382 c 1
 855 385 843 438 835 438 c 0
 834 438 830 449 830 452 c 0
 830 454 825 459 825 463 c 0
 825 473 850 475 853 475 c 0xc42008
 862 475 886 461 886 461 c 1
 902 446 l 1
 904 446 926 416 926 406 c 1
 926 406 928 397 928 387 c 0
 928 375 923 370 923 370 c 1
561 541 m 2
 561 540 545 534 545 522 c 0
 545 519 546 516 546 516 c 1x806418
 544 459 542 444 542 430 c 2
 542 422 l 1
 581 371 619 322 619 313 c 2x806088
 619 313 627 264 627 219 c 0x806108
 627 188 618 146 615 146 c 1
 615 146 614 142 614 137 c 1
 614 137 611 116 603 114 c 0
 599 112 595 86 585 76 c 0
 582 73 580 70 580 69 c 0
 580 67 562 50 562 48 c 0
 562 45 560 45 560 41 c 0
 560 37 549 27 549 25 c 0
 549 19 529 1 528 -2 c 0
 526 -8 485 -62 423 -62 c 0
 383 -62 383 -53 379 -53 c 0
 375 -53 371 -50 371 -44 c 0
 371 -34 376 -28 388 -28 c 0
 411 -28 476 0 476 4 c 0
 476 7 493 25 493 28 c 0
 493 30 507 42 507 48 c 1
 520 80 521 80 521 80 c 2
 521 82 535 108 535 129 c 0
 535 146 531 147 529 147 c 2
 529 147 510 138 506 138 c 0
 505 138 497 133 488 133 c 0
 476 133 475 140 469 140 c 0
 467 140 462 147 460 147 c 0
 450 147 402 227 402 230 c 0
 402 238 392 260 390 267 c 2
 385 286 l 2
 383 292 382 299 382 301 c 2x806848
 382 301 378 325 378 340 c 0
 378 400 392 392 392 398 c 0
 392 406 437 445 478 445 c 0
 482 445 484 444 487 444 c 1
 489 455 491 476 491 497 c 2
 491 499 l 2
 491 516 491 526 481 526 c 0
 473 526 441 520 436 516 c 0
 425 506 406 510 398 502 c 0
 376 481 373 493 332 479 c 0
 297 466 296 470 272 459 c 0
 261 454 257 448 253 448 c 0
 220 440 217 439 214 439 c 0
 188 439 162 467 157 467 c 1
 151 477 134 475 134 501 c 0
 134 519 138 524 144 525 c 0
 201 535 280 529 290 537 c 0
 304 548 473 567 473 572 c 0
 473 573 474 574 475 574 c 0x933408
 478 574 489 584 492 584 c 1
 492 584 493 586 493 587 c 2
 498 615 l 2
 499 615 499 620 499 632 c 2
 499 640 l 2
 499 644 499 646 498 646 c 1
 498 648 l 2
 498 652 501 665 501 679 c 0
 501 713 473 715 473 719 c 0
 473 720 472 720 471 720 c 0
 469 720 455 732 447 741 c 0
 446 742 447 745 447 745 c 2
 447 751 444 748 444 760 c 0
 444 780 479 784 479 784 c 1
 486 784 493 778 500 778 c 0
 510 778 546 748 547 748 c 0
 548 748 561 736 569 726 c 0
 571 723 569 718 569 718 c 1
 571 682 576 685 576 677 c 1
 576 677 595 666 596 666 c 0
 600 666 604 660 614 658 c 0
 631 656 636 641 662 637 c 0
 676 635 727 614 747 614 c 0
 753 614 758 615 758 615 c 1
 780 614 823 613 823 602 c 1
 839 590 844 577 844 566 c 0
 844 539 819 532 805 532 c 0
 799 532 794 533 787 533 c 0
 776 533 776 532 773 532 c 0
 769 532 764 535 764 535 c 1
 764 537 745 546 723 546 c 0
 699 546 669 540 656 540 c 0
 649 540 652 542 646 542 c 0
 640 542 633 540 629 540 c 0x80a218
 628 540 624 543 604 543 c 0x806218
 585 543 561 541 561 541 c 2
561 591 m 0
 565 591 605 598 605 603 c 0
 605 605 603 606 599 609 c 2
 583 622 l 2
 583 623 578 631 568 631 c 0
 566 631 565 630 562 629 c 1
 562 627 l 2x806048
 562 619 560 610 560 599 c 0
 560 592 560 591 561 591 c 0
450 397 m 2x882908
 442 397 l 2
 420 397 424 383 418 365 c 0
 416 356 413 352 413 343 c 0x883108
 413 329 423 320 423 311 c 0
 423 310 424 309 425 309 c 0
 427 309 430 296 433 296 c 1
 433 296 434 295 434 293 c 0
 434 284 447 265 450 265 c 1
 450 265 479 245 481 245 c 1
 481 245 505 249 505 283 c 0
 505 299 501 311 497 330 c 0
 493 350 492 381 480 381 c 9x902908
 458 396 456 397 450 397 c 2x882908
EndSplineSet
Validated: 1
EndChar

StartChar: uni305B
Encoding: 12379 12379 30
Width: 1000
Flags: W
HStem: -4 78<412.054 722.247> 201 103<520.261 568.108> 355 93<134.886 269.193> 468 94<704.405 851.434>
VStem: 306 59<187.914 388> 579 69<304.282 469 533 590>
LayerCount: 2
Back
SplineSet
729 72 m 4x8192
 729 39 716 17 604 17 c 4x8192
 566 17 536 22 508 22 c 4
 484 22 487 23 483 23 c 4
 445 23 381 75 378 75 c 4
 377 75 376 76 376 77 c 4
 376 80 366 82 356 112 c 5
 356 117 356 121 355 121 c 4
 352 121 334 210 334 222 c 4
 334 264 335 295 335 317 c 4
 335 351 332 368 311 368 c 4
 291 368 260 350 260 350 c 5
 254 350 225 330 216 330 c 4x4932
 206 330 200 333 190 333 c 4
 182 333 180 337 164 344 c 4x1132
 124 360 139 376 130 386 c 4
 128 388 127 389 127 390 c 6
 127 390 123 405 123 418 c 4
 123 436 137 442 137 442 c 5
 135 442 141 446 144 447 c 5
 154 447 191 413 232 413 c 4
 259 413 291 436 310 438 c 4
 327 440 333 455 333 488 c 4x0952
 333 503 331 515 331 515 c 5
 331 533 332 545 332 556 c 4
 332 578 331 587 325 596 c 4
 324 598 300 611 295 611 c 4
 279 614 272 618 272 639 c 4
 272 653 301 666 312 666 c 4
 331 666 354 649 363 644 c 4
 403 621 412 627 413 553 c 4x0992
 413 543 404 492 404 468 c 6
 404 466 l 6
 404 462 407 461 430 461 c 4
 453 461 481 463 481 463 c 5
 502 467 l 6
 528 471 590 485 601 493 c 5
 601 499 602 503 602 507 c 4
 602 515 601 518 601 522 c 4
 601 575 602 578 602 587 c 4
 602 595 600 608 600 614 c 4
 600 619 601 624 601 629 c 4
 601 664 556 639 556 677 c 4
 556 693 557 703 581 703 c 4
 588 703 594 705 601 705 c 4
 632 705 689 665 689 631 c 4x0556
 689 623 679 600 679 587 c 4
 679 579 684 582 684 578 c 4
 684 574 697 569 702 562 c 4
 706 556 726 542 729 535 c 4
 729 534 731 532 734 531 c 4
 744 524 740 519 761 517 c 4
 866 506 849 506 870 485 c 5
 872 485 877 478 877 467 c 4
 877 450 864 427 813 427 c 4
 758 427 796 441 703 441 c 4
 687 441 684 439 673 432 c 5
 671 426 671 419 671 419 c 5
 671 405 661 311 657 306 c 4
 656 306 655 302 655 299 c 4
 655 296 654 293 654 293 c 6
 653 293 652 291 652 288 c 4
 652 269 631 261 621 252 c 4
 617 248 613 245 612 245 c 4
 611 245 611 242 610 242 c 4
 609 242 596 230 594 230 c 4
 593 230 593 229 593 228 c 4
 593 225 582 214 568 214 c 4x231a
 565 214 527 225 527 257 c 4
 527 264 526 270 525 270 c 4
 524 270 520 288 509 291 c 4
 508 291 506 293 506 293 c 6
 506 294 506 295 505 295 c 4
 503 295 478 314 478 335 c 4
 478 350 483 354 489 354 c 4
 499 354 513 344 517 344 c 4x111a
 523 344 542 314 562 314 c 4
 571 314 583 320 583 351 c 5
 593 384 598 404 598 416 c 4
 598 426 594 429 586 429 c 4
 496 429 450 410 441 410 c 4
 438 410 414 398 408 395 c 4
 404 393 401 386 401 377 c 4
 401 329 396 286 396 265 c 4x253a
 396 256 404 174 404 172 c 4x2552
 404 168 409 167 409 162 c 4
 409 160 412 151 413 151 c 4
 415 151 420 143 420 140 c 4
 420 136 433 123 433 121 c 4
 433 120 434 120 435 120 c 6
 435 120 461 105 496 105 c 4x6592
 546 105 558 118 620 118 c 4
 666 118 729 111 729 72 c 4x8192
686 522 m 4
 690 522 693 522 693 526 c 4
 693 535 676 553 676 553 c 6
 675 553 675 547 675 539 c 6
 675 526 l 6
 675 522 683 522 686 522 c 4
EndSplineSet
Fore
SplineSet
579 520 m 1
 579 623 577 659 566 670 c 0
 551 685 533 693 533 706 c 0
 533 722 541 734 563 734 c 0
 586 734 614 725 624 717 c 0
 642 703 649 661 652 635 c 0
 655 607 736 565 745 562 c 0
 793 548 879 555 879 505 c 0
 879 471 839 468 822 468 c 0
 807 468 724 484 671 484 c 0
 661 484 649 483 642 482 c 1
 642 453 638 323 635 302 c 0
 630 269 620 244 610 228 c 0
 600 212 588 201 557 201 c 0
 519 201 482 279 441 320 c 0
 437 324 410 351 410 359 c 0
 410 363 413 366 417 366 c 0
 456 366 510 304 557 304 c 0
 578 304 577 452 578 469 c 1
 514 457 494 454 461 446 c 0
 441 440 413 432 365 412 c 1
 365 330 366 234 374 173 c 0
 385 89 412 74 456 74 c 0
 483 74 550 78 586 83 c 0
 613 87 690 94 715 94 c 0
 746 94 777 81 777 51 c 0
 777 0 634 -4 556 -4 c 0
 476 -4 459 5 414 17 c 0
 393 23 343 64 328 91 c 0
 306 130 306 230 306 262 c 0
 306 286 308 368 309 388 c 1
 248 373 220 355 190 355 c 0
 164 355 97 387 97 436 c 0
 97 458 105 464 121 464 c 0
 146 464 191 448 244 448 c 0
 267 448 293 452 312 464 c 1
 312 503 305 567 298 587 c 0
 292 605 247 624 247 644 c 0
 247 660 261 667 281 667 c 0
 322 667 379 636 379 598 c 0
 379 571 370 531 367 480 c 1
 440 490 508 503 579 520 c 1
648 590 m 1
 648 533 l 1
 660 535 684 539 693 544 c 1
 670 558 659 578 648 590 c 1
EndSplineSet
EndChar

StartChar: uni305C
Encoding: 12380 12380 31
Width: 1000
Flags: W
HStem: -4 78<412.054 722.247> 201 103<520.261 568.108> 252.5 130<711.5 805.5> 355 93<134.886 269.193> 468 94<704.405 851.434>
VStem: 306 59<187.914 388> 579 69<304.282 469 533 590> 687.5 154<293.5 369.5> 769.5 72<255.06 312.31> 781.5 154<355.5 430.5> 863.5 72<315.305 372.189>
LayerCount: 2
Back
SplineSet
818 298 m 4x103018
 818 271 810 253 780 253 c 4
 773 253 768 255 768 258 c 4x103018
 768 260 750 278 750 287 c 5
 750 287 739 311 739 312 c 4
 739 314 737 314 736 316 c 6
 730 329 l 6
 729 329 726 338 726 341 c 4
 726 344 720 360 720 363 c 4
 720 366 716 372 716 377 c 4
 716 387 726 389 731 389 c 4
 743 389 802 357 802 352 c 4x103028
 802 351 803 350 804 350 c 4
 807 350 818 326 818 298 c 4x103018
805 422 m 4
 805 429 807 432 833 432 c 4x023008
 846 432 886 416 886 414 c 4
 886 410 929 394 933 368 c 4
 935 354 938 342 938 331 c 4
 938 303 912 300 904 300 c 4
 885 300 871 315 871 318 c 4
 871 319 857 343 850 350 c 4x043008
 839 361 837 373 835 373 c 4x023008
 833 373 836 375 825 385 c 4
 822 389 806 402 805 422 c 4
872 521 m 4
 872 519 880 517 880 511 c 4x00b448
 880 508 879 505 879 505 c 5
 879 484 869 479 867 479 c 4
 866 479 865 478 865 478 c 5
 865 475 836 465 824 465 c 6
 822 465 l 5
 762 473 l 6
 744 476 746 478 738 478 c 6
 738 478 677 477 656 469 c 5
 651 459 l 5
 647 449 l 6
 645 446 645 437 645 426 c 6
 645 406 l 6x007088
 645 369 639 374 639 353 c 4
 639 340 642 331 642 320 c 4x007108
 642 317 641 315 641 311 c 6
 639 298 l 6
 638 289 635 290 635 288 c 4
 635 286 628 277 628 272 c 4
 628 267 622 262 622 260 c 4
 622 255 611 244 611 243 c 4
 611 242 610 241 610 241 c 5
 608 241 604 228 602 228 c 5
 602 228 600 218 594 217 c 4
 590 216 581 207 572 207 c 4x007048
 570 207 569 206 569 205 c 4x007088
 569 204 555 196 551 196 c 4
 527 196 501 243 501 243 c 5
 500 251 492 252 486 260 c 4
 476 274 483 286 471 286 c 4
 470 286 470 287 470 288 c 4
 470 289 441 318 441 320 c 4
 441 322 437 326 436 326 c 4
 432 326 412 351 412 361 c 4
 412 364 413 366 417 366 c 4
 454 365 477 336 503 324 c 4
 521 316 518 314 522 314 c 6
 522 314 537 310 548 310 c 4
 553 310 556 310 556 313 c 4
 556 314 559 314 559 316 c 4x087108
 559 319 566 339 566 346 c 4
 566 357 569 344 569 365 c 4
 569 388 571 397 571 404 c 4
 571 409 569 416 569 427 c 4x087088
 569 441 572 448 572 453 c 4
 572 461 565 464 555 464 c 6x08b048
 531 462 l 6
 481 457 458 437 431 436 c 5
 370 420 367 412 367 380 c 4
 367 377 367 374 367 371 c 4x013848
 367 346 368 303 369 230 c 5
 370 213 l 6
 370 202 374 215 374 194 c 4
 374 158 378 137 395 105 c 4
 403 89 409 82 434 81 c 4
 471 79 461 77 473 77 c 4x213208
 502 77 536 82 552 82 c 4x803208
 595 83 569 87 604 92 c 4
 614 93 639 98 666 98 c 4
 681 98 682 97 689 97 c 4
 696 97 705 98 715 98 c 4
 732 98 750 95 761 81 c 4
 768 72 777 63 777 51 c 4
 777 48 776 45 775 42 c 4
 762 13 735 14 710 7 c 4x403208
 677 -1 612 -7 553 -7 c 4x803208
 502 -7 457 -3 444 6 c 4
 442 7 414 14 411 14 c 4
 390 21 335 63 322 91 c 5
 322 91 306 133 306 147 c 4x203208
 306 168 300 289 300 319 c 4
 300 334 302 343 302 355 c 4
 302 362 302 369 300 378 c 5x203808
 293 378 l 6
 276 378 250 369 250 369 c 5
 241 369 224 350 195 350 c 4
 153 350 110 395 110 399 c 5
 110 399 98 416 98 437 c 4
 98 449 100 463 115 463 c 4
 117 463 210 448 241 448 c 4
 264 448 287 452 306 464 c 5x24b208
 306 478 l 6x007208
 306 540 301 546 292 592 c 4
 290 599 278 605 278 605 c 5
 275 605 263 622 253 625 c 4
 243 628 242 632 242 637 c 6
 242 642 l 6
 242 662 255 667 272 667 c 4
 301 667 343 649 347 647 c 4
 372 639 381 595 381 582 c 4
 381 566 372 532 369 481 c 5
 372 480 375 480 379 480 c 4x013408
 391 480 460 500 493 503 c 4
 516 505 510 513 520 513 c 4
 523 513 528 511 537 511 c 4x00b408
 558 511 571 521 571 521 c 6
 572 521 572 530 572 589 c 6
 572 610 l 6
 572 658 566 656 566 657 c 4
 566 664 550 683 549 683 c 6
 549 683 525 695 525 708 c 4
 525 718 536 731 577 731 c 4
 590 731 599 730 602 730 c 6
 607 730 l 6
 614 730 623 730 630 717 c 4
 637 704 642 712 651 660 c 4
 652 655 650 642 658 629 c 4
 660 626 663 623 663 621 c 4
 663 613 737 563 746 563 c 4x007448
 747 563 754 560 759 559 c 4
 795 552 847 544 851 542 c 4
 858 538 872 523 872 521 c 4
680 547 m 5
 677 567 666 566 666 566 c 5
 663 566 661 560 661 554 c 4
 661 552 662 549 662 547 c 5
 680 547 l 5
EndSplineSet
Fore
Refer: 90 12441 N 1 0 0 1 995.5 -324.5 2
Refer: 30 12379 N 1 0 0 1 0 0 2
EndChar

StartChar: uni305D
Encoding: 12381 12381 32
Width: 1000
Flags: W
HStem: -15 111<507.799 620.08> 243 59<333.824 385.758> 382 93<607.863 758.42> 431 31<363 389> 621 90<369.001 432.519> 689 48<483.009 517.475>
VStem: 233 74<302.001 333.604> 353 55<431.102 461.991> 379 43<167 236.435> 385 47<120.782 191.017> 513 85<622.58 659.999> 518 87<647.145 659.999 660.005 688.992>
LayerCount: 2
Fore
SplineSet
452 569 m 0xd3
 452 575 513 642 513 658 c 0xd320
 513 659 513 660 514 660 c 2
 514 660 518 667 518 674 c 0
 518 678 516 689 505 689 c 0xd610
 495 689 483 679 483 679 c 2
 482 679 475 671 473 671 c 1
 453 654 l 2
 448 650 438 648 426 638 c 0
 409 623 400 621 396 621 c 2
 393 621 l 2
 383 621 376 626 372 626 c 0
 370 626 369 627 369 627 c 1
 369 631 327 632 304 655 c 0
 303 656 293 674 293 690 c 0
 293 704 300 716 312 716 c 0
 326 716 320 708 356 708 c 0
 377 708 388 711 388 711 c 1xca10
 409 711 429 737 474 737 c 0
 495 737 516 733 516 733 c 1
 547 733 609 716 609 691 c 0
 609 680 605 671 605 663 c 0xc610
 605 659 598 650 598 647 c 0
 598 646 588 629 579 619 c 1
 579 619 550 593 549 593 c 2
 549 593 546 592 544 589 c 1
 534 581 l 2
 525 573 526 568 511 557 c 2
 501 549 l 2
 500 548 497 545 496 545 c 0
 494 545 474 527 471 522 c 0
 453 494 442 497 428 476 c 0
 413 454 408 451 408 449 c 0
 408 446 392 433 389 431 c 0xd720
 388 431 379 417 366 409 c 1
 366 409 349 393 349 392 c 2
 336 378 l 1
 336 378 307 339 307 312 c 2
 307 308 l 1
 315 304 322 302 329 302 c 0
 357 302 403 335 403 335 c 1
 417 344 432 350 439 355 c 0
 465 373 442 363 497 390 c 0
 509 395 536 418 579 436 c 0
 607 448 620 475 688 475 c 0xe320
 727 475 767 463 767 431 c 0xd320
 767 422 765 412 759 401 c 0
 753 389 726 381 711 381 c 0
 704 381 702 382 690 382 c 0
 636 382 556 349 548 345 c 0
 544 343 540 337 536 337 c 0
 535 337 523 328 522 328 c 0
 521 327 522 326 521 326 c 0
 519 326 491 305 485 302 c 0
 484 301 486 299 459 276 c 0
 444 262 446 253 443 250 c 0
 419 223 427 188 423 188 c 0
 422 188 422 183 422 178 c 2xe280
 424 167 l 2
 425 163 432 152 432 148 c 1
 432 148 456 96 516 96 c 0
 533 96 645 72 658 59 c 0
 670 47 677 34 677 13 c 0
 677 -4 666 -6 654 -12 c 0
 646 -15 648 -16 643 -16 c 0
 640 -16 632 -15 614 -15 c 2
 600 -15 l 2
 554 -15 520 1 520 1 c 1
 499 10 l 1
 458 25 436 45 407 79 c 0
 390 98 387 103 385 139 c 0xe240
 385 152 379 171 379 192 c 0xe280
 379 210 388 225 388 237 c 0
 388 239 388 243 387 243 c 0
 366 243 319 207 285 207 c 0
 270 207 263 218 248 225 c 0
 247 226 247 229 247 229 c 1
 241 259 233 273 233 289 c 0
 233 306 244 324 285 368 c 0
 330 418 321 414 346 442 c 0
 347 443 353 448 353 449 c 0
 353 450 362 462 363 462 c 0
 365 462 374 472 375 472 c 0
 376 472 398 505 407 511 c 1
 407 511 418 524 427 532 c 0
 435 539 444 560 447 560 c 0
 448 560 452 568 452 569 c 0xd3
EndSplineSet
Validated: 1
EndChar

StartChar: uni305E
Encoding: 12382 12382 33
Width: 1000
Flags: W
HStem: -9 101<522.602 672.54> 272 60<327.976 358.286> 332 56<425.053 445.996> 343 57<446.007 468.876> 355 42<309.496 328.995> 399 73<586.831 782.441> 405 37<353.817 374> 590 81<325.134 407.987> 698 34<507.835 541.497> 698 21<504.163 514.469 789.026 805.442>
VStem: 408 48<129.071 241.953> 515 85<646 687.717> 529 62<648.134 697.999> 678 144<603 671>
LayerCount: 2
Fore
SplineSet
678 671 m 0x8124
 678 679 694 689 702 689 c 0
 729 689 801 659 811 639 c 0
 813 637 822 619 822 603 c 0
 822 589 811 575 794 575 c 0
 758 575 766 589 730 622 c 0
 710 641 678 656 678 671 c 0x8124
915 668 m 0
 915 646 902 616 881 616 c 0
 863 616 846 640 826 667 c 1
 826 667 797 697 794 697 c 0
 793 697 789 705 789 708 c 0
 789 710 790 716 791 716 c 0
 793 716 795 722 798 722 c 2
 798 722 806 724 819 724 c 0
 843 724 881 718 910 688 c 0
 914 684 915 677 915 668 c 0
445 305 m 1
 445 309 469 333 469 340 c 0
 469 342 467 343 462 343 c 0x9134
 456 343 446 335 446 335 c 1
 446 337 441 332 438 332 c 0xa134
 433 332 427 324 423 324 c 0
 421 324 419 324 419 323 c 0
 419 321 408 321 399 313 c 2
 362 283 l 2
 361 283 351 272 349 272 c 0xc134
 348 272 313 234 312 233 c 0
 310 230 302 220 295 215 c 2
 285 208 l 2
 279 205 275 203 270 203 c 0
 235 203 218 273 218 284 c 0
 218 298 256 321 259 328 c 0
 260 330 262 332 263 332 c 0xa134
 264 332 266 338 269 341 c 0
 289 363 319 397 320 397 c 0
 322 397 329 410 329 410 c 1
 329 413 337 418 337 420 c 0
 337 422 357 442 359 442 c 0
 360 442 362 447 364 449 c 0
 373 459 384 467 387 475 c 0
 391 483 426 521 427 522 c 2
 439 541 l 1
 459 570 466 568 466 572 c 0
 466 574 476 584 476 586 c 1
 476 586 511 646 514 646 c 1
 514 646 515 646 515 648 c 0x8b34
 515 655 521 652 524 666 c 0
 525 674 529 682 529 688 c 0
 529 697 521 698 519 698 c 0x8bac
 512 698 499 682 499 682 c 1
 484 656 l 1
 478 649 469 640 454 631 c 0
 447 627 445 618 438 612 c 0
 427 604 408 599 408 595 c 0
 408 592 390 590 372 590 c 0
 357 590 344 591 341 593 c 1
 341 593 316 608 316 623 c 0
 316 654 340 658 347 668 c 0
 348 670 352 671 357 671 c 0
 362 671 366 670 366 670 c 1
 401 671 410 681 415 681 c 0
 418 681 427 690 434 690 c 0
 437 690 446 697 449 697 c 0
 452 697 497 719 497 719 c 2x816c
 499 719 512 730 517 730 c 0
 520 730 520 732 528 732 c 0
 554 732 558 725 566 722 c 0
 569 720 591 712 591 710 c 0x81ac
 591 708 600 671 600 647 c 0
 600 646 590 628 588 626 c 0
 585 623 583 621 583 620 c 0
 583 617 573 611 573 608 c 0
 572 592 519 559 519 559 c 1
 497 535 480 531 476 522 c 0
 472 514 419 460 419 459 c 0
 419 457 413 450 411 450 c 0
 405 450 378 412 374 407 c 0
 374 406 374 405 373 405 c 0
 368 405 326 355 325 355 c 0x8bb4
 321 355 309 339 309 334 c 0
 309 333 310 332 312 332 c 0
 321 332 343 343 354 351 c 0
 384 371 425 382 425 382 c 2
 426 382 435 388 438 388 c 0xa134
 445 388 462 400 464 400 c 0x9134
 468 400 494 412 508 426 c 0
 511 428 535 430 549 438 c 0
 552 440 556 441 558 441 c 0
 573 441 623 472 664 472 c 0
 770 472 809 461 809 419 c 2
 809 411 l 1
 808 411 805 404 804 402 c 0
 799 391 781 382 770 382 c 0
 759 382 727 399 674 399 c 0x8534
 615 399 583 375 583 375 c 2
 583 374 562 366 562 364 c 1
 562 364 521 334 521 329 c 0
 521 322 496 306 491 299 c 1
 488 292 486 295 486 292 c 1
 486 292 462 233 460 220 c 2
 458 207 l 2
 457 196 456 188 456 181 c 0
 456 149 468 142 468 136 c 1
 469 136 472 133 472 132 c 0
 472 127 488 110 494 106 c 0
 501 101 531 95 531 93 c 0
 531 92 533 92 535 92 c 0
 542 92 539 89 547 89 c 0
 552 89 573 83 602 81 c 0
 656 78 656 79 683 65 c 0
 686 63 688 63 688 62 c 0
 688 61 707 54 710 43 c 0
 712 38 717 32 717 25 c 0
 717 21 715 18 711 14 c 0
 696 -3 686 -9 659 -9 c 0
 555 -9 480 27 466 37 c 0
 464 38 434 77 430 83 c 0
 417 100 408 109 408 171 c 0
 408 196 411 220 415 220 c 1
 415 220 421 232 421 234 c 0
 421 235 430 270 433 270 c 0
 434 270 445 305 445 305 c 1
EndSplineSet
Validated: 1
EndChar

StartChar: uni305F
Encoding: 12383 12383 34
Width: 1000
Flags: W
HStem: 31 94<607.951 845.911>
VStem: 519 57<156.202 257.559>
LayerCount: 2
Back
SplineSet
614 336 m 0x7040
 614 319 588 283 588 268 c 0
 588 264 584 259 584 253 c 0
 584 252 580 248 580 240 c 0
 580 229 576 214 576 198 c 0
 576 185 579 173 590 163 c 0
 597 156 612 135 626 135 c 0x7040
 628 135 650 125 669 125 c 0
 679 125 707 137 783 137 c 0
 807 137 828 135 836 129 c 0
 846 122 861 116 861 90 c 0
 861 74 850 53 838 47 c 0
 813 33 766 31 719 31 c 0
 700 31 682 32 665 32 c 2
 652 32 l 2xb040
 623 32 594 53 594 53 c 1
 591 53 573 75 570 75 c 1
 570 81 561 83 557 92 c 0
 556 93 551 101 550 101 c 0
 549 101 546 105 546 106 c 0
 546 109 536 116 536 120 c 0
 536 122 535 123 534 123 c 2
 534 123 519 138 519 175 c 0
 519 207 528 248 546 267 c 1
 566 299 l 1
 569 299 589 340 606 340 c 0
 610 340 614 339 614 336 c 0x7040
571 566 m 1
 615 596 664 604 701 604 c 0
 735 604 761 598 764 597 c 0
 785 595 781 585 794 580 c 0
 838 563 842 542 842 527 c 2
 842 518 l 2
 842 488 826 479 826 477 c 0
 826 472 807 458 791 450 c 0
 785 446 776 446 772 445 c 2
 761 442 l 2
 728 433 646 355 628 355 c 0
 624 355 620 357 620 361 c 0
 620 366 625 372 626 372 c 0
 629 372 644 393 653 401 c 1
 653 401 652 402 653 404 c 2
 663 416 l 1
 665 416 682 433 682 436 c 1
 706 464 l 2
 707 464 708 467 709 469 c 0
 715 475 720 476 726 481 c 0
 733 487 727 487 742 497 c 0
 743 497 750 507 750 515 c 0
 750 517 741 523 739 523 c 0
 732 523 703 535 667 535 c 0x3840
 637 535 577 521 576 521 c 0
 570 517 566 510 554 510 c 0
 541 510 539 510 539 522 c 0
 539 541 571 560 571 566 c 1
483 593 m 0
 483 578 480 576 480 572 c 0
 480 569 464 555 462 555 c 0
 461 555 460 554 460 553 c 0
 460 552 449 549 449 547 c 1
 424 533 l 1
 420 532 406 524 389 515 c 1
 389 515 371 508 371 496 c 0
 371 492 368 493 368 487 c 0x3540
 368 443 341 310 341 310 c 1
 337 255 326 256 323 219 c 0
 317 155 296 82 291 47 c 0
 289 29 280 -6 241 -6 c 0
 232 -6 226 -4 226 -1 c 0
 226 0 225 1 224 1 c 0
 222 1 213 10 213 12 c 2
 213 12 209 18 209 20 c 0
 209 24 205 30 205 51 c 0
 205 62 206 69 206 69 c 1
 210 84 l 2
 211 84 232 131 232 137 c 0
 232 167 252 189 256 212 c 0
 271 287 283 304 283 318 c 0
 283 320 283 321 284 321 c 2x3640
 307 447 l 1x3540
 307 453 305 457 299 457 c 0
 270 457 258 454 243 454 c 0
 204 454 173 471 171 471 c 0
 166 471 146 483 146 492 c 0
 146 494 139 503 139 508 c 0
 139 515 161 516 167 516 c 6
 188 516 l 6
 208 516 232 523 236 523 c 5
 296 542 l 6
 296 543 297 544 299 544 c 4
 303 544 316 555 318 555 c 4
 320 555 327 574 328 574 c 4
 329 574 330 595 330 619 c 4x34c0
 330 673 329 659 319 676 c 0
 309 694 284 686 284 709 c 0x3640
 284 727 312 731 331 731 c 0
 350 731 378 718 378 677 c 0
 378 675 378 673 378 671 c 0
 378 657 379 644 397 637 c 0
 411 631 399 628 439 628 c 0
 453 628 477 609 478 609 c 0x34c0
 483 609 483 602 483 593 c 0
EndSplineSet
Fore
SplineSet
445 627.155 m 0
 464.28 627.27 488.344 603.291 480 572 c 0
 478.059 564.721 429.022 531.068 367.512 503.037 c 1
 350.023 342.075 314.852 143.109 291 47 c 0
 286.638 29.4224 280 -6 241 -6 c 0
 203 -6 199 52 206 69 c 0
 242.661 158.034 287.215 347.783 311.751 480.867 c 1
 260.995 463.837 208.788 455.66 171 471 c 0
 166.367 472.881 136 490 139 508 c 0
 141.536 523.214 199 502 320 553 c 0
 321.39 553.586 322.775 554.172 324.155 554.758 c 1
 328.667 585.582 330.865 608.406 330 619 c 0
 322 717 284 686 284 709 c 0
 284 727 312 731 331 731 c 0
 350 731 376.454 717.971 378 677 c 0
 380 624 419 627 445 627.155 c 0
571 566 m 0
 691.366 654.691 840 579 842 527 c 8
 843.385 491.007 808.434 454.005 791 450 c 0
 717 433 646 355 628 355 c 0
 624 355 615.58 357.703 626 372 c 0
 669 431 760.101 508.146 750 515 c 0
 694 553 590.5 527 572.5 516.5 c 0
 541.356 498.333 514 524 571 566 c 0
606 340 m 0
 631 337 575 273 576 198 c 0
 576.347 171.983 622 116 669 125 c 0
 822.725 154.437 861 131 861 90 c 0
 861 61 859.996 32.4387 719 31 c 0
 657.22 30.3696 623 31 585 60.749 c 0
 538.107 97.46 519 164.043 519 175 c 0
 519 251 589.121 342.025 606 340 c 0
EndSplineSet
EndChar

StartChar: uni3060
Encoding: 12384 12384 35
Width: 1000
Flags: W
HStem: 31 94<607.951 845.911> 562 130<748 842>
VStem: 519 57<156.202 257.559> 724 154<603 679> 806 72<564.56 621.81> 818 154<665 740> 900 72<624.805 681.689>
LayerCount: 2
Back
SplineSet
535 173 m 0x8020
 560 173 539 119 603 119 c 0
 612 119 625 120 648 120 c 2
 663 120 l 2x8020
 696 120 732 138 796 138 c 0
 810 138 823 136 826 124 c 0
 829 112 832 105 832 96 c 0
 832 87 829 78 818 62 c 1x4020
 802 62 806 31 680 31 c 0
 659 31 634 32 613 35 c 0
 576 40 531 80 528 80 c 1
 528 80 515 121 515 131 c 0
 515 136 517 173 535 173 c 0x8020
673 470 m 0
 673 485 683 495 683 497 c 0
 683 501 681 508 667 509 c 0x0820
 590 511 595 528 582 530 c 0x0420
 579 530 551 555 551 576 c 0x0820
 551 584 555 587 562 587 c 0x0420
 575 587 609 576 629 576 c 0x0820
 651 576 688 581 721 581 c 0
 751 581 779 578 792 560 c 0
 801 549 809 544 809 532 c 0
 809 526 808 520 803 511 c 0
 790 484 750 494 723 479 c 0
 690 462 684 460 680 460 c 0x1020
 675 460 673 465 673 470 c 0
755 656 m 0
 755 665 769 668 777 668 c 0x0120
 788 668 797 663 831 653 c 1
 846 648 l 1x0220
 890 635 896 615 896 597 c 0x0120
 896 575 887 568 887 566 c 1
 887 566 878 559 869 559 c 0x0220
 859 559 840 578 837 578 c 1
 833 582 830 586 828 586 c 0
 827 586 812 597 811 597 c 2x0120
 811 597 778 619 777 620 c 0
 766 635 755 647 755 656 c 0
956 672 m 0
 956 664 964 649 964 647 c 0
 964 626 944 618 926 618 c 0
 896 618 880 650 859 669 c 0
 850 676 828 696 828 707 c 0
 828 714 837 720 851 720 c 2
 855 720 l 1
 877 718 l 2
 888 718 907 705 907 705 c 1
 907 703 956 689 956 672 c 0
234 522 m 0x20a0
 274 522 327 546 327 562 c 2
 327 632 l 2
 327 676 322 668 285 702 c 0
 281 705 279 709 279 712 c 0
 279 714 280 717 282 719 c 0
 289 727 290 728 310 728 c 0
 345 728 396 705 396 654 c 0
 396 637 398 629 398 626 c 0x2060
 398 622 399 618 400 616 c 1
 453 616 464 608 469 603 c 0
 480 592 482 584 482 579 c 1
 482 579 481 557 453 537 c 0
 450 535 419 508 396 493 c 0
 391 490 387 487 384 484 c 1
 384 484 367 389 367 382 c 0
 367 359 329 172 329 147 c 0
 329 128 305 42 305 42 c 1
 302 24 308 23 292 5 c 0
 283 -4 275 -8 265 -8 c 0
 242 -8 219 15 219 23 c 0
 219 30 216 30 216 42 c 0
 216 111 226 95 235 129 c 2
 235 129 281 283 281 313 c 1
 290 342 305 420 305 437 c 2
 305 445 l 2
 305 448 304 448 303 450 c 1
 186 452 173 473 149 519 c 0
 148 521 147 522 147 524 c 0
 147 534 161 544 169 544 c 0
 187 544 209 522 234 522 c 0x20a0
EndSplineSet
Fore
Refer: 90 12441 N 1 0 0 1 1032 -15 2
Refer: 34 12383 N 1 0 0 1 0 0 2
EndChar

StartChar: uni3061
Encoding: 12385 12385 36
Width: 1000
Flags: W
HStem: -39 26<455.413 508.106> 300 44<523.983 651.394> 535.406 78.8107<250.023 372.536>
VStem: 347 106<181.625 226.844> 355 91.1745<706.768 755.106> 694 86<113.047 257.681>
LayerCount: 2
Back
SplineSet
505 264 m 2xdd
 505 264 464 248 457 189 c 0
 457 186 453 178 452 178 c 2
 446 167 l 1
 446 162 419 138 408 138 c 0
 384 138 347 204 347 289 c 0xdd
 347 396 368 476 368 510 c 2
 368 525 l 2
 368 532 354 532 336 532 c 2
 332 532 l 2
 315 532 299 532 292 537 c 0
 281 544 229 558 229 574 c 0
 229 578 220 580 220 594 c 0
 220 605 220 606 249 606 c 0xeb
 260 606 274 600 306 600 c 0
 327 600 340 603 356 603 c 0
 358 603 375 607 385 617 c 0
 389 621 390 638 390 655 c 0
 390 674 388 690 386 690 c 1
 382 704 l 2
 382 705 375 713 374 713 c 0
 373 713 355 724 355 736 c 0
 355 759 364 761 381 761 c 0
 386 761 391 761 396 761 c 0
 439 761 446 726 446 726 c 1
 448 726 453 690 458 679 c 0
 462 670 480 653 531 653 c 2
 540 653 l 2
 546 653 557 640 557 633 c 0
 557 626 564 630 564 619 c 0
 564 600 546 604 537 595 c 0
 536 594 535 593 534 593 c 0
 529 593 528 580 501 574 c 0
 481 569 490 573 482 564 c 0
 475 557 477 556 474 556 c 0
 473 556 437 550 417 536 c 0
 411 532 410 528 410 521 c 2
 410 513 l 2xdb
 410 470 404 408 404 358 c 0
 404 319 408 287 420 276 c 1
 429 277 479 307 479 307 c 1
 497 316 l 1
 497 318 545 344 606 344 c 0
 632 344 661 340 688 326 c 0
 694 323 700 323 703 321 c 0
 704 321 748 279 748 278 c 0
 748 277 748 276 749 276 c 0
 755 276 780 227 780 194 c 0
 780 171 773 149 773 137 c 0
 773 134 762 109 751 96 c 0
 750 96 730 50 713 45 c 0
 698 40 628 -19 594 -19 c 0
 587 -19 505 -39 470 -39 c 0
 453 -39 447 -31 447 -29 c 0
 447 -22 468 -13 473 -13 c 0
 474 -13 506 1 527 10 c 0
 535 13 538 11 547 15 c 2
 558 20 l 2
 579 29 602 43 602 43 c 1
 602 49 694 80 694 181 c 0
 694 199 692 216 686 237 c 0
 677 265 669 270 631 289 c 0
 613 298 599 300 587 300 c 0
 556 300 518 273 518 273 c 2
 517 273 506 264 505 264 c 2xdd
EndSplineSet
Fore
SplineSet
531 653 m 0xec
 549.333 655.318 570.02 628.206 564 619 c 0
 548.084 594.657 492.284 563.302 428.709 546.17 c 1
 408.487 446.646 385.734 337.123 420 276 c 1
 429 277 530.009 345.151 606 344 c 0
 738 342 780.458 226.997 780 194 c 0
 778 50 602 -42 470 -39 c 0
 453.004 -38.6137 430.307 -25.1381 473 -13 c 0
 575 16 694 81.7456 694 181 c 1
 695 260 646.995 299.241 587 300 c 0
 508 301 454 206 453 179 c 0
 452.31 160.37 419 138 408 138 c 0
 384 138 347 204 347 289 c 0xf4
 347 349.623 360.624 453.584 372.536 535.406 c 1
 317.101 529.333 262.734 537.885 229 574 c 0
 209.669 594.696 220.674 612.218 249 606 c 0
 305.537 593.589 346.144 601.547 384.338 614.216 c 1
 387.679 636.304 389.876 651.22 390 655 c 0
 392 716 353 719 355 736 c 0
 357.687 758.842 366 760 396 761 c 0
 424.807 761.96 439.86 747.987 446.174 724 c 0
 451.99 701.909 444 642 531 653 c 0xec
EndSplineSet
EndChar

StartChar: uni3062
Encoding: 12386 12386 37
Width: 1000
Flags: W
HStem: -39 26<455.413 508.106> 300 44<523.983 651.394> 511 130<693 787> 535.406 78.8107<250.023 372.536>
VStem: 347 106<181.625 226.844> 355 91.1745<706.768 755.106> 669 154<552 628> 694 86<113.047 257.681> 751 72<513.56 570.81> 763 154<614 689> 845 72<573.805 630.689>
LayerCount: 2
Back
SplineSet
788 528 m 0x90e0
 762 528 735 575 729 575 c 0
 727 575 715 590 707 600 c 0
 704 604 703 600 703 610 c 0
 703 624 708 629 733 629 c 0
 784 629 761 626 786 618 c 0
 796 615 808 607 808 606 c 0
 808 605 820 587 822 559 c 1
 822 557 l 2
 822 552 820 544 819 544 c 0
 818 544 817 543 817 542 c 0
 817 535 802 528 788 528 c 0x90e0
797 655 m 0
 797 669 821 673 834 673 c 0
 849 673 869 669 869 667 c 0
 869 666 886 660 893 656 c 0
 902 650 920 637 920 630 c 1
 920 630 926 615 926 599 c 0
 926 569 908 560 896 560 c 0
 878 560 863 578 859 584 c 0
 854 593 833 609 833 610 c 0
 833 616 797 637 797 655 c 0
676 116 m 2
 709 158 l 1
 709 167 716 169 716 199 c 0
 716 228 713 225 713 244 c 0
 713 252 693 297 689 301 c 0
 670 318 653 324 633 324 c 0
 613 324 593 318 573 307 c 2
 561 301 l 2
 540 291 512 250 512 250 c 1
 512 247 498 228 498 225 c 0
 498 218 491 218 485 196 c 0
 483 186 480 186 480 185 c 0
 480 171 474 164 473 151 c 0
 472 143 467 142 467 139 c 0
 467 137 459 129 459 128 c 0
 459 126 451 118 444 118 c 0
 421 118 383 136 380 173 c 0
 378 204 368 213 368 297 c 2
 368 299 l 2xcce0
 368 321 368 376 375 383 c 1
 387 480 l 1
 386 500 382 501 382 501 c 1
 380 501 373 505 358 505 c 0xc9e0
 350 505 349 504 339 504 c 0
 305 504 288 513 288 513 c 2
 286 513 276 521 266 523 c 0
 250 526 254 534 244 537 c 0
 241 538 218 560 216 565 c 1
 216 565 211 579 211 591 c 0
 211 610 228 605 229 607 c 1
 229 606 234 605 238 605 c 0
 254 605 269 581 283 581 c 0xa1e0
 287 581 309 576 321 576 c 0
 352 576 387 596 393 596 c 0
 396 596 407 616 407 630 c 1
 407 630 415 662 415 674 c 0
 415 700 368 723 368 743 c 0
 368 749 376 753 383 753 c 0
 388 753 393 752 393 752 c 1xc2e0
 393 750 398 750 404 744 c 0
 417 732 416 742 437 731 c 0
 450 724 455 732 463 722 c 0
 478 706 477 694 483 687 c 0
 490 677 511 675 511 675 c 1
 532 674 515 666 565 666 c 0
 572 666 577 667 580 667 c 0
 595 667 606 654 606 638 c 0
 606 624 599 608 597 608 c 0
 596 608 596 607 596 606 c 0
 596 604 589 600 587 600 c 0
 586 600 584 596 584 595 c 0
 584 594 577 593 575 593 c 0
 506 593 489 544 469 544 c 0
 468 544 441 528 441 523 c 0xc9e0
 441 521 436 519 436 514 c 0
 430 456 432 370 427 366 c 1
 425 356 425 348 425 340 c 0xcce0
 425 304 438 293 438 290 c 1
 438 290 446 282 451 279 c 1
 458 282 471 300 475 300 c 0
 478 300 487 310 489 310 c 0
 496 310 522 337 536 341 c 0
 537 341 592 368 628 368 c 0
 653 368 681 357 691 355 c 0
 698 353 755 317 755 311 c 1
 755 311 788 267 788 204 c 0
 788 74 622 24 622 24 c 1
 582 10 l 2
 582 9 529 -8 494 -16 c 0
 492 -17 394 -31 383 -31 c 0
 376 -31 370 -30 362 -28 c 2
 344 -24 l 1
 330 -22 328 -11 328 -11 c 1
 332 6 409 3 459 20 c 0
 540 47 635 79 660 102 c 0
 674 114 676 115 676 116 c 2
EndSplineSet
Fore
Refer: 90 12441 N 1 0 0 1 977 -66 2
Refer: 36 12385 N 1 0 0 1 0 0 2
EndChar

StartChar: uni3063
Encoding: 12387 12387 38
Width: 1000
Flags: W
HStem: 11 29<384.026 455.419> 427 40<516.245 661.657>
VStem: 734 62<214.631 347.174>
LayerCount: 2
Back
SplineSet
252 267 m 6xf0
 252 267 223 277 223 278 c 4
 223 281 204 286 204 308 c 4
 204 314 206 319 209 321 c 6
 220 329 l 5
 225 331 229 331 234 331 c 6
 238 331 l 6
 249 331 248 335 255 335 c 4
 258 335 260 334 262 334 c 6
 301 351 l 5
 304 351 326 364 332 368 c 6
 353 381 l 5
 353 381 410 415 417 417 c 4
 419 417 440 435 442 436 c 4
 450 441 466 450 466 451 c 5
 476 451 528 478 560 478 c 6
 603 478 l 6
 608 478 612 478 616 477 c 4
 619 477 695 449 706 441 c 4
 730 424 747 398 747 398 c 5
 747 394 765 379 770 364 c 4
 770 363 778 353 778 351 c 4
 778 346 782 343 782 339 c 5
 783 339 782 339 782 337 c 4xe8
 782 335 796 293 796 263 c 4
 796 254 793 258 787 223 c 4
 784 204 758 175 736 148 c 4
 726 137 713 133 706 126 c 4
 664 91 560 48 550 47 c 4
 518 42 482 23 440 23 c 4
 422 23 402 25 402 25 c 6
 399 25 384 29 384 36 c 4
 384 51 412 49 429 55 c 4
 457 65 502 79 502 79 c 5
 502 79 657 141 689 191 c 5
 689 191 730 240 730 272 c 4
 730 274 734 290 734 295 c 4
 734 304 730 314 730 314 c 5
 730 361 692 395 690 397 c 6
 690 397 680 412 678 412 c 4
 672 412 654 424 646 424 c 4
 644 424 643 424 643 425 c 4
 643 427 613 443 574 443 c 4
 559 443 550 435 546 435 c 4
 540 435 521 416 507 411 c 4
 481 401 488 401 470 387 c 5
 470 387 457 383 419 351 c 4
 418 350 420 349 416 346 c 4
 393 328 397 327 383 317 c 4
 363 301 348 297 330 278 c 4
 326 274 314 271 314 271 c 6
 314 270 281 262 271 262 c 4
 257 262 254 267 254 267 c 6
 254 268 253 267 252 267 c 6xf0
EndSplineSet
Fore
SplineSet
734 283 m 0
 734 330 709 372 679 397 c 0
 670 405 650 412 630 419 c 0
 618 423 601 427 583 427 c 0
 570 427 558 426 546 421 c 0
 512 408 472 383 442 357 c 0
 399 321 347 276 334 269 c 0
 316 259 290 250 272 250 c 0
 263 250 257 252 252 256 c 0
 245 262 230 261 220 269 c 0
 214 274 204 280 204 296 c 3
 204 308 213 315 224 318 c 0
 238 321 253 320 263 323 c 0
 273 326 286 332 299 339 c 0
 312 345 326 353 332 357 c 0
 332 357 357 371 373 381 c 24
 390 391 391 391 415 406 c 0
 435 419 448 433 473 443 c 0
 506 457 528 467 560 467 c 0
 574 467 589 467 603 467 c 0
 620 467 703 451 742 393 c 0
 752 378 761 371 769 357 c 0
 775 347 780 336 782 328 c 0
 784 323 796 285 796 253 c 0
 794 115 543 11 440 11 c 3
 404 11 384 16 384 25 c 3
 384 34 393 39 406 40 c 0
 420 41 459 55 502 69 c 0
 502 69 657 129 689 179 c 1
 689 179 734 233 734 283 c 0
EndSplineSet
Validated: 1
Substitution2: "'vrt2' +fiZm+DBNW1dfYjBoVt6O4m4IMH9lh1tX lookup 2-1" uni3063.vert
Substitution2: "'vert' +fiZm+DBNW1dfYjAQXsNrYjAR lookup 1-1" uni3063.vert
EndChar

StartChar: uni3064
Encoding: 12388 12388 39
Width: 1000
Flags: W
HStem: 79 36<355.018 444.309> 603 46<534.383 692.667>
VStem: 792 78<345.78 484.904>
LayerCount: 2
Back
SplineSet
172 450 m 6x70
 186 450 185 455 194 455 c 4
 198 455 201 454 203 454 c 4
 250 474 251 476 251 476 c 5
 255 476 282 492 290 497 c 6
 316 513 l 5
 316 513 387 555 396 558 c 4
 399 558 425 581 427 582 c 4
 437 588 458 600 458 601 c 5
 470 601 535 634 575 634 c 4
 593 634 611 634 629 634 c 4
 635 634 640 634 645 633 c 4
 649 633 743 598 757 588 c 4
 787 567 809 534 809 534 c 5
 809 529 832 511 838 492 c 4
 838 491 847 477 847 475 c 4
 847 469 852 466 852 461 c 5
 853 461 853 460 853 458 c 4xa8
 853 455 870 403 870 366 c 4
 870 355 867 359 859 315 c 4
 855 291 824 255 795 222 c 4
 783 207 767 202 757 194 c 4
 705 149 576 97 563 96 c 4
 521 90 497 74 479 73 c 4
 458 71 451 65 425 65 c 4
 403 65 377 68 377 68 c 6
 373 68 355 73 355 82 c 4
 355 101 390 98 411 106 c 4
 446 119 503 136 503 136 c 5
 503 136 696 213 736 275 c 5
 736 275 787 337 787 377 c 4
 787 380 792 399 792 405 c 4
 792 416 787 429 787 429 c 5
 787 439 780 476 769 494 c 4
 752 523 751 517 738 533 c 4
 735 537 737 538 733 541 c 4
 732 542 723 552 722 552 c 4
 715 552 692 567 682 567 c 4
 680 567 679 567 679 568 c 4
 679 571 641 590 592 590 c 4
 573 590 563 580 558 580 c 4
 551 580 527 557 509 551 c 4
 476 539 484 537 462 520 c 5
 462 520 446 515 399 475 c 4
 398 474 400 473 395 469 c 4
 366 446 371 446 354 433 c 4
 329 413 309 408 287 384 c 4
 282 379 268 375 268 375 c 6
 268 374 226 364 214 364 c 4xb0
 197 364 193 370 193 370 c 6
 193 371 191 371 190 371 c 4
 185 371 180 377 170 378 c 4
 162 379 154 382 154 384 c 4
 154 388 130 395 130 422 c 4
 130 429 132 435 136 438 c 6
 150 448 l 5
 156 450 161 450 167 450 c 6
 172 450 l 6x70
EndSplineSet
Fore
SplineSet
792 419 m 0
 792 478 761 530 724 561 c 0
 713 571 690 584 665 593 c 0
 650 598 626 603 604 603 c 0
 588 603 572 597 557 591 c 0
 514 575 465 543 427 511 c 0
 373 466 308 410 292 401 c 0
 270 389 238 378 215 378 c 0
 204 378 196 380 190 385 c 0
 181 392 162 391 150 401 c 0
 143 407 130 415 130 435 c 3
 130 450 141 459 155 463 c 0
 172 467 192 465 204 469 c 0
 216 473 233 480 249 489 c 0
 265 497 282 506 290 511 c 0
 290 511 321 529 341 541 c 24
 362 553 364 554 394 573 c 0
 419 589 435 606 466 619 c 0
 507 636 535 649 575 649 c 0
 593 649 611 649 629 649 c 0
 650 649 754 629 803 557 c 0
 816 538 826 529 836 511 c 0
 843 498 849 485 852 475 c 0
 854 469 870 421 870 381 c 0
 868 208 554 79 425 79 c 3
 380 79 355 86 355 97 c 3
 355 108 367 114 383 115 c 0
 400 116 449 133 503 151 c 0
 503 151 696 227 736 289 c 1
 736 289 792 356 792 419 c 0
EndSplineSet
Validated: 1
EndChar

StartChar: uni3065
Encoding: 12389 12389 40
Width: 1000
Flags: W
HStem: 79 39<361.629 474.471> 545 51<520.484 685.95> 583 130<681 775>
VStem: 657 154<624 700> 739 72<585.56 642.81> 751 154<686 761> 784 80<304.71 448.312> 833 72<645.805 702.689>
LayerCount: 2
Back
SplineSet
248 387 m 4xd4
 266 387 334 431 342 431 c 4
 352 431 340 440 408 467 c 5
 421 473 l 6
 441 482 467 488 472 490 c 6
 483 495 l 5
 511 506 516 514 557 519 c 5
 581 521 l 5
 646 514 719 501 779 426 c 5
 794 410 l 6
 800 404 805 395 805 394 c 6
 805 394 837 345 837 294 c 4xd4
 837 237 822 214 811 181 c 4
 808 172 797 164 797 162 c 5
 790 152 l 6
 786 146 781 141 781 141 c 5
 781 141 764 124 751 115 c 4
 719 94 665 66 665 66 c 5
 661 66 563 37 508 37 c 4
 499 37 488 44 488 53 c 4
 488 71 518 69 553 78 c 4
 556 79 556 81 558 81 c 4
 618 102 624 94 682 138 c 4
 690 144 706 158 707 158 c 4
 717 158 751 218 751 239 c 5xd8
 751 239 758 262 758 295 c 4
 758 382 721 415 721 415 c 6
 721 417 700 436 694 439 c 4
 668 451 633 469 615 469 c 4
 596 469 554 469 521 452 c 5
 501 441 l 6
 469 424 475 422 403 382 c 4
 370 364 328 325 328 322 c 5
 315 313 285 299 271 299 c 4xd4
 251 299 217 305 217 307 c 4
 217 308 213 309 207 309 c 4
 185 312 199 314 178 321 c 4
 174 322 148 345 148 369 c 4
 148 377 156 382 156 382 c 5
 161 382 188 389 209 389 c 4xb4
 223 389 237 387 248 387 c 4xd4
871 538 m 4
 871 525 868 503 847 503 c 4
 836 503 826 507 824 509 c 4
 788 542 807 521 755 556 c 4
 741 565 736 573 736 579 c 4
 736 596 762 598 773 598 c 4
 805 598 841 582 841 582 c 6
 843 582 851 574 857 570 c 5
 859 570 867 554 868 554 c 6
 868 554 871 548 871 538 c 4
938 592 m 4
 938 571 918 563 910 563 c 4
 889 563 874 592 852 605 c 4
 830 617 801 629 801 647 c 4
 801 658 814 663 832 663 c 4
 865 663 914 647 931 623 c 4
 934 619 938 605 938 592 c 4
EndSplineSet
Fore
SplineSet
784 384 m 0xc2
 784 437 762 473 726 501 c 0
 715 510 680 528 656 536 c 0
 642 540 621 545 600 545 c 0
 585 545 569 543 555 538 c 0
 514 524 466 495 430 466 c 0
 378 426 315 376 300 368 c 0
 279 357 248 347 226 347 c 0
 215 347 208 349 202 353 c 0
 193 359 176 359 164 368 c 0
 157 373 139 380 139 398 c 3
 139 411 156 425 169 429 c 0
 185 433 204 431 216 435 c 0
 228 439 244 445 259 453 c 0
 274 460 290 468 298 472 c 0
 298 472 328 488 347 499 c 24
 367 510 369 511 398 528 c 0
 422 542 438 549 467 563 c 0
 500 579 519 596 566 596 c 0
 592 596 607 595 624 592 c 0
 649 587 754 573 801 508 c 0
 813 491 823 482 833 466 c 0xc1
 840 454 845 443 848 434 c 0
 850 429 864 386 864 350 c 0
 862 195 552 79 428 79 c 3
 385 79 361 85 361 95 c 3
 361 105 373 117 388 118 c 0
 404 119 457 127 503 148 c 0
 503 148 684 209 733 264 c 1
 733 264 784 309 784 384 c 0xc2
EndSplineSet
Refer: 90 12441 S 1 0 0 1 965 6 2
EndChar

StartChar: uni3066
Encoding: 12390 12390 41
Width: 1000
Flags: W
HStem: 16 94<531.118 702.336> 505 84<193.859 316.652> 627 77<618.215 815.575>
VStem: 415 63<148.561 418.363>
LayerCount: 2
Back
SplineSet
493 74 m 1x2004
 493 78 487 72 476 90 c 1
 467 90 448 125 448 134 c 0
 448 140 440 166 440 221 c 0
 440 242 441 269 445 300 c 2
 448 329 l 2
 451 351 453 351 453 367 c 0
 453 390 459 383 459 394 c 0
 459 403 488 509 501 527 c 0
 505 533 519 550 519 553 c 0x2044
 519 554 535 571 535 572 c 0x0404
 535 576 546 587 547 591 c 1
 546 593 548 594 545 593 c 0
 533 590 521 591 507 585 c 0
 483 575 452 553 447 553 c 0x0044
 444 553 420 538 414 536 c 0
 387 528 371 511 365 511 c 0x0104
 363 511 348 504 344 504 c 0x0204
 340 504 329 490 319 490 c 0x0404
 313 490 317 487 312 487 c 0x0804
 308 487 280 477 262 477 c 0
 258 477 244 478 244 479 c 0
 244 480 243 480 241 480 c 0
 237 480 227 484 227 485 c 0
 227 490 182 491 182 522 c 0
 182 534 186 546 186 546 c 1
 186 555 201 561 206 561 c 0
 215 561 223 552 227 552 c 0
 234 552 229 548 236 548 c 0x1004
 250 548 297 563 297 563 c 1x0804
 303 563 300 570 312 572 c 0x0404
 315 572 338 583 347 583 c 0
 349 583 352 581 352 583 c 0x0204
 352 584 354 584 358 584 c 0x0104
 369 584 396 597 399 597 c 0
 401 597 401 596 403 596 c 0
 406 596 414 603 418 603 c 0x0044
 419 603 438 609 447 609 c 0
 462 609 506 628 506 628 c 1
 519 631 532 628 549 637 c 0
 553 639 555 639 556 639 c 0x0084
 559 639 559 638 562 638 c 0x0024
 566 638 655 669 672 669 c 0x000c
 676 669 688 673 688 673 c 1
 688 679 741 685 741 685 c 1
 751 685 748 687 754 687 c 1
 754 687 804 682 804 677 c 0
 804 676 805 675 806 675 c 0
 808 675 815 668 815 665 c 1
 816 665 818 659 818 652 c 0
 818 624 781 613 779 612 c 1
 775 612 771 608 761 608 c 0x0014
 749 608 697 618 696 618 c 0x000c
 665 618 623 594 623 593 c 0
 623 592 617 589 615 589 c 0x0024
 607 589 590 571 573 561 c 0
 567 558 565 559 559 554 c 1
 556 553 555 550 554 550 c 2
 554 550 535 538 535 530 c 0
 535 525 530 524 530 520 c 0
 530 518 514 458 513 430 c 0
 513 428 487 338 487 212 c 0
 487 161 499 143 506 143 c 0x2084
 511 143 513 132 529 130 c 0
 547 127 551 126 554 126 c 0
 558 126 557 128 562 128 c 0
 569 128 581 126 588 126 c 0
 590 126 592 126 592 127 c 0
 592 130 627 132 659 132 c 0
 695 132 682 131 695 126 c 0
 711 119 721 113 721 87 c 0
 721 57 685 53 659 35 c 0
 657 34 655 34 652 34 c 0
 644 34 634 37 619 37 c 0
 603 37 604 35 594 35 c 0x8004
 581 35 572 41 561 41 c 2
 556 41 l 2
 548 41 540 49 536 49 c 0x4004
 535 49 533 49 533 50 c 0
 533 51 514 63 508 63 c 0
 495 65 493 74 493 74 c 1x2004
EndSplineSet
Fore
SplineSet
653 16 m 4
 525 16 415 71 415 225 c 4
 415 370 455 524 500 598 c 5
 456 582 337 538 327 532 c 4
 290 510 267 505 232 505 c 4
 213 505 151 558 151 581 c 4
 151 592 156 602 169 602 c 4
 176 602 202 589 242 589 c 4
 257 589 373 621 427 636 c 4
 543 668 698 704 751 704 c 4
 781 704 820 697 820 667 c 4
 820 640 804 627 776 627 c 4
 729 627 620 620 568 611 c 5
 548 589 513 545 501 501 c 4
 479 418 478 260 478 215 c 4
 478 156 523 107 580 107 c 4
 604 107 622 110 643 110 c 4
 671 110 719 87 719 62 c 4
 719 31 691 16 653 16 c 4
EndSplineSet
EndChar

StartChar: uni3067
Encoding: 12391 12391 42
Width: 1000
Flags: W
HStem: 16 94<531.118 702.336> 346 130<634.5 728.5> 505 84<193.859 316.652> 627 77<618.215 815.575>
VStem: 415 63<148.561 418.363> 610.5 154<387 463> 692.5 72<348.56 405.81> 704.5 154<449 524> 786.5 72<408.805 465.689>
LayerCount: 2
Back
SplineSet
631 477 m 4xc018
 631 486 636 488 646 488 c 4
 659 488 672 482 672 480 c 4
 672 479 673 479 674 479 c 6
 674 479 704 458 705 458 c 4
 709 458 740 436 740 425 c 5
 747 422 750 410 750 395 c 4
 750 360 735 356 727 356 c 6
 724 356 l 6
 682 356 682 377 677 390 c 4
 676 392 631 451 631 477 c 4xc018
766 504 m 4
 818 504 857 466 857 466 c 6
 857 465 858 464 858 464 c 5
 862 464 865 452 865 438 c 4
 865 417 855 405 852 405 c 4
 850 405 845 399 828 399 c 4
 815 399 801 403 796 417 c 4
 792 429 778 440 778 442 c 4
 778 444 771 452 771 452 c 6
 770 452 764 464 764 464 c 6xa018
 764 465 762 469 761 469 c 4
 760 469 758 473 758 474 c 4
 758 480 742 481 742 494 c 5
 746 502 756 504 766 504 c 4
814 652 m 5
 813 652 812 651 812 650 c 4
 812 640 778 625 769 625 c 4
 763 625 762 629 747 629 c 4
 736 629 654 625 593 611 c 4
 579 608 562 591 562 591 c 5
 562 588 544 586 532 563 c 4
 531 560 513 542 513 526 c 4
 513 524 509 515 509 515 c 6
 509 513 498 494 498 494 c 6
 494 488 488 416 488 416 c 5
 488 407 479 344 479 336 c 6
 479 327 l 6
 479 321 477 322 477 268 c 6
 477 237 l 6
 477 220 477 204 479 190 c 4x81b8
 481 175 496 163 496 156 c 4
 496 153 507 141 507 140 c 4
 507 136 531 119 532 119 c 4
 541 119 555 109 593 109 c 4
 616 109 627 112 631 112 c 4
 646 112 718 93 718 61 c 6
 718 57 l 5
 714 39 711 40 711 38 c 5
 711 38 700 20 687 20 c 6
 634 20 l 6
 592 20 556 22 511 43 c 4
 466 64 431 126 431 141 c 4x8158
 431 159 417 145 417 228 c 4
 417 362 454 462 454 471 c 4
 454 472 460 521 464 521 c 4x8998
 466 521 467 535 474 542 c 4
 478 545 479 549 479 550 c 4
 479 553 486 563 486 566 c 4
 486 568 489 576 490 576 c 4
 492 576 493 583 492 586 c 4
 491 588 485 589 480 589 c 4x82b8
 461 589 425 566 419 566 c 4
 415 566 400 563 400 561 c 4
 400 560 382 552 377 552 c 4
 374 552 376 553 354 543 c 6x84b8
 309 522 l 6
 307 520 296 518 292 516 c 4
 288 514 282 505 244 505 c 4x90b8
 201 505 210 521 201 521 c 4x88b8
 200 521 187 531 184 537 c 4
 183 538 180 543 179 543 c 4
 174 543 151 569 151 585 c 4
 151 594 158 602 169 602 c 4x84b8
 186 602 192 590 214 590 c 4x90b8
 244 590 289 596 289 596 c 6
 294 596 339 612 341 612 c 6
 354 615 l 6
 381 622 390 630 406 632 c 4
 441 637 482 649 487 649 c 4x82b8
 492 649 499 651 499 653 c 5
 499 653 597 678 617 678 c 4
 621 678 619 680 628 681 c 6
 666 687 l 6
 666 688 669 688 673 688 c 4
 686 688 681 692 687 692 c 4
 694 692 687 705 713 705 c 4
 722 705 729 704 729 704 c 5
 756 704 767 705 773 705 c 4x81b8
 783 705 815 685 815 680 c 4
 815 678 816 678 817 678 c 4
 818 678 821 669 821 664 c 4
 821 660 814 655 814 652 c 5
EndSplineSet
Fore
Refer: 90 12441 N 1 0 0 1 918.5 -231 2
Refer: 41 12390 N 1 0 0 1 0 0 2
EndChar

StartChar: uni3068
Encoding: 12392 12392 43
Width: 1000
Flags: W
HStem: 38 104<375.982 638.156> 332 214<474 549> 566 123<622.258 678.403> 650 39<525.239 612.384>
VStem: 270 47<173.401 319.717> 621 121<584.047 640.879>
LayerCount: 2
Back
SplineSet
532 144 m 4x9c
 543 144 545 143 555 143 c 4
 590 143 616 160 653 160 c 4
 691 160 703 154 728 126 c 4
 732 121 733 116 733 111 c 4
 733 91 702 76 702 76 c 5
 683 65 l 6
 681 64 678 63 676 63 c 4x3c
 667 63 664 54 646 54 c 4
 626 54 554 37 515 37 c 4x9c
 496 37 487 47 466 47 c 4
 449 47 395 63 395 66 c 4
 395 67 394 67 393 67 c 4
 386 67 373 80 372 80 c 4
 370 80 308 136 308 149 c 4
 308 150 302 161 302 162 c 4
 299 170 291 202 291 225 c 4
 291 233 292 240 295 244 c 4
 299 252 304 286 304 286 c 5
 304 286 314 326 351 369 c 4
 369 390 370 391 380 393 c 4
 384 393 388 392 388 388 c 4
 388 377 373 352 373 350 c 4
 373 349 371 345 368 342 c 5
 362 332 l 5
 348 302 l 5
 348 299 333 267 333 225 c 4
 333 181 352 178 369 162 c 4
 378 154 433 142 473 142 c 4x5c
 495 142 515 144 532 144 c 4x9c
443 485 m 21
 448 485 472 514 476 514 c 4
 479 514 476 519 486 519 c 4
 489 519 493 518 493 518 c 5
 500 515 503 485 503 485 c 5
 505 485 504 478 507 475 c 4
 510 472 516 457 517 457 c 4
 568 404 590 401 590 376 c 4
 590 356 570 332 549 332 c 4
 533 332 522 349 494 377 c 4
 490 381 487 388 487 388 c 5
 485 388 488 391 468 403 c 4
 457 409 427 429 418 432 c 5
 418 437 379 436 367 450 c 5
 366 449 358 452 358 453 c 4
 358 455 334 455 331 463 c 4
 329 467 318 465 301 478 c 6
 277 497 l 6
 264 508 258 517 258 535 c 4
 258 536 258 537 258 538 c 4
 258 545 258 561 277 561 c 4
 289 561 295 543 308 537 c 4
 325 530 345 517 348 517 c 4
 361 517 387 496 407 496 c 4
 412 496 421 492 421 490 c 4
 421 486 432 483 438 483 c 4
 440 483 441 484 443 485 c 21
685 668 m 5
 700 646 720 642 720 641 c 6
 729 627 l 6
 730 627 742 621 742 614 c 4
 741 593 736 565 715 565 c 4
 711 565 707 566 706 566 c 4
 690 566 692 562 682 559 c 4
 680 559 675 560 675 558 c 4
 675 557 673 556 669 556 c 6
 616 547 l 6
 615 546 613 546 612 546 c 4
 609 546 603 538 598 538 c 4
 595 538 581 527 574 527 c 4
 573 527 572 527 572 526 c 4
 572 524 554 517 550 517 c 4
 545 517 538 507 535 507 c 4
 529 507 512 509 512 519 c 4
 512 527 527 533 528 533 c 4
 531 533 549 551 556 552 c 4
 569 555 593 579 615 598 c 4
 617 600 619 603 619 603 c 5
 619 608 621 610 621 615 c 4
 621 623 616 627 616 628 c 4
 616 630 612 636 607 639 c 4
 605 640 601 639 601 639 c 5
 596 640 593 641 593 641 c 5
 593 643 539 653 538 653 c 4
 529 654 525 663 525 670 c 4
 525 687 558 680 571 687 c 4
 574 689 580 689 588 689 c 4
 615 689 639 685 643 685 c 6
 646 685 l 6
 650 685 658 683 677 674 c 4
 679 674 685 670 685 668 c 5
EndSplineSet
Fore
SplineSet
626 54 m 0xcc
 591 45 535 38 485 38 c 0
 440 38 394 48 361 67 c 0
 324 88 270 130 270 225 c 0
 270 279 291 337 334 380 c 0
 343 389 351 392 357 392 c 0
 360 392 363 391 364 389 c 0
 368 383 369 378 359 366 c 0
 347 352 337 330 331 310 c 0
 319 269 317 267 317 225 c 0
 317 171 364 142 453 142 c 0
 520 142 555 144 574 149 c 0
 588 152 610 160 633 160 c 0
 684 160 713 133 713 111 c 1
 713 93 664 63 626 54 c 0xcc
278 498 m 0
 268 507 257 527 257 542 c 0
 257 553 262 561 277 561 c 3
 293 561 314 531 348 517 c 0
 363 511 382 502 404 493 c 24
 427 483 441 477 464 467 c 17
 464 471 464 475 464 480 c 0
 464 507 465 546 474 546 c 0
 487 546 498 501 503 485 c 0
 507 471 515 457 526 447 c 0
 557 422 590 401 590 372 c 3
 590 355 571 332 549 332 c 3
 503 332 480 394 424 424 c 0
 368 454 330 451 278 498 c 0
612 547 m 0
 590 540 546 519 531 511 c 0
 520 505 513 505 510 510 c 0
 507 515 515 522 522 528 c 0
 551 553 621 588 621 616 c 3
 621 640 590 644 565 650 c 0
 546 654 525 648 525 668 c 0
 525 683 562 689 588 689 c 0xdc
 662 689 742 638 742 610 c 0
 742 581 724 566 698 566 c 0xec
 669 566 639 556 612 547 c 0
EndSplineSet
Validated: 1
EndChar

StartChar: uni3069
Encoding: 12393 12393 44
Width: 1000
Flags: W
HStem: 38 104<375.982 638.156> 323 214<452 527> 524 130<594.422 651.473> 582 130<718 812> 615 39<488.239 588.492>
VStem: 270 47<173.401 319.717> 594 127<552.715 603.691> 694 154<623 699> 776 72<584.56 641.81> 788 154<685 760> 870 72<644.805 701.689>
LayerCount: 2
Back
SplineSet
653 124 m 4x9c40
 692 124 705 97 705 97 c 6
 705 96 706 95 707 95 c 4
 709 95 710 86 710 78 c 4
 710 70 709 63 708 63 c 4
 707 63 704 60 704 59 c 4
 681 28 644 35 561 20 c 4
 553 19 545 19 537 19 c 4x9c40
 502 19 467 29 455 29 c 4
 439 29 424 42 422 42 c 4
 418 42 391 52 389 56 c 4
 389 57 387 58 386 58 c 4
 376 58 347 91 347 91 c 5
 347 93 342 96 340 105 c 4
 338 119 330 119 324 130 c 6
 316 146 l 6
 312 152 311 155 311 164 c 4
 311 175 320 245 321 245 c 4
 322 245 326 260 326 262 c 4x3c40
 326 279 341 289 344 300 c 4
 350 324 360 326 368 326 c 4
 376 326 378 318 378 313 c 4x3c20
 378 306 374 300 374 298 c 6
 374 298 362 246 362 213 c 4
 362 194 374 161 380 157 c 4
 381 156 389 150 389 149 c 4
 389 147 396 142 404 138 c 6
 416 132 l 6
 425 128 432 135 447 121 c 4
 455 114 468 112 482 112 c 4x3c40
 500 112 517 115 520 116 c 4x5c40
 529 117 636 118 641 121 c 4
 644 123 648 124 653 124 c 4x9c40
618 344 m 4
 618 329 607 322 588 322 c 4
 559 322 518 340 518 340 c 6
 514 340 507 347 504 347 c 4
 502 347 447 379 411 400 c 4
 404 404 401 402 394 409 c 4
 386 416 381 410 365 424 c 6
 354 434 l 6
 349 439 343 443 343 445 c 4
 343 447 315 471 315 479 c 4
 315 481 284 504 284 504 c 5
 284 508 257 518 257 531 c 4
 257 532 258 533 258 534 c 4
 258 542 255 549 255 555 c 4
 255 560 257 563 266 563 c 4
 268 563 271 563 274 562 c 6
 285 557 l 6
 288 556 290 555 291 555 c 4
 293 555 302 545 310 542 c 4
 323 536 340 526 340 526 c 6
 340 525 359 514 359 514 c 5
 362 514 380 496 395 487 c 4
 416 475 429 480 450 462 c 4
 455 459 469 454 478 448 c 4
 500 434 520 440 537 427 c 4
 552 416 542 430 562 410 c 4
 568 405 572 400 572 399 c 4
 572 398 590 389 590 387 c 4
 590 386 596 383 598 381 c 4
 599 380 599 378 599 378 c 6
 600 378 611 361 611 360 c 4
 611 358 618 354 618 344 c 4
723 548 m 4
 723 525 688 519 688 519 c 5
 679 519 671 526 660 526 c 4
 641 525 623 519 614 519 c 4
 601 519 584 507 566 507 c 4
 565 507 519 492 489 487 c 4
 486 487 485 489 485 494 c 5
 504 515 564 547 564 547 c 6
 564 548 565 549 566 549 c 4
 569 549 577 561 578 561 c 4
 580 561 586 567 586 565 c 4
 586 564 590 566 590 571 c 5
 586 578 571 588 569 588 c 4x1e
 565 589 548 589 533 594 c 4
 513 601 506 601 477 604 c 4
 456 606 462 603 459 610 c 4
 457 613 456 617 456 621 c 4
 456 641 482 646 507 646 c 4x1d
 520 646 525 644 538 644 c 4
 559 644 556 649 577 649 c 4x1e
 644 649 697 612 697 605 c 4
 697 604 723 586 723 548 c 4
850 611 m 4
 850 601 834 579 815 579 c 4
 798 579 778 596 778 600 c 4
 778 602 774 608 773 608 c 4
 771 608 758 632 758 635 c 4
 758 639 735 656 735 656 c 5
 728 665 l 6
 727 666 690 692 690 704 c 4
 690 710 698 712 708 712 c 4
 725 712 748 706 753 704 c 4
 754 703 754 702 755 702 c 4
 760 702 760 697 781 695 c 4
 793 694 813 677 820 675 c 4
 821 674 820 672 821 672 c 4
 824 672 850 639 850 611 c 4
791 738 m 4
 791 741 801 758 814 758 c 4
 819 758 823 757 823 757 c 5
 835 757 l 6
 880 757 874 747 889 747 c 4
 905 747 934 725 934 719 c 4
 934 717 938 716 938 710 c 4
 938 708 938 707 939 707 c 4
 940 707 941 700 941 692 c 4
 941 680 941 666 935 662 c 6
 924 654 l 5
 920 649 917 647 913 647 c 4x1c80
 910 647 907 649 904 649 c 4
 861 652 875 674 860 680 c 4
 853 683 791 737 791 738 c 4
EndSplineSet
Fore
SplineSet
626 54 m 0x84
 591 45 535 38 485 38 c 0
 440 38 394 48 361 67 c 0
 324 88 270 130 270 225 c 0
 270 279 291 337 334 380 c 0
 343 389 351 392 357 392 c 0
 360 392 363 391 364 389 c 0
 368 383 369 378 359 366 c 0
 347 352 337 330 331 310 c 0
 319 269 317 267 317 225 c 0
 317 171 364 142 453 142 c 0
 520 142 555 144 574 149 c 0
 588 152 610 160 633 160 c 0
 684 160 713 133 713 111 c 1
 713 93 664 63 626 54 c 0x84
257 493 m 0
 247 502 236 522 236 537 c 0
 236 548 241 556 256 556 c 3
 272 556 293 526 327 512 c 0
 342 506 360 494 382 484 c 24
 405 473 419 468 442 458 c 17
 442 462 442 466 442 471 c 0
 442 498 443 537 452 537 c 0
 465 537 476 492 481 476 c 0
 485 462 493 448 504 438 c 0
 535 413 568 392 568 363 c 3
 568 346 549 323 527 323 c 3xc4
 481 323 458 385 402 415 c 0
 346 445 309 446 257 493 c 0
585 516 m 0
 558 509 529 499 516 492 c 0
 506 487 498 489 495 494 c 0
 492 500 498 506 505 510 c 0
 538 530 594 557 594 585 c 3
 594 609 553 609 528 615 c 0
 509 619 488 613 488 633 c 0
 488 648 525 654 551 654 c 0x8e
 642 654 721 603 721 568 c 0
 721 537 703 524 677 524 c 0xa6
 648 524 613 523 585 516 c 0
EndSplineSet
Refer: 90 12441 S 1 0 0 1 1002 5 2
EndChar

StartChar: uni306A
Encoding: 12394 12394 45
Width: 1000
Flags: W
HStem: -6 61<434.178 572.5> 146 61<438.737 565.244> 584 67<272.345 357.911> 634 77<450.61 519.597>
VStem: 365 53<72.3032 130.51> 387 64<700.092 722.154> 558 45<207.781 441.928> 568 39<305.64 450.581> 707 112<490.396 546.807>
LayerCount: 2
Back
SplineSet
761.869 -4.79199 m 6x6018
 760.108 -15.6504 752.558 -18.4775 752.558 -18.4775 c 6
 751.571 -18.3174 741.113 -32.8311 726.307 -30.4297 c 4
 711.5 -28.0293 688.423 -14.1562 685.462 -13.6758 c 4
 679.539 -12.7158 681.006 -9.91406 677.058 -9.27344 c 4
 665.213 -7.35254 640.321 7.82715 630.45 9.42773 c 4
 627.489 9.9082 625.354 9.24121 624.074 1.34375 c 4
 623.273 -3.5918 623.461 -8.68652 623.141 -10.6611 c 4
 622.82 -12.6357 621.513 -14.4492 620.526 -14.2891 c 4
 617.564 -13.8096 613.083 -41.4482 610.121 -40.9678 c 5
 610.121 -40.9678 606.039 -47.3975 605.88 -48.3848 c 4
 605.079 -53.3203 598.996 -53.3467 598.196 -58.2822 c 4
 593.234 -88.8828 538.836 -93.2314 485.532 -84.5869 c 4xa014
 431.242 -75.7832 414.248 -61.8838 407.338 -60.7637 c 5
 407.338 -60.7637 353.101 -26.6416 358.836 14.9766 c 4
 359.477 18.9258 358.97 22.0469 358.97 22.0469 c 6
 359.93 27.9697 362.518 37.6807 362.998 40.6416 c 4
 367 65.3193 392.051 88.6094 400.588 91.2773 c 4
 402.723 91.9443 405.017 93.5986 405.177 94.5859 c 4
 405.497 96.5596 434.844 115.102 434.844 115.102 c 5
 436.817 114.781 445.168 122.545 455.359 122.918 c 4
 466.537 123.132 478.01 131.402 494.604 133.776 c 4
 506.102 135.964 509.57 132.362 526.004 133.75 c 4
 540.304 134.47 560.339 139.325 567.409 139.192 c 5
 569.703 140.847 570.023 142.82 570.344 144.795 c 4
 571.624 152.691 566.315 163.683 564.208 194.417 c 5
 561.46 221.202 l 5
 559.859 248.814 558.338 220.695 563.221 269.543 c 4
 565.701 303.585 567.569 327.596 570.45 345.364 c 4
 573.812 366.093 579.388 369.241 580.348 375.164 c 4
 580.988 379.112 586.697 389.33 587.685 389.17 c 4
 588.672 389.01 589.819 389.837 589.979 390.824 c 4
 590.619 394.772 597.022 396.773 601.958 395.973 c 4
 620.713 392.932 608.414 348.325 609.001 326.956 c 4
 608.841 325.969 610.015 320.713 608.574 311.829 c 4
 606.173 297.022 609.562 311.669 608.814 257.085 c 4
 608.601 230.779 612.522 236.222 613.056 227.018 c 4
 612.949 176.382 624.154 133.029 624.821 130.896 c 5
 654.008 110.966 716.756 85.5947 715.635 78.6855 c 4
 715.475 77.6982 738.846 71.8818 748.103 60.25 c 4
 765.791 38.1338 767.045 14.6299 765.283 3.77148 c 4
 764.483 -1.16309 763.336 -1.99023 762.349 -1.83008 c 5
 761.869 -4.79199 l 6x6018
423.771 53.0742 m 4
 421.798 53.3936 414.595 46.458 413.794 41.5225 c 4
 412.834 35.5996 413.367 26.3955 413.047 24.4209 c 5
 413.047 24.4209 415.688 21.9668 415.368 19.9922 c 4
 414.888 17.0312 414.567 15.0566 415.555 14.8965 c 4x6014
 420.49 14.0967 440.179 -14.4229 460.908 -17.7842 c 4
 468.805 -19.0645 474.541 -14.9297 491.322 -17.6514 c 4
 528.832 -23.7334 529.285 -14.6895 545.159 1.98438 c 4
 546.467 3.79883 559.672 29.0098 559.832 29.9971 c 4
 561.593 40.8555 549.481 66.1201 533.688 68.6807 c 4
 500.126 74.123 452.691 56.4883 441.833 58.25 c 4x9014
 425.88 59.8232 428.707 52.2734 423.771 53.0742 c 4
829.419 411.767 m 6
 828.459 405.844 822.109 391.678 791.509 396.64 c 4x0810
 780.65 398.4 772.087 401.815 768.778 406.404 c 4
 757.867 420.33 749.01 415.688 730.389 425.8 c 4
 719.184 431.669 722.305 432.176 699.602 435.857 c 6
 696.64 436.338 l 6
 689.73 437.458 665.213 442.447 666.974 453.305 c 4
 669.534 469.099 715.208 475.875 717.77 491.669 c 4
 719.05 499.565 702.883 512.318 703.043 513.305 c 5x0210
 698.107 514.105 689.837 525.577 670.575 531.74 c 4x0110
 651.312 537.902 646.324 550.868 638.747 554.123 c 4
 636.934 555.431 630.184 557.538 626.049 563.274 c 6x0090
 617.618 573.759 l 5
 612.336 578.668 611.002 582.936 611.643 586.885 c 4
 613.723 599.717 624.074 601.077 653.688 596.275 c 4x0210
 695.146 589.553 706.404 571.518 721.051 568.13 c 4
 740.473 562.954 782.892 524.67 782.892 524.67 c 5x0810
 787.827 523.87 820.321 499.353 830.619 475.395 c 4
 837.103 459.147 833.581 437.432 831.18 422.625 c 6
 829.419 411.767 l 6
219.067 621.166 m 4x0150
 220.508 630.051 235.262 639.814 243.158 638.534 c 4
 247.106 637.894 252.549 633.973 252.229 631.998 c 5x0150
 252.229 631.998 253.056 630.851 254.043 630.69 c 4
 256.018 630.37 265.274 618.738 267.249 618.419 c 4
 275.146 617.138 270.904 609.722 291.633 606.359 c 4
 298.543 605.239 307.427 603.799 322.714 604.359 c 6
 341.122 605.426 l 6
 362.491 606.013 376.897 619.886 376.897 619.886 c 5
 379.353 622.527 378.338 628.77 378.338 628.77 c 6
 381.7 649.499 349.339 681.086 352.06 697.867 c 4
 352.7 701.815 355.475 706.431 370.281 704.03 c 5
 378.498 704.724 385.408 703.604 392.318 702.482 c 4
 429.828 696.4 445.062 671.643 445.062 671.643 c 5
 449.997 670.842 443.434 667.854 455.279 665.933 c 4
 474.034 662.892 487.987 667.721 490.948 667.24 c 6
 501.807 665.479 l 6
 510.69 664.039 532.247 659.53 526.324 623.007 c 4
 521.842 595.368 496.737 584.243 491.802 585.044 c 4
 490.815 585.204 440.766 563.941 412.087 543.266 c 4
 409.632 540.624 396.159 501.273 391.411 496.978 c 4
 387.97 494.497 384.928 475.742 379.219 465.523 c 4
 366.013 440.312 343.176 361.958 340.215 362.438 c 4
 338.24 362.758 334.346 351.233 329.943 342.829 c 4
 320.979 325.035 313.59 323.194 307.293 296.862 c 4
 292.727 244.519 263.487 201.646 263.487 201.646 c 5
 263.487 201.646 258.285 188.308 257.965 186.333 c 4
 257.004 180.41 223.843 132.096 199.165 136.098 c 4
 191.269 137.378 186.813 141.14 184.812 147.543 c 4
 177.636 172.007 170.353 183.318 173.714 204.048 c 4
 175.475 214.906 179.21 225.443 187.026 242.411 c 4
 191.589 251.802 201.62 251.188 208.156 260.26 c 6
 235.102 301.478 l 5
 235.102 301.478 253.43 320.793 253.75 322.768 c 4
 254.069 324.741 259.966 329.863 260.953 329.703 c 4
 261.939 329.543 276.133 354.595 277.573 363.479 c 4
 278.854 371.375 284.27 373.536 284.91 377.484 c 4
 285.07 378.472 285.23 379.459 286.218 379.299 c 4
 288.191 378.979 289.926 395.92 296.622 405.978 c 4
 313.27 433.67 343.71 502.688 347.552 526.378 c 4
 347.871 528.352 348.191 530.326 347.364 531.474 c 5
 333.385 532.728 320.232 532.834 305.426 535.234 c 4x04b0
 286.671 538.276 267.409 544.439 244.626 566.369 c 4
 234.061 576.187 231.286 571.571 223.31 591.1 c 4x0230
 222.482 592.247 218.48 605.053 217.493 605.213 c 4
 216.507 605.373 216.826 607.347 217.146 609.321 c 4
 217.787 613.27 218.428 617.218 219.067 621.166 c 4x0150
EndSplineSet
Fore
SplineSet
218 322 m 0xd480
 252 361 278 405 293 433 c 0
 307 461 353 550 358 584 c 1
 354 584 349 584 345 584 c 0
 294 584 260 605 244 627 c 0
 236 638 231 649 231 659 c 3
 231 670 240 684 254 684 c 3
 270 684 277 651 320 651 c 3
 326 651 329 651 334 651 c 0xe480
 355 651 365 652 387 668 c 1
 387 696 360 721 360 740 c 3
 360 744 363 746 377 746 c 3
 407 746 451 725 451 704 c 0
 451 702 451 702 450 700 c 1
 463 705 477 711 490 711 c 3
 491 711 493 711 495 711 c 0
 506 711 526 709 526 681 c 3
 526 662 513 637 495 634 c 0
 481 631 447 610 417 596 c 1
 407 572 396 547 385 520 c 0
 367 475 349 423 339 403 c 0
 327 376 309 315 278 267 c 0
 260 239 246 207 214 207 c 3
 193 207 189 249 189 264 c 3
 189 285 197 298 218 322 c 0xd480
544 -6 m 3
 491 -6 448 1 412 19 c 0
 393 29 365 60 365 89 c 3
 365 144 407 166 438 187 c 0
 453 197 515 207 543 207 c 3
 559 207 558 208 570 207 c 1
 568 217 565 233 562 249 c 0
 560 259 558 279 558 304 c 3xca80
 558 339 562 373 568 404 c 0
 573 432 582 454 596 454 c 3
 604 454 607 444 607 427 c 0xc180
 607 410 604 387 603 359 c 0
 603 349 603 341 603 335 c 0xc280
 603 320 604 313 608 293 c 1
 608 245 618 205 620 195 c 1
 669 176 716 151 739 131 c 0
 750 121 753 104 753 89 c 3
 753 65 735 49 719 49 c 3
 704 49 692 53 680 64 c 0
 670 70 645 87 621 98 c 1
 619 72 601 -6 544 -6 c 3
418 103 m 3
 418 90 428 79 450 65 c 0
 460 58 482 55 498 55 c 3
 526 55 540 73 547 83 c 0
 560 103 562 110 566 135 c 1
 550 145 526 146 498 146 c 3
 469 146 418 130 418 103 c 3
645 597 m 0
 628 607 599 623 599 633 c 3
 599 643 613 646 626 646 c 3
 683 646 747 600 766 581 c 0
 780 566 819 531 819 499 c 3
 819 483 815 468 810 461 c 0
 804 452 793 454 789 454 c 3
 760 454 760 461 742 473 c 0
 732 480 718 491 687 496 c 0
 684 496 682 497 679 497 c 0
 677 497 674 497 672 497 c 0
 663 497 655 497 655 504 c 3
 655 517 707 531 707 546 c 3
 707 559 675 579 645 597 c 0
EndSplineSet
Validated: 1
EndChar

StartChar: uni306B
Encoding: 12395 12395 46
Width: 1000
Flags: W
HStem: 83 76<577.602 770.418> 567 70<527.196 717.624>
VStem: 181 58<265.856 467.103> 223 71<507.452 666.546> 285 24<306.56 356.233>
LayerCount: 2
Back
SplineSet
752 187 m 4x40
 775 187 790 181 790 180 c 4
 790 179 804 181 812 166 c 4
 815 161 816 156 816 150 c 4
 816 128 795 106 788 104 c 6x40
 788 104 743 101 735 96 c 5
 729 94 701 93 675 93 c 4x80
 624 93 617 96 611 97 c 4
 592 102 519 153 519 155 c 4
 519 157 484 199 484 219 c 4
 484 226 489 228 492 228 c 4
 503 228 514 210 516 210 c 4
 518 210 540 187 541 187 c 4x40
 588 179 565 169 634 169 c 4x80
 680 169 671 179 684 179 c 5
 684 179 720 187 752 187 c 4x40
748 617 m 4x10
 748 587 616 573 613 573 c 6x20
 613 573 554 577 547 587 c 4
 545 590 504 596 489 609 c 4
 480 616 480 617 479 617 c 4
 478 617 471 625 471 626 c 4
 471 627 471 633 472 633 c 6x10
 472 633 471 646 490 646 c 4
 501 646 515 642 533 642 c 4
 556 642 545 646 591 646 c 6
 619 646 l 6x20
 633 646 643 646 644 649 c 4
 644 650 645 651 646 651 c 4
 651 651 646 656 666 657 c 4
 686 659 677 665 693 665 c 4
 703 665 702 667 706 667 c 5
 706 667 751 660 751 639 c 4
 751 632 748 625 748 617 c 4x10
211 84 m 5
 211 85 208 90 207 94 c 4
 204 107 203 121 200 126 c 4
 193 136 184 227 184 267 c 4
 184 275 185 280 186 282 c 4
 190 297 189 378 194 440 c 4x0a
 195 453 199 459 201 471 c 4
 206 503 202 522 212 553 c 4
 213 556 222 580 222 587 c 4
 222 602 226 613 226 625 c 4
 226 663 192 653 192 693 c 4
 192 698 194 700 203 700 c 6
 210 700 l 5
 231 698 l 5
 247 695 291 662 291 605 c 4x04
 291 543 235 451 235 340 c 4
 235 267 249 267 251 266 c 4
 253 266 256 274 257 274 c 5
 257 275 260 282 260 282 c 5
 281 337 l 5
 285 349 l 5
 285 354 288 357 294 357 c 4
 302 357 305 349 305 336 c 4x09
 305 315 297 284 296 276 c 6
 292 254 l 5
 290 249 289 235 289 219 c 4
 290 94 302 133 302 71 c 4
 302 30 290 22 275 22 c 4
 253 22 244 47 244 47 c 6x02
 244 48 240 53 239 53 c 4
 238 53 217 72 217 73 c 4
 217 76 212 84 211 84 c 5
EndSplineSet
Fore
SplineSet
656 83 m 0xc0
 603 83 547 118 518 149 c 0
 509 159 484 198 484 217 c 3
 484 223 486 227 492 227 c 0
 505 227 527 198 545 184 c 0
 565 168 615 159 639 159 c 0
 660 159 674 162 695 169 c 0
 712 175 725 180 753 180 c 0
 779 180 818 176 818 144 c 0
 818 126 809 110 790 99 c 0
 772 89 729 83 656 83 c 0xc0
591 637 m 0
 620 637 637 640 658 647 c 0
 677 653 690 662 716 662 c 0
 726 662 743 658 754 648 c 0
 762 641 767 632 767 620 c 0
 767 606 755 593 734 584 c 0
 701 570 671 567 639 567 c 0
 606 567 577 575 551 584 c 0
 512 597 484 615 484 630 c 0
 484 634 486 638 490 640 c 0
 495 643 503 645 515 644 c 0
 531 644 576 637 591 637 c 0
181 321 m 0xe8
 181 396 223 594 223 626 c 0
 223 644 216 653 206 662 c 0
 198 669 191 683 191 695 c 0
 191 699 195 704 213 703 c 0
 254 702 294 657 294 614 c 0xd0
 294 527 243 468 239 340 c 1
 239 287 247 268 253 264 c 1
 270 291 273 309 285 337 c 0
 289 346 291 357 301 357 c 0
 310 357 309 348 309 336 c 0
 308 315 299 284 298 276 c 0
 294 263 289 239 289 204 c 0
 289 126 299 110 299 71 c 0
 299 33 286 21 269 21 c 0
 244 22 223 50 211 72 c 0
 193 106 181 231 181 321 c 0xe8
EndSplineSet
Validated: 1
EndChar

StartChar: uni306C
Encoding: 12396 12396 47
Width: 1000
Flags: W
HStem: 64 85<208.125 248.993> 71 68<538.883 647.364> 204 57<547.024 643.389> 479 60<332.034 350.999> 596 51<303.012 355.453> 606 29<294.072 303> 613 52<510.14 604>
VStem: 147 58<149.028 240.98> 199 80<368.234 396.719> 270 63<446.053 468.949> 303 103<231 290> 354 63<313.662 371> 359 74<539.014 571.763> 367 60<410 453.164> 375 52<410.836 482.644> 478 60<142.947 189.129> 724 87<249.376 259 315.852 505.817> 728 93<259.029 471.475> 758 97<66.7554 106.969>
LayerCount: 2
Fore
SplineSet
810 259 m 1x322140
 810 258 811 255 811 247 c 0x320180
 811 237 810 237 808 196 c 1
 809 196 811 185 816 179 c 0
 819 174 827 170 827 168 c 0
 827 164 853 151 853 130 c 0
 853 124 855 126 855 111 c 0
 855 91 848 78 847 78 c 0
 846 78 840 61 812 61 c 0
 790 61 767 70 767 75 c 0
 767 77 758 86 758 87 c 0x320120
 758 97 734 109 731 109 c 0
 719 109 707 89 675 83 c 1
 653 78 l 1
 630 74 635 71 602 71 c 0
 553 71 521 88 521 91 c 0
 521 93 478 147 478 161 c 0
 478 164 479 167 482 175 c 2
 488 189 l 2
 491 195 494 203 499 212 c 0
 504 219 513 228 514 228 c 0
 520 230 538 243 555 247 c 0
 581 254 584 258 591 260 c 2
 603 262 l 1
 611 261 610 261 627 261 c 0
 671 259 685 248 697 248 c 0
 708 248 724 267 724 301 c 0x720180
 724 326 728 319 728 344 c 0
 728 477 708 469 703 503 c 0
 698 534 690 534 690 539 c 0
 690 542 672 567 658 580 c 2
 644 594 l 2
 633 604 604 611 604 612 c 0
 588 613 576 613 565 613 c 0x720140
 515 613 513 606 510 606 c 0
 495 606 442 575 438 572 c 1
 434 567 433 559 433 549 c 0x340940
 433 531 438 509 438 498 c 0
 438 456 427 481 427 422 c 0
 427 420 427 418 427 416 c 0x3405
 427 394 418 380 417 351 c 0x3411
 416 318 406 307 406 290 c 0x3421
 406 273 418 274 418 270 c 0
 418 268 425 257 425 247 c 0
 425 235 395 205 375 198 c 1
 374 194 367 194 363 180 c 0
 361 172 340 156 340 146 c 0
 340 143 333 136 333 134 c 0
 333 128 272 64 232 64 c 0
 221 64 222 67 205 67 c 0
 188 67 194 70 189 70 c 0
 187 70 187 71 187 72 c 0
 187 75 178 72 165 93 c 0
 163 98 152 108 152 110 c 0
 152 112 147 114 147 119 c 0
 147 123 145 119 145 137 c 0
 145 148 147 156 147 162 c 0xb543
 147 166 146 164 146 182 c 0
 146 238 155 228 155 238 c 0
 155 240 155 241 156 241 c 0
 158 241 162 260 166 264 c 0
 173 272 169 288 179 298 c 0
 180 300 204 359 204 362 c 0
 204 368 199 372 199 376 c 0xb481
 199 378 200 379 200 380 c 0
 200 385 194 391 194 397 c 0
 194 402 189 401 189 405 c 0
 189 407 186 416 186 416 c 1
 184 416 182 425 177 430 c 0
 175 433 173 435 161 481 c 0
 161 482 155 496 155 498 c 0
 155 507 153 519 153 530 c 0
 153 544 156 555 169 555 c 0
 170 555 175 551 176 551 c 0
 189 551 184 511 235 440 c 0
 238 435 242 435 244 435 c 0
 253 435 260 446 260 446 c 2
 260 447 270 457 270 460 c 0
 270 462 283 475 291 486 c 0
 295 492 299 504 300 504 c 0
 301 504 302 504 302 505 c 0
 302 508 320 523 323 523 c 1
 332 529 l 1
 332 532 337 539 339 539 c 0
 341 539 359 558 359 563 c 0
 359 564 358 582 345 587 c 0
 337 590 337 596 334 596 c 0xb849
 332 596 321 606 313 606 c 2
 307 606 l 2
 298 606 294 609 294 619 c 0
 294 627 298 635 303 635 c 1x3421
 303 641 320 647 346 647 c 0x3821
 389 647 397 625 403 625 c 0
 407 625 412 617 419 617 c 1
 428 621 436 629 447 632 c 0
 475 641 522 665 590 665 c 0
 622 665 653 660 660 654 c 0
 666 648 699 637 722 624 c 0
 727 621 729 614 732 614 c 0
 734 614 754 591 754 591 c 2
 754 590 767 575 767 573 c 0
 767 570 776 564 778 552 c 0
 781 539 786 528 786 521 c 0
 786 509 803 473 803 444 c 0
 803 431 806 435 806 429 c 0
 806 422 812 415 812 403 c 0
 812 395 815 393 816 385 c 0
 817 363 821 333 821 315 c 0
 821 307 820 303 818 301 c 0
 814 299 811 259 810 259 c 1x322140
333 460 m 0x3043
 333 452 305 439 279 385 c 1
 279 378 273 373 271 368 c 1
 271 368 270 364 271 362 c 0
 272 361 313 325 335 313 c 1
 346 313 338 318 350 345 c 0
 352 348 354 357 354 358 c 2
 354 371 l 1x3091
 367 410 l 1x3005
 367 428 375 436 375 454 c 0
 375 477 372 483 361 483 c 0
 356 483 351 483 351 480 c 0
 351 479 350 479 349 479 c 0
 348 479 340 471 340 469 c 0
 340 468 333 461 333 460 c 0x3043
263 174 m 0
 263 175 282 196 286 196 c 0
 287 196 298 213 298 214 c 0
 298 226 303 227 303 231 c 0
 303 241 252 283 235 293 c 1
 229 290 233 294 229 287 c 0
 228 285 221 266 221 266 c 2
 221 264 220 262 219 262 c 2
 219 262 213 241 212 241 c 0
 211 241 205 213 205 196 c 0
 205 192 205 190 206 188 c 0
 211 175 203 166 217 154 c 1
 220 150 224 149 228 149 c 0xb121
 240 149 249 164 249 164 c 1
 249 166 263 172 263 174 c 0
598 139 m 0x7001
 616 139 659 164 659 174 c 1
 659 174 651 192 644 193 c 0
 631 195 616 204 602 204 c 0
 580 204 547 186 547 186 c 2
 544 186 538 175 538 165 c 0
 538 144 563 139 598 139 c 0x7001
EndSplineSet
Validated: 1
EndChar

StartChar: uni306D
Encoding: 12397 12397 48
Width: 1000
Flags: W
HStem: 5 77<536.841 647.831> 137 65<523.004 561.529> 143 76<534.24 636.767> 570 51<557.477 675.978>
VStem: 149 81<75.0978 137.042> 152 29<367.248 422.996 423 435.505> 160 31<54.0059 59> 271 108<63.0044 144.995> 285 73<714.001 716.996 717 737.517> 285 42<730.307 753.924> 299 94<-22.8351 62.9949 63.0044 104.25 383.004 417.991> 307 58<561.048 629.745 637.141 654.38> 308 71<630.185 661.999> 455 68<104.097 139.592> 675 84<531.287 566.529> 689 77<453.621 551.768> 708 83<208 281.201 282.747 321.503 322.038 373.803> 716 75<323.428 413.985>
LayerCount: 2
Fore
SplineSet
462 147 m 1xb006
 464 159 474 164 474 169 c 0
 474 170 485 179 485 180 c 0
 485 181 486 182 487 182 c 0
 491 182 518 202 521 202 c 0xd006
 525 202 538 219 593 219 c 0
 608 219 633 208 691 208 c 0
 704 208 699 208 702 221 c 0
 707 245 709 265 709 282 c 0
 709 298 708 310 708 322 c 0xb00480
 708 353 716 349 716 375 c 0xb00440
 716 394 711 414 711 414 c 1
 711 448 689 496 689 505 c 0xb005
 688 545 675 547 675 552 c 1
 675 552 664 570 631 570 c 0
 603 570 585 561 574 557 c 0
 546 547 548 548 534 535 c 0
 533 534 518 516 517 516 c 0
 513 516 502 502 498 502 c 1
 498 502 446 456 446 451 c 0
 446 449 432 441 432 441 c 1
 432 436 403 408 403 400 c 0
 403 398 402 395 401 395 c 0
 400 395 397 390 397 389 c 0
 397 386 391 381 390 377 c 1
 390 372 386 363 384 363 c 1
 384 363 369 346 369 341 c 2
 369 341 363 324 363 302 c 0
 363 256 376 277 376 218 c 2
 376 165 l 2
 376 139 379 144 379 139 c 0xb106
 379 134 389 130 393 76 c 0
 393 69 394 63 395 63 c 2
 395 63 393 56 393 51 c 0
 393 36 385 -40 341 -40 c 0
 312 -40 299 17 299 25 c 0xb024
 299 32 271 120 271 135 c 0
 271 138 265 145 259 145 c 0
 252 145 238 108 231 108 c 0
 230 108 230 107 230 106 c 0xb904
 230 102 222 98 217 89 c 0
 207 68 191 61 191 61 c 1
 191 56 184 54 175 54 c 0
 168 54 160 56 160 58 c 0xb204
 160 59 159 59 158 59 c 0
 155 59 149 66 149 70 c 0xb804
 149 73 143 70 143 101 c 0
 143 163 143 145 154 169 c 0
 159 181 171 180 180 189 c 0
 186 195 191 204 191 204 c 1xb204
 191 208 220 220 220 241 c 0
 220 262 201 286 199 291 c 0
 193 303 202 293 181 329 c 0
 156 373 152 400 152 411 c 2
 152 415 l 2xb404
 152 418 150 423 151 423 c 1
 151 424 149 430 149 437 c 0
 149 463 195 493 200 495 c 0
 282 525 255 528 279 533 c 0
 286 534 290 538 293 540 c 0
 293 541 307 562 307 566 c 0xb814
 307 614 308 642 308 655 c 0xb00c
 308 660 308 662 307 662 c 2xb014
 296 694 l 1
 295 701 288 705 288 710 c 0
 288 712 286 717 285 717 c 1
 285 724 l 2xb084
 285 748 311 756 311 756 c 1
 319 756 327 749 327 745 c 0xb044
 327 740 358 729 358 717 c 0xb084
 358 716 359 714 359 714 c 1
 361 714 366 704 368 704 c 1
 368 704 369 702 369 701 c 0
 369 694 379 696 379 656 c 2
 379 654 l 2xb00c
 379 644 380 640 380 637 c 0
 380 634 379 634 376 630 c 1
 374 625 365 592 365 591 c 0xb014
 365 565 373 562 374 561 c 0
 388 560 393 551 393 551 c 1
 408 536 l 2
 413 531 417 531 417 522 c 0
 417 518 424 498 424 498 c 1
 426 497 428 498 428 498 c 2
 430 498 432 498 432 499 c 2
 432 499 451 515 454 517 c 0
 470 523 542 602 584 611 c 0
 622 619 620 621 631 621 c 0
 677 621 724 589 727 589 c 0
 730 589 745 580 748 577 c 0
 750 575 759 554 759 554 c 1xb026
 759 551 766 537 766 531 c 1xb005
 766 531 792 483 792 394 c 0
 792 381 791 379 791 377 c 0
 791 375 798 322 798 322 c 1
 798 312 794 263 794 238 c 0
 794 234 795 233 795 228 c 0
 795 213 794 191 791 191 c 1xb00440
 791 191 784 154 784 153 c 0
 784 144 801 142 812 132 c 0
 814 130 816 129 817 129 c 0
 822 129 857 102 857 77 c 0
 857 56 852 49 852 49 c 1
 849 49 850 43 846 41 c 0
 836 38 837 31 823 31 c 0
 790 31 752 56 740 56 c 0
 730 56 718 46 713 46 c 0
 712 46 692 25 675 21 c 0
 669 20 666 14 663 14 c 2
 663 14 645 5 615 5 c 0
 609 5 604 5 598 6 c 0
 563 10 559 4 547 16 c 0
 535 30 525 25 525 29 c 1
 525 29 508 36 499 44 c 0
 496 46 493 49 493 49 c 1
 490 49 480 59 480 61 c 0
 480 70 460 81 460 97 c 0
 460 99 455 108 455 120 c 0
 455 128 460 147 462 147 c 1xb006
235 450 m 1
 235 450 181 444 181 411 c 0
 181 390 199 363 212 330 c 0
 217 318 233 307 233 306 c 2
 246 296 l 1
 254 305 l 1
 254 309 267 313 269 323 c 0
 269 325 270 327 271 327 c 0x9504
 272 327 278 335 278 339 c 1
 279 339 282 352 282 353 c 0
 282 356 293 383 295 383 c 1
 295 383 299 389 299 397 c 0x9024
 299 412 302 427 302 441 c 0
 302 459 295 462 291 462 c 0
 274 462 238 450 235 450 c 1
649 106 m 0
 649 112 623 137 619 137 c 0xd004
 614 137 619 141 597 142 c 0
 579 142 569 143 562 143 c 0xb004
 552 143 539 137 534 137 c 0xd004
 529 137 523 127 523 119 c 0
 523 116 524 113 526 111 c 0
 531 106 570 84 578 84 c 0
 589 84 594 82 600 82 c 0
 614 82 637 98 641 98 c 0
 643 98 649 102 649 106 c 0
EndSplineSet
Validated: 1
EndChar

StartChar: uni306E
Encoding: 12398 12398 49
Width: 1000
Flags: W
HStem: 24 36<397.055 528.691> 117 93<223.188 298.085> 657 38<387.015 481 515 605.914>
VStem: 142 58<235.441 455.443> 481 42<476.528 656.555> 777 81<258.316 492.033>
LayerCount: 2
Back
SplineSet
759 143 m 4x7004
 759 138 735 112 729 111 c 4
 726 111 724 110 724 109 c 4x7002
 724 104 701 102 692 94 c 4
 688 90 656 77 653 77 c 5
 633 66 l 21
 626 66 634 58 562 40 c 4
 550 37 540 38 540 36 c 4
 540 34 527 32 515 32 c 4
 509 32 467 25 456 25 c 4
 452 25 448 27 414 27 c 6
 409 27 l 6
 400 27 398 27 398 31 c 4
 398 70 475 56 485 63 c 4
 489 65 516 68 535 77 c 4
 541 79 543 83 548 84 c 4
 570 90 573 98 594 105 c 4
 611 110 634 123 634 123 c 6
 634 124 651 137 651 137 c 6
 652 137 679 157 681 157 c 5
 692 166 l 5
 692 172 706 177 706 180 c 4xb044
 706 182 720 195 722 195 c 4
 724 195 729 212 731 215 c 4
 733 220 741 222 741 226 c 4
 741 228 745 236 746 236 c 4
 747 236 755 257 755 257 c 5xb00080
 755 267 773 281 773 333 c 4xb00010
 773 336 775 338 776 341 c 4
 779 363 780 379 780 389 c 4
 780 406 777 409 777 409 c 6
 776 409 775 410 775 412 c 4
 775 414 776 417 776 422 c 4xb00408
 776 442 772 447 772 454 c 4
 772 455 771 456 771 456 c 5
 772 460 772 464 772 468 c 4xb00020
 772 483 766 488 766 491 c 4xb00040
 766 494 759 502 759 509 c 5
 758 509 749 520 749 523 c 4xb001
 749 532 735 539 735 539 c 5
 731 539 724 552 724 559 c 4
 724 561 721 567 720 567 c 4
 718 567 713 578 712 578 c 4
 711 578 710 579 710 580 c 4
 710 584 647 621 646 622 c 4
 637 629 608 637 603 640 c 4
 593 646 571 644 561 651 c 4
 556 655 545 657 536 657 c 4
 521 657 518 655 518 646 c 4
 518 637 521 626 521 622 c 4xb022
 521 619 519 619 519 590 c 4xb010
 519 549 523 480 523 480 c 6
 523 478 521 470 521 466 c 4xb020
 521 451 515 451 515 445 c 4xb040
 515 443 511 443 508 426 c 4
 503 395 503 420 498 393 c 4
 495 379 485 371 482 361 c 4
 478 345 466 325 466 324 c 4
 466 321 461 318 461 316 c 4
 461 311 441 267 435 267 c 5
 435 262 428 262 428 261 c 4
 428 257 418 250 418 245 c 4
 418 237 407 232 407 227 c 4
 407 224 407 222 406 222 c 4
 404 222 406 217 400 212 c 4
 398 210 396 208 396 207 c 4
 396 205 391 200 387 194 c 4
 382 186 377 178 373 173 c 4
 368 167 351 156 347 152 c 4
 329 133 334 143 320 136 c 5
 309 129 l 5
 302 126 301 118 249 118 c 4
 238 118 249 121 230 126 c 6
 219 129 l 5
 209 129 205 143 200 143 c 4
 199 143 198 143 198 144 c 4
 198 146 191 147 189 152 c 4
 183 164 178 160 178 171 c 4
 178 173 177 175 176 175 c 4
 173 175 175 178 175 185 c 4x7180
 175 191 174 194 173 194 c 4
 171 194 164 212 164 219 c 4x72
 164 222 156 233 156 239 c 4
 156 242 156 244 155 244 c 4
 154 244 153 244 153 245 c 4
 153 249 146 254 146 264 c 4x74
 146 296 142 341 142 347 c 5x78
 145 347 153 426 153 426 c 5
 153 448 175 482 175 487 c 4
 175 488 197 520 197 524 c 4
 197 529 214 545 215 550 c 4
 215 553 230 578 257 603 c 4
 268 613 274 611 282 619 c 4
 289 625 298 631 301 631 c 4
 302 631 303 631 303 632 c 4
 303 633 334 654 343 654 c 5
 390 690 528 695 528 695 c 5
 569 689 l 5
 578 689 576 686 599 683 c 4
 706 673 736 614 740 613 c 4
 747 610 773 585 773 582 c 4x710010
 773 573 805 558 805 542 c 4x7002
 805 539 811 536 811 535 c 4x7001
 811 533 821 526 821 522 c 4
 821 521 831 505 831 496 c 4
 831 493 834 495 834 491 c 4x700080
 836 462 839 469 839 463 c 4
 839 445 853 444 853 423 c 4x700008
 853 394 858 336 858 319 c 4x700010
 858 299 834 249 834 245 c 4x700080
 834 241 825 235 825 230 c 4
 825 219 808 204 808 204 c 5
 808 195 776 169 776 166 c 4
 776 164 759 145 759 143 c 4x7004
408 642 m 6
 405 642 390 634 387 633 c 4
 373 631 367 629 361 627 c 5
 351 620 l 5
 351 620 327 602 327 601 c 4
 327 600 326 600 324 600 c 4
 322 600 314 587 307 586 c 4
 298 584 279 564 270 549 c 4
 266 541 272 541 260 527 c 4
 253 520 239 497 239 497 c 6
 239 496 231 484 231 484 c 6
 230 484 227 474 227 473 c 4x7108
 227 470 223 466 223 464 c 4
 223 462 219 454 218 454 c 6
 218 454 213 419 208 419 c 4
 206 419 206 419 206 415 c 4
 206 398 201 398 201 332 c 4x78
 201 309 209 274 209 272 c 4x74
 209 269 214 261 215 261 c 4
 216 261 216 259 216 258 c 4
 216 254 220 255 220 244 c 4
 220 228 237 210 239 210 c 4
 241 210 248 210 248 211 c 4
 248 214 268 220 280 221 c 4
 283 221 297 236 303 237 c 4
 319 240 352 296 365 301 c 4
 381 308 379 317 382 317 c 4
 383 317 384 318 384 319 c 4x7280
 384 323 398 328 400 340 c 4
 402 347 404 345 404 348 c 4
 404 351 410 355 410 358 c 4
 410 360 424 394 425 394 c 4
 426 394 428 399 428 400 c 4
 428 402 436 410 436 412 c 4
 436 414 439 422 440 422 c 4
 441 422 441 423 441 424 c 4
 441 432 449 434 449 438 c 4x7040
 449 448 460 459 460 469 c 4x7020
 460 478 473 497 473 516 c 6
 473 526 l 6x7010
 473 562 480 589 480 611 c 6
 480 619 l 6
 480 628 483 630 483 634 c 4
 483 640 480 639 480 647 c 6
 480 652 l 6x7008
 480 656 479 659 463 659 c 4
 431 659 408 642 408 642 c 6
EndSplineSet
Fore
SplineSet
719 106 m 0
 639 49 537 24 448 24 c 3
 412 24 397 31 397 43 c 3
 397 54 416 60 448 60 c 3
 527 60 638 127 691 166 c 0
 743 203 777 287 777 375 c 3
 777 463 749 540 707 579 c 0
 638 643 550 656 515 658 c 1
 519 628 523 544 523 497 c 3
 523 389 427 231 372 170 c 0
 347 142 302 117 254 117 c 0
 216 117 191 151 172 189 c 24
 145 245 142 311 142 347 c 3
 142 377 153 465 212 550 c 0
 256 614 288 634 346 662 c 0
 408 692 500 695 524 695 c 3
 585 695 690 666 739 623 c 0
 794 574 858 500 858 378 c 3
 858 228 790 155 719 106 c 0
240 506 m 0
 205 459 200 363 200 347 c 3
 200 307 219 210 242 210 c 3
 299 210 372 296 410 360 c 0
 446 420 470 503 473 526 c 0
 479 566 481 607 481 657 c 1
 441 653 405 649 368 630 c 0
 322 606 288 570 240 506 c 0
EndSplineSet
Validated: 1
EndChar

